<svg width="532" height="532" viewBox="0 0 532 532" fill="none" xmlns="http://www.w3.org/2000/svg">
<g clip-path="url(#clip0_3_4)">
<circle cx="266" cy="266" r="266" fill="#D9D9D9"/>
<path d="M266.5 262C321.452 262 366 217.676 366 163C366 108.324 321.452 64 266.5 64C211.548 64 167 108.324 167 163C167 217.676 211.548 262 266.5 262Z" fill="#999999"/>
<path d="M451 400.874C396.738 445.015 329.61 469 258.79 469C194.123 469 132.525 448.995 81 411.915C81.092 410.946 81.184 409.988 81.2645 409.031C82.6328 394.033 83.8517 379.45 84.6565 367.359C87.7727 320.415 196.928 289.127 196.928 289.127C196.928 289.127 197.423 289.623 198.412 290.488C204.437 295.795 228.894 315.039 271.784 320.415C310.028 325.214 322.619 302.452 326.425 291.549C327.575 288.227 327.92 286 327.92 286L440.191 339.197C447.516 349.696 450.379 372.308 450.943 397.724C450.965 398.774 450.988 399.813 451 400.874Z" fill="#999999"/>
</g>
<defs>
<clipPath id="clip0_3_4">
<rect width="532" height="532" fill="white"/>
</clipPath>
</defs>
</svg>
