<svg width="100%" height="100%"  viewBox="0 0 1195 509" fill="none" xmlns="http://www.w3.org/2000/svg">
<path d="M299.977 218.728V124.025C299.977 114.582 292.279 106.9 282.816 106.9H220.729C211.265 106.9 203.567 114.582 203.567 124.025V218.728C203.567 228.171 211.265 235.853 220.729 235.853H282.816C292.279 235.853 299.977 228.171 299.977 218.728Z" fill="#FFC107"/>
<path d="M268.182 147.837H235.362V139.65H268.182V147.837Z" fill="#3F3D56"/>
<path d="M259.977 133.509H243.567V106.9H259.977V133.509Z" fill="#3F3D56"/>
<path d="M259.977 235.853H243.567V209.243H259.977V235.853Z" fill="#3F3D56"/>
<path d="M344.08 222.556H438.988C448.451 222.556 456.149 214.874 456.149 205.431V143.478C456.149 134.035 448.451 126.353 438.988 126.353H344.08C334.617 126.353 326.919 134.035 326.919 143.478V205.431C326.919 214.874 334.617 222.556 344.08 222.556Z" fill="#FFC107"/>
<path d="M373.072 139.658H405.893V147.845H373.072V139.658Z" fill="#3F3D56"/>
<path d="M429.482 182.642V166.267H456.149V182.642H429.482Z" fill="#3F3D56"/>
<path d="M326.918 182.642V166.267H353.585V182.642H326.918Z" fill="#3F3D56"/>
<path d="M1113.95 399.648L1129.8 307.424C1136.84 266.444 1106.44 228.522 1064.83 226.372L838.959 214.698L785.053 126.044C777.906 114.291 765.129 107.114 751.352 107.114H589.059C576.302 107.114 565.523 116.553 563.867 129.175L559.746 200.113L155.13 201.322L104.231 368.704L151.476 366.405L149.054 417.176L210.836 419.593L231.432 361.483C235.31 350.541 252.303 338.203 269.967 327.881C309.565 304.74 360.438 312.167 390.405 346.846C397.474 355.027 402.416 363.551 403.797 371.544L413.144 425.637L866.216 418.384L925.595 335.5C943.138 316.45 1025.95 309.453 1033.41 335.5L1078.21 401.461L1113.95 399.648Z" fill="#D1D1D1"/>
<path d="M621.512 161.059L608.183 223.765L777.782 227.391L741.962 150.649C738.712 143.687 731.579 139.365 723.89 139.698L642.62 143.224C632.331 143.671 623.649 151.006 621.512 161.059Z" fill="white"/>
<path d="M800.798 222.556L766.879 135.521L775.759 126.659L831.084 210.468L819.843 227.391L800.798 222.556Z" fill="white"/>
<path d="M315.018 505.419C270.861 505.419 235.064 469.7 235.064 425.637C235.064 381.575 270.861 345.855 315.018 345.855C359.176 345.855 394.972 381.575 394.972 425.637C394.972 469.7 359.176 505.419 315.018 505.419Z" fill="#3F3D56"/>
<path d="M370.138 425.637C370.138 395.309 345.412 370.636 315.018 370.636C284.625 370.636 259.899 395.309 259.899 425.637C259.899 455.965 284.625 480.639 315.018 480.639C345.412 480.639 370.138 455.965 370.138 425.637ZM368.927 425.637C368.927 455.298 344.744 479.43 315.018 479.43C285.293 479.43 261.11 455.298 261.11 425.637C261.11 395.976 285.293 371.845 315.018 371.845C344.744 371.845 368.927 395.976 368.927 425.637Z" fill="white"/>
<path d="M362.264 425.637C362.264 451.674 341.111 472.781 315.018 472.781C288.925 472.781 267.773 451.674 267.773 425.637C267.773 399.6 288.925 378.493 315.018 378.493C341.111 378.493 362.264 399.6 362.264 425.637ZM284.307 414.348L292.678 419.792L295.894 414.868L284.307 414.348ZM297.051 442.035L294.822 436.595L287.802 445.809L297.051 442.035ZM318.486 460.693L312.595 450.723V460.693H318.486ZM318.486 402.97L312.595 392.999V402.97H318.486ZM344.657 445.809L337.638 436.595L335.408 442.035L344.657 445.809ZM348.152 414.348L336.565 414.868L339.781 419.792L348.152 414.348Z" fill="#E6E6E6"/>
<path d="M986.146 505.419C941.989 505.419 906.192 469.7 906.192 425.637C906.192 381.575 941.989 345.855 986.146 345.855C1030.3 345.855 1066.1 381.575 1066.1 425.637C1066.1 469.7 1030.3 505.419 986.146 505.419Z" fill="#3F3D56"/>
<path d="M1041.27 425.637C1041.27 395.309 1016.54 370.636 986.146 370.636C955.753 370.636 931.027 395.309 931.027 425.637C931.027 455.965 955.753 480.639 986.146 480.639C1016.54 480.639 1041.27 455.965 1041.27 425.637ZM1040.05 425.637C1040.05 455.298 1015.87 479.43 986.146 479.43C956.421 479.43 932.238 455.298 932.238 425.637C932.238 395.976 956.421 371.845 986.146 371.845C1015.87 371.845 1040.05 395.976 1040.05 425.637Z" fill="white"/>
<path d="M1033.39 425.637C1033.39 451.674 1012.24 472.781 986.146 472.781C960.053 472.781 938.901 451.674 938.901 425.637C938.901 399.6 960.053 378.493 986.146 378.493C1012.24 378.493 1033.39 399.6 1033.39 425.637ZM955.435 414.348L963.806 419.792L967.022 414.868L955.435 414.348ZM968.179 442.035L965.95 436.595L958.93 445.809L968.179 442.035ZM989.613 460.693L983.723 450.723V460.693H989.613ZM989.613 402.97L983.723 392.999V402.97H989.613ZM1015.78 445.809L1008.77 436.595L1006.54 442.035L1015.78 445.809ZM1019.28 414.348L1007.69 414.868L1010.91 419.792L1019.28 414.348Z" fill="#E6E6E6"/>
<path d="M652.399 255.798H606.365V246.128H652.399V255.798Z" fill="#3F3D56"/>
<path d="M606.659 496.784L589.839 496.783L581.837 432.044L606.662 432.045L606.659 496.784Z" fill="#FFB6B6"/>
<path d="M549.031 496.404C548.507 497.284 548.231 500.124 548.231 501.148C548.231 504.294 550.786 506.845 553.939 506.845L606.03 506.845C608.18 506.845 609.924 505.105 609.924 502.958V500.794C609.924 500.794 612.501 494.29 607.196 486.274C607.196 486.274 600.602 492.551 590.749 482.719L587.844 477.467L566.812 492.816L555.154 494.247C552.604 494.561 550.342 494.199 549.031 496.404Z" fill="#2F2E41"/>
<path d="M682.23 496.784L665.41 496.783L657.408 432.044L682.233 432.045L682.23 496.784Z" fill="#FFB6B6"/>
<path d="M624.602 496.404C624.078 497.284 623.802 500.124 623.802 501.148C623.802 504.294 626.358 506.845 629.511 506.845L681.601 506.845C683.752 506.845 685.495 505.105 685.495 502.958V500.794C685.495 500.794 688.072 494.29 682.767 486.274C682.767 486.274 676.173 492.551 666.32 482.719L663.415 477.467L642.383 492.816L630.726 494.247C628.175 494.561 625.914 494.199 624.602 496.404Z" fill="#2F2E41"/>
<path d="M609.322 54.7299L606.129 84.4688L643.383 81.2825L636.996 53.6678L609.322 54.7299Z" fill="#FFB6B6"/>
<path opacity="0.1" d="M609.322 54.7299L606.129 84.4688L643.383 81.2825L636.996 53.6678L609.322 54.7299Z" fill="black"/>
<path d="M622.627 58.4473C609.107 58.4473 598.146 47.5104 598.146 34.019C598.146 20.5275 609.107 9.59061 622.627 9.59061C636.148 9.59061 647.108 20.5275 647.108 34.019C647.108 47.5104 636.148 58.4473 622.627 58.4473Z" fill="#FFB6B6"/>
<path d="M606.661 72.2546L565.682 96.1519L579.109 160.94L569.94 248.033L576.326 461.515L615.709 457.267L621.031 275.647L651.898 463.639H690.141L683.83 260.778L664.671 174.747L676.379 81.2825L640.722 70.1304L606.661 72.2546Z" fill="#2F2E41"/>
<path d="M605.065 40.9226C605.065 40.9226 602.936 33.4879 598.146 34.0189C593.356 34.55 592.292 30.3016 593.356 28.1774C594.421 26.0532 596.549 15.4322 596.549 15.4322C596.549 15.4322 595.485 7.99743 601.871 6.93534C608.258 5.87323 610.387 4.81113 611.451 2.68693C612.515 0.562721 628.481 -1.56148 633.803 1.62483C639.125 4.81113 643.383 10.9245 647.108 12.6473C650.833 14.3701 654.027 17.5564 651.898 22.8669C649.769 28.1774 646.682 38.5636 646.682 38.5636C646.682 38.5636 641.254 36.6742 640.189 39.8605C639.125 43.0468 643.383 38.7984 638.061 30.3016C632.739 21.8048 632.739 13.308 624.224 16.4943C615.708 19.6806 606.129 18.6185 607.193 24.9911C608.258 31.3637 605.065 40.9226 605.065 40.9226Z" fill="#2F2E41"/>
<path d="M586.814 228.98C591.938 234.393 593.292 241.418 589.839 244.671C586.386 247.924 579.435 246.172 574.31 240.757C572.234 238.622 570.7 236.021 569.837 233.173L548.419 209.964L559.548 200.167L579.48 224.087C582.282 225.11 584.796 226.788 586.814 228.98Z" fill="#FFB6B6"/>
<path d="M566.114 95.6209L530.047 156.936L524.703 184.928L559.435 228.915L574.128 210.254L556.763 184.928L584.815 135.609L566.114 95.6209Z" fill="#2F2E41"/>
<path d="M667.52 223.27V150.977C667.52 139.958 658.536 130.994 647.494 130.994H536.746C525.704 130.994 516.721 139.958 516.721 150.977V223.27C516.721 234.289 525.704 243.253 536.746 243.253H647.494C658.536 243.253 667.52 234.289 667.52 223.27Z" fill="#FFC107"/>
<path d="M613.663 176.623H575.365V167.069H613.663V176.623Z" fill="#3F3D56"/>
<path d="M578.503 242.613V223.505H609.62V242.613H578.503Z" fill="#3F3D56"/>
<path d="M577.042 150.742V131.634H608.16V150.742H577.042Z" fill="#3F3D56"/>
<path d="M656.311 215.172C651.188 220.585 649.834 227.611 653.287 230.864C656.74 234.117 663.691 232.365 668.815 226.95C670.892 224.814 672.426 222.214 673.289 219.366L694.707 196.157L683.578 186.36L663.646 210.28C660.844 211.303 658.329 212.981 656.311 215.172Z" fill="#FFB6B6"/>
<path d="M677.012 81.8135L713.079 143.129L718.422 171.12L683.691 215.107L668.997 196.446L686.363 171.12L658.311 121.802L677.012 81.8135Z" fill="#2F2E41"/>
<path d="M1125.48 374.183C1107.42 374.183 1092.77 361.464 1092.77 345.775C1092.77 330.087 1107.42 317.368 1125.48 317.368C1143.54 317.368 1158.19 330.087 1158.19 345.775C1158.19 361.464 1143.54 374.183 1125.48 374.183Z" fill="#E6E6E6"/>
</svg>
