<svg width="100%" height="100%"  viewBox="0 0 1080 900" fill="none" xmlns="http://www.w3.org/2000/svg">
<g clip-path="url(#clip0_44_215)">
<path d="M445.009 211.784H440.105V77.6394C440.105 67.4436 438.094 57.3477 434.187 47.928C430.28 38.5084 424.553 29.9495 417.333 22.74C410.113 15.5305 401.542 9.81161 392.109 5.90988C382.676 2.00815 372.566 -3.18977e-05 362.356 3.80009e-10H77.7495C67.5393 -3.18977e-05 57.4291 2.00815 47.9961 5.90988C38.563 9.81161 29.992 15.5305 22.7723 22.74C15.5526 29.9495 9.82557 38.5084 5.91829 47.928C2.01102 57.3477 -1.59716e-05 67.4436 0 77.6394V813.567C-9.58292e-06 823.763 2.01103 833.859 5.91831 843.279C9.82559 852.698 15.5526 861.257 22.7723 868.467C29.992 875.676 38.5631 881.395 47.9961 885.297C57.4291 889.199 67.5393 891.207 77.7495 891.207H362.356C372.566 891.207 382.676 889.199 392.109 885.297C401.542 881.395 410.113 875.676 417.333 868.467C424.553 861.257 430.28 852.698 434.187 843.279C438.094 833.859 440.105 823.763 440.105 813.567V307.271H445.009V211.784Z" fill="#E6E6E6"/>
<path d="M365.493 20.1991H328.342C330.051 24.3818 330.703 28.9198 330.241 33.4134C329.78 37.907 328.219 42.2184 325.695 45.9676C323.172 49.7168 319.764 52.7888 315.772 54.913C311.78 57.0373 307.326 58.1485 302.802 58.1488H139.755C135.231 58.1485 130.777 57.0373 126.785 54.913C122.793 52.7888 119.385 49.7168 116.862 45.9676C114.338 42.2184 112.777 37.907 112.316 33.4134C111.854 28.9198 112.506 24.3818 114.215 20.1991H79.516C71.8912 20.1991 64.341 21.6988 57.2965 24.6125C50.2521 27.5263 43.8513 31.7971 38.4597 37.181C33.0681 42.565 28.7913 48.9567 25.8734 55.9911C22.9555 63.0256 21.4536 70.5651 21.4536 78.1792V813.028C21.4536 820.642 22.9555 828.181 25.8734 835.216C28.7913 842.25 33.0681 848.642 38.4597 854.026C43.8513 859.41 50.252 863.681 57.2965 866.594C64.3409 869.508 71.8911 871.008 79.516 871.008H365.493C373.118 871.008 380.668 869.508 387.712 866.594C394.757 863.681 401.158 859.41 406.549 854.026C411.941 848.642 416.218 842.25 419.136 835.216C422.053 828.181 423.555 820.642 423.555 813.028V78.1792C423.555 70.5651 422.053 63.0256 419.136 55.9911C416.218 48.9567 411.941 42.565 406.549 37.181C401.158 31.7971 394.757 27.5263 387.712 24.6125C380.668 21.6988 373.118 20.1991 365.493 20.1991Z" fill="white"/>
<path d="M138.25 169.586H121.175C120.575 169.586 119.999 169.824 119.575 170.248C119.15 170.672 118.912 171.247 118.912 171.846V179.33C118.912 179.93 119.15 180.505 119.575 180.929C119.999 181.353 120.575 181.591 121.175 181.591H124.005V192.805H135.421V181.591H138.25C138.851 181.591 139.426 181.353 139.851 180.929C140.275 180.505 140.514 179.93 140.514 179.33V171.846C140.514 171.247 140.275 170.672 139.851 170.248C139.426 169.824 138.851 169.586 138.25 169.586Z" fill="#E6E6E6"/>
<path d="M155.352 238.08C144.895 222.8 139.549 204.607 140.081 186.107C140.09 185.68 139.951 185.263 139.688 184.927C139.424 184.591 139.053 184.356 138.635 184.262V181.028H120.602V184.217H120.354C119.863 184.218 119.393 184.413 119.046 184.76C118.699 185.107 118.505 185.577 118.506 186.067C118.506 186.112 118.507 186.157 118.511 186.202C119.931 205.978 115.134 223.712 104.119 239.406C103.485 240.308 103.161 241.391 103.196 242.492L105.168 303.4C105.215 304.759 105.786 306.047 106.762 306.995C107.737 307.943 109.041 308.479 110.403 308.489H151.191C152.568 308.478 153.886 307.931 154.865 306.963C155.843 305.996 156.404 304.685 156.429 303.311L157.189 244.173C157.212 242.003 156.571 239.877 155.352 238.08Z" fill="#E6E6E6"/>
<path d="M148.895 258.312H113.392C112.867 258.312 112.347 258.425 111.87 258.644C111.392 258.863 110.968 259.183 110.626 259.581C110.283 259.98 110.032 260.447 109.887 260.952C109.743 261.456 109.71 261.986 109.789 262.505L115.155 297.328H145.961L152.478 262.622C152.577 262.097 152.558 261.556 152.424 261.038C152.289 260.52 152.042 260.038 151.7 259.627C151.358 259.215 150.93 258.884 150.445 258.657C149.96 258.429 149.431 258.312 148.895 258.312Z" fill="white"/>
<path d="M328.326 352.045H311.251C310.651 352.045 310.075 352.283 309.65 352.707C309.226 353.131 308.987 353.706 308.987 354.306V361.79C308.987 362.389 309.226 362.964 309.65 363.388C310.075 363.812 310.651 364.05 311.251 364.05H314.081V375.264H325.496V364.05H328.326C328.926 364.05 329.502 363.812 329.927 363.388C330.351 362.964 330.59 362.389 330.59 361.79V354.306C330.59 353.706 330.351 353.131 329.927 352.707C329.502 352.283 328.926 352.045 328.326 352.045Z" fill="#E6E6E6"/>
<path d="M345.428 420.539C334.971 405.259 329.625 387.066 330.156 368.566C330.166 368.139 330.027 367.722 329.764 367.386C329.5 367.05 329.128 366.815 328.711 366.721V363.487H310.678V366.676H310.429C310.186 366.677 309.946 366.725 309.721 366.818C309.497 366.911 309.293 367.047 309.122 367.219C308.95 367.391 308.814 367.595 308.721 367.819C308.629 368.043 308.581 368.284 308.581 368.526C308.581 368.571 308.583 368.616 308.586 368.661C310.007 388.437 305.21 406.172 294.194 421.865C293.561 422.767 293.237 423.85 293.272 424.951L295.243 485.86C295.291 487.218 295.862 488.506 296.837 489.454C297.813 490.402 299.117 490.938 300.478 490.949H341.267C342.644 490.937 343.962 490.39 344.94 489.423C345.919 488.455 346.48 487.145 346.505 485.77L347.265 426.633C347.287 424.462 346.647 422.336 345.428 420.539Z" fill="#E6E6E6"/>
<path d="M338.971 440.771H303.468C302.942 440.771 302.423 440.884 301.945 441.103C301.468 441.323 301.044 441.642 300.701 442.041C300.359 442.439 300.107 442.906 299.963 443.411C299.819 443.916 299.785 444.445 299.865 444.964L305.23 479.788H336.037L342.554 445.081C342.652 444.556 342.634 444.015 342.499 443.497C342.365 442.979 342.118 442.498 341.776 442.086C341.434 441.675 341.005 441.343 340.52 441.116C340.036 440.889 339.507 440.771 338.971 440.771Z" fill="white"/>
<path d="M114.245 609.989H106.146C105.861 609.989 105.588 610.102 105.387 610.303C105.185 610.504 105.072 610.777 105.072 611.061V614.611C105.072 614.895 105.185 615.168 105.387 615.369C105.588 615.57 105.861 615.683 106.146 615.683H107.488V621.002H112.903V615.683H114.245C114.53 615.683 114.803 615.57 115.005 615.369C115.206 615.168 115.319 614.895 115.319 614.611V611.061C115.319 610.777 115.206 610.504 115.005 610.303C114.803 610.102 114.53 609.989 114.245 609.989Z" fill="#E6E6E6"/>
<path d="M122.358 642.479C117.397 635.231 114.861 626.601 115.113 617.826C115.118 617.623 115.052 617.425 114.927 617.266C114.802 617.106 114.626 616.995 114.428 616.95V615.417H105.874V616.929H105.756C105.641 616.929 105.527 616.952 105.42 616.996C105.314 617.04 105.217 617.105 105.136 617.187C105.054 617.268 104.99 617.365 104.946 617.471C104.902 617.578 104.879 617.692 104.88 617.807C104.88 617.828 104.88 617.849 104.882 617.871C105.671 626.825 103.252 635.768 98.0552 643.108C97.7545 643.536 97.6009 644.049 97.6174 644.572L98.5527 673.463C98.5752 674.108 98.846 674.719 99.3087 675.168C99.7714 675.618 100.39 675.872 101.036 675.877H120.384C121.037 675.872 121.662 675.612 122.126 675.153C122.59 674.694 122.857 674.073 122.868 673.421L123.229 645.369C123.24 644.34 122.936 643.331 122.358 642.479Z" fill="#E6E6E6"/>
<path d="M119.573 653.099H101.112V662.316H119.573V653.099Z" fill="white"/>
<path d="M151.948 609.989H143.849C143.564 609.989 143.291 610.102 143.089 610.303C142.888 610.504 142.775 610.777 142.775 611.061V614.611C142.775 614.895 142.888 615.168 143.089 615.369C143.291 615.57 143.564 615.683 143.849 615.683H145.191V621.002H150.606V615.683H151.948C152.233 615.683 152.506 615.57 152.707 615.369C152.909 615.168 153.022 614.895 153.022 614.611V611.061C153.022 610.777 152.909 610.504 152.707 610.303C152.506 610.102 152.233 609.989 151.948 609.989Z" fill="#E6E6E6"/>
<path d="M160.06 642.479C155.1 635.231 152.564 626.601 152.816 617.826C152.821 617.623 152.755 617.425 152.63 617.266C152.505 617.106 152.329 616.995 152.131 616.95V615.417H143.577V616.929H143.459C143.343 616.929 143.229 616.952 143.123 616.996C143.017 617.04 142.92 617.105 142.838 617.187C142.757 617.268 142.692 617.365 142.649 617.471C142.605 617.578 142.582 617.692 142.582 617.807C142.582 617.828 142.583 617.849 142.585 617.871C143.374 626.825 140.955 635.768 135.758 643.108C135.457 643.536 135.304 644.049 135.32 644.572L136.255 673.463C136.278 674.108 136.549 674.719 137.011 675.168C137.474 675.618 138.093 675.872 138.739 675.877H158.086C158.739 675.872 159.365 675.612 159.829 675.153C160.293 674.694 160.559 674.073 160.571 673.421L160.932 645.369C160.942 644.34 160.638 643.331 160.06 642.479Z" fill="#E6E6E6"/>
<path d="M157.276 653.099H138.815V662.316H157.276V653.099Z" fill="white"/>
<path d="M189.651 609.989H181.551C181.267 609.989 180.993 610.102 180.792 610.303C180.591 610.504 180.478 610.777 180.478 611.061V614.611C180.478 614.895 180.591 615.168 180.792 615.369C180.993 615.57 181.267 615.683 181.551 615.683H182.894V621.002H188.309V615.683H189.651C189.936 615.683 190.209 615.57 190.41 615.369C190.611 615.168 190.725 614.895 190.725 614.611V611.061C190.725 610.777 190.611 610.504 190.41 610.303C190.209 610.102 189.936 609.989 189.651 609.989Z" fill="#E6E6E6"/>
<path d="M197.763 642.479C192.803 635.231 190.267 626.601 190.519 617.826C190.523 617.623 190.457 617.425 190.332 617.266C190.208 617.106 190.031 616.995 189.833 616.95V615.417H181.279V616.929H181.161C181.046 616.929 180.932 616.952 180.826 616.996C180.719 617.04 180.622 617.105 180.541 617.187C180.46 617.268 180.395 617.365 180.351 617.471C180.307 617.578 180.285 617.692 180.285 617.807C180.285 617.828 180.286 617.849 180.287 617.871C181.077 626.825 178.658 635.768 173.46 643.108C173.16 643.536 173.006 644.049 173.023 644.572L173.958 673.463C173.98 674.108 174.251 674.719 174.714 675.168C175.177 675.618 175.795 675.872 176.441 675.877H195.789C196.442 675.872 197.067 675.612 197.531 675.153C197.996 674.694 198.262 674.073 198.274 673.421L198.634 645.369C198.645 644.34 198.341 643.331 197.763 642.479Z" fill="#E6E6E6"/>
<path d="M194.979 653.099H176.518V662.316H194.979V653.099Z" fill="white"/>
<path d="M298.663 539.402H281.588C281.291 539.402 280.996 539.461 280.722 539.575C280.447 539.688 280.198 539.855 279.987 540.065C279.777 540.274 279.61 540.524 279.497 540.798C279.383 541.072 279.324 541.366 279.324 541.663V549.147C279.324 549.747 279.563 550.322 279.987 550.746C280.412 551.17 280.988 551.408 281.588 551.408H284.418V562.621H295.833V551.408H298.663C299.263 551.408 299.839 551.17 300.264 550.746C300.688 550.322 300.927 549.747 300.927 549.147V541.663C300.927 541.366 300.868 541.072 300.754 540.798C300.64 540.524 300.474 540.274 300.264 540.065C300.053 539.855 299.804 539.688 299.529 539.575C299.254 539.461 298.96 539.402 298.663 539.402Z" fill="#E6E6E6"/>
<path d="M315.765 607.896C305.308 592.616 299.962 574.423 300.494 555.924C300.503 555.497 300.364 555.08 300.101 554.744C299.838 554.407 299.466 554.172 299.048 554.079V550.845H281.015V554.034H280.767C280.524 554.034 280.283 554.082 280.059 554.175C279.834 554.269 279.631 554.405 279.459 554.577C279.287 554.749 279.151 554.952 279.059 555.177C278.966 555.401 278.918 555.641 278.919 555.884C278.919 555.929 278.921 555.974 278.924 556.019C280.345 575.794 275.547 593.529 264.532 609.223C263.898 610.124 263.574 611.207 263.609 612.309L265.581 673.217C265.628 674.576 266.199 675.864 267.175 676.812C268.15 677.76 269.455 678.295 270.816 678.306H311.604C312.981 678.295 314.299 677.747 315.278 676.78C316.256 675.813 316.818 674.502 316.842 673.127L317.602 613.99C317.625 611.82 316.984 609.694 315.765 607.896Z" fill="#E6E6E6"/>
<path d="M309.308 628.128H273.805C273.28 628.128 272.76 628.242 272.283 628.461C271.805 628.68 271.381 629 271.039 629.398C270.697 629.796 270.445 630.264 270.3 630.768C270.156 631.273 270.123 631.803 270.203 632.322L275.568 667.145H306.374L312.891 632.439C312.99 631.913 312.971 631.372 312.837 630.855C312.702 630.337 312.455 629.855 312.113 629.444C311.771 629.032 311.343 628.701 310.858 628.473C310.373 628.246 309.844 628.128 309.308 628.128Z" fill="white"/>
<path d="M307.984 316.331H206.202C213.318 277.912 211.681 231.52 206.202 181.629H307.984C302.651 231.52 301.058 277.912 307.984 316.331Z" fill="#E6E6E6"/>
<path d="M257.707 269.797C271.252 269.797 282.232 258.832 282.232 245.306C282.232 231.78 271.252 220.815 257.707 220.815C244.161 220.815 233.181 231.78 233.181 245.306C233.181 258.832 244.161 269.797 257.707 269.797Z" fill="white"/>
<path d="M214.786 495.116H113.004C120.12 456.698 118.483 410.306 113.004 360.415H214.786C209.453 410.306 207.859 456.698 214.786 495.116Z" fill="#E6E6E6"/>
<path d="M164.508 448.583C178.054 448.583 189.034 437.618 189.034 424.092C189.034 410.566 178.054 399.6 164.508 399.6C150.963 399.6 139.982 410.566 139.982 424.092C139.982 437.618 150.963 448.583 164.508 448.583Z" fill="white"/>
<path d="M365.62 324.902H263.838C270.954 286.484 269.317 240.092 263.838 190.201H365.62C360.287 240.092 358.693 286.484 365.62 324.902Z" fill="#E6E6E6"/>
<path d="M315.342 278.369C328.888 278.369 339.868 267.404 339.868 253.878C339.868 240.352 328.888 229.387 315.342 229.387C301.797 229.387 290.816 240.352 290.816 253.878C290.816 267.404 301.797 278.369 315.342 278.369Z" fill="white"/>
<path d="M365.62 318.78H263.838C270.954 280.361 269.317 233.969 263.838 184.078H365.62C360.287 233.969 358.693 280.361 365.62 318.78Z" fill="#E6E6E6"/>
<path d="M315.342 272.246C328.888 272.246 339.868 261.281 339.868 247.755C339.868 234.229 328.888 223.264 315.342 223.264C301.797 223.264 290.816 234.229 290.816 247.755C290.816 261.281 301.797 272.246 315.342 272.246Z" fill="white"/>
<path d="M365.62 324.902H263.838C270.954 286.484 269.317 240.092 263.838 190.201H365.62C360.287 240.092 358.693 286.484 365.62 324.902Z" fill="#E6E6E6"/>
<path d="M315.342 278.369C328.888 278.369 339.868 267.404 339.868 253.878C339.868 240.352 328.888 229.387 315.342 229.387C301.797 229.387 290.816 240.352 290.816 253.878C290.816 267.404 301.797 278.369 315.342 278.369Z" fill="white"/>
<path d="M388.92 308.983H55.3682V345.72H388.92V308.983Z" fill="#E6E6E6"/>
<path d="M388.92 491.442H55.3682V528.179H388.92V491.442Z" fill="#E6E6E6"/>
<path d="M388.92 673.902H55.3682V710.638H388.92V673.902Z" fill="#E6E6E6"/>
<path d="M969.147 822.941L886.05 764.25C914.076 736.987 939.566 698.168 963.943 654.276L1047.04 712.967C1013.84 750.624 985.709 787.581 969.147 822.941Z" fill="#FFC107"/>
<path d="M969.17 760.454C982.716 760.454 993.696 749.489 993.696 735.963C993.696 722.437 982.716 711.472 969.17 711.472C955.625 711.472 944.645 722.437 944.645 735.963C944.645 749.489 955.625 760.454 969.17 760.454Z" fill="white"/>
<path d="M568.292 555.12H559.17C558.85 555.12 558.542 555.247 558.315 555.473C558.088 555.7 557.961 556.007 557.961 556.327V560.325C557.961 560.484 557.992 560.641 558.053 560.787C558.114 560.934 558.203 561.067 558.315 561.179C558.427 561.291 558.561 561.38 558.707 561.441C558.854 561.502 559.011 561.533 559.17 561.533H560.682V567.523H566.78V561.533H568.292C568.613 561.533 568.92 561.406 569.147 561.179C569.374 560.953 569.501 560.646 569.501 560.325V556.327C569.501 556.007 569.374 555.7 569.147 555.473C568.92 555.247 568.613 555.12 568.292 555.12Z" fill="#E6E6E6"/>
<path d="M577.428 591.71C571.842 583.547 568.986 573.828 569.27 563.945C569.275 563.717 569.201 563.495 569.06 563.315C568.92 563.135 568.721 563.01 568.498 562.96V561.232H558.864V562.936H558.732C558.602 562.936 558.473 562.962 558.354 563.011C558.234 563.061 558.125 563.134 558.033 563.226C557.941 563.318 557.869 563.426 557.819 563.546C557.77 563.666 557.744 563.794 557.745 563.924C557.745 563.948 557.745 563.972 557.747 563.996C558.636 574.08 555.912 584.153 550.059 592.418C549.72 592.9 549.547 593.479 549.566 594.067L550.619 626.605C550.644 627.331 550.95 628.019 551.471 628.525C551.992 629.032 552.689 629.318 553.416 629.324H575.206C575.941 629.318 576.645 629.025 577.168 628.508C577.691 627.992 577.991 627.292 578.004 626.557L578.41 594.965C578.422 593.806 578.08 592.67 577.428 591.71Z" fill="#FFC107"/>
<path opacity="0.2" d="M566.391 556.422C566.391 557.113 566.116 557.776 565.626 558.264C565.137 558.753 564.473 559.028 563.781 559.028C563.089 559.028 562.426 558.753 561.937 558.264C561.447 557.776 561.172 557.113 561.172 556.422" fill="black"/>
<path d="M573.184 597.979H554.79V610.225H573.184V597.979Z" fill="white"/>
<path d="M856.949 682.233H839.874C839.274 682.233 838.698 682.471 838.273 682.895C837.849 683.319 837.61 683.894 837.61 684.494V691.978C837.61 692.577 837.849 693.152 838.273 693.576C838.698 694 839.274 694.238 839.874 694.238H842.704V705.452H854.119V694.238H856.949C857.549 694.238 858.125 694 858.55 693.576C858.974 693.152 859.213 692.577 859.213 691.978V684.494C859.213 683.894 858.974 683.319 858.55 682.895C858.125 682.471 857.549 682.233 856.949 682.233Z" fill="#E6E6E6"/>
<path d="M874.051 750.727C863.594 735.447 858.248 717.254 858.779 698.754C858.789 698.327 858.65 697.91 858.387 697.574C858.123 697.238 857.751 697.003 857.334 696.909V693.676H839.301V696.864H839.052C838.809 696.865 838.569 696.913 838.344 697.006C838.12 697.099 837.916 697.236 837.745 697.407C837.573 697.579 837.437 697.783 837.344 698.007C837.252 698.232 837.204 698.472 837.204 698.715C837.204 698.759 837.206 698.804 837.209 698.849C838.63 718.625 833.833 736.36 822.817 752.053C822.184 752.955 821.86 754.038 821.895 755.139L823.866 816.048C823.914 817.406 824.485 818.694 825.46 819.642C826.436 820.59 827.74 821.126 829.101 821.137H869.89C871.267 821.125 872.585 820.578 873.563 819.611C874.542 818.643 875.103 817.333 875.128 815.958L875.888 756.821C875.91 754.65 875.27 752.524 874.051 750.727Z" fill="#FFC107"/>
<path opacity="0.2" d="M853.389 684.672C853.389 685.965 852.875 687.206 851.959 688.12C851.043 689.035 849.8 689.549 848.505 689.549C847.21 689.549 845.968 689.035 845.052 688.12C844.136 687.206 843.621 685.965 843.621 684.672" fill="black"/>
<path d="M867.594 770.959H832.091C831.565 770.959 831.046 771.072 830.568 771.291C830.091 771.511 829.667 771.83 829.324 772.229C828.982 772.627 828.73 773.094 828.586 773.599C828.442 774.104 828.408 774.633 828.488 775.152L833.853 809.976H864.66L871.177 775.269C871.275 774.744 871.257 774.203 871.122 773.685C870.988 773.167 870.741 772.686 870.399 772.274C870.057 771.863 869.628 771.531 869.143 771.304C868.659 771.077 868.13 770.959 867.594 770.959Z" fill="white"/>
<path d="M808.232 822.845H706.449C713.565 784.426 711.928 738.035 706.449 688.144H808.232C802.898 738.035 801.305 784.427 808.232 822.845Z" fill="#FFC107"/>
<path d="M757.954 776.312C771.499 776.312 782.479 765.347 782.479 751.821C782.479 738.294 771.499 727.329 757.954 727.329C744.408 727.329 733.428 738.294 733.428 751.821C733.428 765.347 744.408 776.312 757.954 776.312Z" fill="white"/>
<path d="M391.917 398.921L414.766 396.846L429.307 361.584L403.342 347.064L391.917 398.921Z" fill="#FFB8B8"/>
<path d="M601.614 495.726C602.374 493.833 602.672 491.788 602.485 489.758C602.298 487.728 601.63 485.772 600.537 484.05C599.444 482.328 597.957 480.89 596.199 479.855C594.44 478.82 592.46 478.217 590.423 478.095L554.946 475.983L549.722 493.328L586.244 503.344C589.295 504.181 592.549 503.867 595.384 502.462C598.219 501.057 600.436 498.659 601.614 495.726Z" fill="#FFB8B8"/>
<path d="M563.52 503.635L563.13 471.087L484.328 458.531L423.62 389.004C420.461 385.387 416.097 383.035 411.335 382.385C406.573 381.735 401.737 382.83 397.721 385.468C395.29 387.065 393.24 389.176 391.716 391.651C390.192 394.127 389.231 396.906 388.9 399.793C388.57 402.68 388.879 405.604 389.805 408.359C390.731 411.114 392.252 413.632 394.26 415.736L444.343 477.283L563.52 503.635Z" fill="#575A89"/>
<path d="M374.261 869.781H395.033L446.556 637.165L499.932 709.025L531.09 864.596H550.824L546.67 697.616L477.083 519.229H408.535C389.802 553.082 375.108 587.979 391.917 623.98L374.261 869.781Z" fill="#2F2E41"/>
<path d="M518.357 883.91C518.127 884.644 518.057 885.418 518.15 886.182C518.243 886.945 518.498 887.68 518.898 888.337C519.298 888.994 519.834 889.558 520.469 889.992C521.105 890.427 521.826 890.721 522.584 890.855L573.413 899.863C575.422 900.23 577.495 899.85 579.243 898.796C580.991 897.741 582.292 896.085 582.901 894.139C583.493 892.279 583.41 890.27 582.667 888.465C581.924 886.661 580.567 885.175 578.836 884.27C567.66 878.54 558.041 870.189 550.804 859.934C545.218 865.128 538.974 864.64 532.343 860.811L525.31 861.689L518.357 883.91Z" fill="#2F2E41"/>
<path d="M364.643 883.91C364.414 884.644 364.343 885.418 364.437 886.182C364.53 886.945 364.785 887.68 365.185 888.337C365.585 888.994 366.12 889.558 366.756 889.992C367.391 890.427 368.112 890.721 368.87 890.855L419.7 899.863C421.708 900.23 423.782 899.85 425.53 898.796C427.277 897.741 428.578 896.085 429.187 894.139C429.78 892.279 429.697 890.27 428.954 888.465C428.21 886.661 426.854 885.175 425.123 884.27C413.946 878.54 404.328 870.189 397.091 859.934C391.504 865.128 385.26 864.64 378.63 860.811L371.597 861.689L364.643 883.91Z" fill="#2F2E41"/>
<path d="M429.826 374.548C445.887 374.548 458.907 361.547 458.907 345.508C458.907 329.47 445.887 316.469 429.826 316.469C413.765 316.469 400.745 329.47 400.745 345.508C400.745 361.547 413.765 374.548 429.826 374.548Z" fill="#FFB8B8"/>
<path d="M403.861 527.007L479.679 524.933L457.413 454.954C471.25 432.803 457.324 410.674 437.616 388.55L422.037 378.178L397.11 376.104C386.318 387.636 380.413 402.89 380.631 418.673C381.125 452.468 387.117 489.257 403.861 527.007Z" fill="#575A89"/>
<path d="M578.057 574.111C579.501 572.67 580.581 570.907 581.209 568.967C581.836 567.027 581.993 564.966 581.667 562.954C581.34 560.942 580.539 559.036 579.33 557.393C578.121 555.75 576.539 554.418 574.713 553.506L542.929 537.627L531.293 551.522L560.925 575.077C563.401 577.046 566.516 578.035 569.675 577.857C572.835 577.679 575.819 576.345 578.057 574.111Z" fill="#FFB8B8"/>
<path d="M539.919 566.419L552.382 536.342L484.88 493.842L456.457 406.073C454.978 401.506 451.892 397.63 447.77 395.161C443.648 392.693 438.77 391.8 434.039 392.648C431.175 393.161 428.459 394.296 426.082 395.973C423.706 397.65 421.727 399.828 420.286 402.353C418.845 404.877 417.977 407.687 417.743 410.583C417.51 413.48 417.916 416.392 418.933 419.115L440.732 495.375L539.919 566.419Z" fill="#575A89"/>
<path d="M382.05 334.1C382.05 345.399 389.399 362.898 398.668 370.4C404.905 375.447 413.147 375.234 416.324 368.325C419.584 361.238 430.821 344.579 450.598 334.1C476.963 320.13 441.249 296.23 416.324 299.874C397.595 302.613 382.05 315.198 382.05 334.1Z" fill="#2F2E41"/>
<path d="M399.707 318.543C411.179 318.543 420.479 309.256 420.479 297.8C420.479 286.344 411.179 277.057 399.707 277.057C388.235 277.057 378.935 286.344 378.935 297.8C378.935 309.256 388.235 318.543 399.707 318.543Z" fill="#2F2E41"/>
<path d="M423.595 290.54C423.593 285.311 421.611 280.275 418.048 276.443C414.485 272.611 409.603 270.265 404.38 269.876C404.896 269.838 405.412 269.797 405.938 269.797C411.447 269.797 416.731 271.983 420.626 275.873C424.522 279.763 426.71 285.039 426.71 290.54C426.71 296.041 424.522 301.317 420.626 305.207C416.731 309.097 411.447 311.283 405.938 311.283C405.412 311.283 404.896 311.243 404.38 311.204C409.603 310.815 414.485 308.469 418.048 304.637C421.611 300.805 423.593 295.77 423.595 290.54Z" fill="#2F2E41"/>
<path d="M430.346 355.88C432.927 355.88 435.019 353.094 435.019 349.657C435.019 346.22 432.927 343.434 430.346 343.434C427.764 343.434 425.672 346.22 425.672 349.657C425.672 353.094 427.764 355.88 430.346 355.88Z" fill="#FFB8B8"/>
<path d="M1018.89 831.741H695.528L627.054 508.502H568.616V493.999H638.827L707.301 817.237H1018.89V831.741Z" fill="#3F3D56"/>
<path d="M742.915 890.794C760.104 890.794 774.039 876.879 774.039 859.713C774.039 842.548 760.104 828.633 742.915 828.633C725.725 828.633 711.79 842.548 711.79 859.713C711.79 876.879 725.725 890.794 742.915 890.794Z" fill="#3F3D56"/>
<path d="M975.312 890.794C992.502 890.794 1006.44 876.879 1006.44 859.713C1006.44 842.548 992.502 828.633 975.312 828.633C958.123 828.633 944.188 842.548 944.188 859.713C944.188 876.879 958.123 890.794 975.312 890.794Z" fill="#3F3D56"/>
<path d="M1012.99 824.911H698.382L642.872 550.979H1065.08C1067.24 550.979 1069.37 551.446 1071.32 552.346C1073.28 553.246 1075.02 554.559 1076.42 556.194C1077.82 557.829 1078.85 559.747 1079.43 561.817C1080.02 563.887 1080.15 566.059 1079.82 568.185L1027.72 812.329C1027.19 815.841 1025.4 819.044 1022.7 821.354C1019.99 823.663 1016.55 824.926 1012.99 824.911ZM701.798 820.767H1012.99C1015.56 820.778 1018.05 819.866 1020 818.199C1021.95 816.532 1023.24 814.221 1023.62 811.685L1075.72 567.541C1075.96 566.007 1075.86 564.439 1075.44 562.945C1075.02 561.451 1074.28 560.066 1073.26 558.886C1072.25 557.706 1071 556.758 1069.59 556.109C1068.17 555.459 1066.64 555.123 1065.08 555.123H647.91L701.798 820.767Z" fill="#3F3D56"/>
<path d="M759.543 824.034L723.19 553.389L727.284 552.713L763.636 823.359L759.543 824.034Z" fill="#3F3D56"/>
<path d="M961.676 821.956L957.579 821.293L992.87 552.719L996.967 553.383L961.676 821.956Z" fill="#3F3D56"/>
<path d="M865.371 553.051H861.221V823.696H865.371V553.051Z" fill="#3F3D56"/>
<path d="M664.071 625.573L664.061 629.717L1065.77 630.688L1065.78 626.544L664.071 625.573Z" fill="#3F3D56"/>
<path d="M1037.43 753.588L684.522 755.997L684.551 760.141L1037.46 757.732L1037.43 753.588Z" fill="#3F3D56"/>
<path d="M574.842 511.61C587.448 511.61 597.667 506.044 597.667 499.178C597.667 492.312 587.448 486.746 574.842 486.746C562.236 486.746 552.017 492.312 552.017 499.178C552.017 506.044 562.236 511.61 574.842 511.61Z" fill="#3F3D56"/>
</g>
<defs>
<clipPath id="clip0_44_215">
<rect width="1080" height="900" fill="white"/>
</clipPath>
</defs>
</svg>
