<svg width="645" height="1132" viewBox="0 0 645 1132" fill="none" xmlns="http://www.w3.org/2000/svg">
<g filter="url(#filter0_d_42_2)">
<path d="M0 861.963C0 861.963 285.266 919.93 370.645 815.448C473.084 690.089 208.927 401.462 370.645 276.084C510.82 167.407 0 178.304 0 178.304V861.963Z" fill="white" fill-opacity="0.01" shape-rendering="crispEdges"/>
</g>
<g clip-path="url(#clip0_42_2)">
<path d="M209.753 588.124H208.037V541.174C208.037 537.605 207.333 534.072 205.965 530.775C204.598 527.478 202.593 524.482 200.066 521.959C197.54 519.436 194.54 517.434 191.238 516.068C187.937 514.703 184.398 514 180.824 514H81.2123C77.6388 514 74.1002 514.703 70.7986 516.068C67.4971 517.434 64.4972 519.436 61.9703 521.959C59.4434 524.482 57.4389 527.478 56.0714 530.775C54.7039 534.072 54 537.605 54 541.174V798.749C54 802.317 54.7039 805.851 56.0714 809.148C57.439 812.444 59.4434 815.44 61.9703 817.963C64.4972 820.487 67.4971 822.488 70.7986 823.854C74.1002 825.22 77.6388 825.922 81.2123 825.922H180.824C184.398 825.922 187.937 825.22 191.238 823.854C194.54 822.488 197.54 820.487 200.066 817.963C202.593 815.44 204.598 812.444 205.965 809.148C207.333 805.851 208.037 802.317 208.037 798.749V621.545H209.753V588.124Z" fill="#E6E6E6"/>
<path d="M181.923 521.07H168.92C169.518 522.534 169.746 524.122 169.584 525.695C169.423 527.267 168.877 528.776 167.993 530.089C167.11 531.401 165.918 532.476 164.52 533.22C163.123 533.963 161.564 534.352 159.981 534.352H102.914C101.331 534.352 99.772 533.963 98.3747 533.22C96.9775 532.476 95.7847 531.401 94.9016 530.089C94.0185 528.776 93.4721 527.267 93.3105 525.695C93.1489 524.122 93.3772 522.534 93.9752 521.07H81.8306C79.1619 521.07 76.5194 521.595 74.0538 522.614C71.5882 523.634 69.348 525.129 67.4609 527.013C65.5739 528.898 64.077 531.135 63.0557 533.597C62.0344 536.059 61.5088 538.698 61.5088 541.363V798.56C61.5088 801.225 62.0344 803.863 63.0557 806.326C64.077 808.788 65.5739 811.025 67.4609 812.909C69.348 814.793 71.5882 816.288 74.0538 817.308C76.5194 818.328 79.1619 818.853 81.8306 818.853H181.923C184.591 818.853 187.234 818.328 189.699 817.308C192.165 816.288 194.405 814.793 196.292 812.909C198.179 811.025 199.676 808.788 200.697 806.326C201.719 803.863 202.244 801.225 202.244 798.56V541.363C202.244 538.698 201.719 536.059 200.697 533.597C199.676 531.135 198.179 528.898 196.292 527.013C194.405 525.129 192.165 523.634 189.699 522.614C187.234 521.595 184.591 521.07 181.923 521.07Z" fill="white"/>
<path d="M102.388 573.355H96.4115C96.2013 573.355 95.9998 573.438 95.8512 573.587C95.7026 573.735 95.6191 573.936 95.6191 574.146V576.766C95.6191 576.975 95.7026 577.177 95.8512 577.325C95.9998 577.473 96.2013 577.557 96.4115 577.557H97.4018V581.482H101.397V577.557H102.388C102.598 577.557 102.799 577.473 102.948 577.325C103.096 577.177 103.18 576.975 103.18 576.766V574.146C103.18 573.936 103.096 573.735 102.948 573.587C102.799 573.438 102.598 573.355 102.388 573.355Z" fill="#E6E6E6"/>
<path d="M108.373 597.328C104.713 591.98 102.842 585.612 103.028 579.137C103.032 578.988 102.983 578.842 102.891 578.724C102.799 578.607 102.668 578.524 102.522 578.492V577.36H96.2107V578.476H96.1238C95.952 578.476 95.7874 578.545 95.6661 578.666C95.5448 578.787 95.4768 578.952 95.477 579.124C95.477 579.139 95.4776 579.155 95.4788 579.171C95.976 586.092 94.2969 592.299 90.4416 597.792C90.2197 598.108 90.1064 598.487 90.1186 598.872L90.8087 620.19C90.8253 620.666 91.0252 621.116 91.3666 621.448C91.708 621.78 92.1645 621.968 92.641 621.971H106.917C107.399 621.967 107.86 621.776 108.203 621.437C108.545 621.099 108.742 620.64 108.75 620.159L109.016 599.461C109.024 598.701 108.8 597.957 108.373 597.328Z" fill="#E6E6E6"/>
<path d="M106.114 604.409H93.6874C93.5034 604.409 93.3217 604.449 93.1546 604.525C92.9874 604.602 92.8389 604.714 92.7191 604.853C92.5994 604.993 92.5112 605.156 92.4607 605.333C92.4102 605.51 92.3985 605.695 92.4265 605.877L94.3042 618.065H105.087L107.367 605.918C107.402 605.734 107.395 605.544 107.348 605.363C107.301 605.182 107.215 605.013 107.095 604.869C106.976 604.725 106.825 604.609 106.656 604.53C106.486 604.45 106.301 604.409 106.114 604.409Z" fill="white"/>
<path d="M168.914 637.216H162.938C162.728 637.216 162.526 637.299 162.378 637.447C162.229 637.596 162.146 637.797 162.146 638.007V640.626C162.146 640.836 162.229 641.037 162.378 641.186C162.526 641.334 162.728 641.418 162.938 641.418H163.928V645.342H167.924V641.418H168.914C169.124 641.418 169.326 641.334 169.474 641.186C169.623 641.037 169.706 640.836 169.706 640.626V638.007C169.706 637.797 169.623 637.596 169.474 637.447C169.326 637.299 169.124 637.216 168.914 637.216Z" fill="#E6E6E6"/>
<path d="M174.9 661.189C171.24 655.841 169.369 649.473 169.555 642.998C169.558 642.849 169.509 642.703 169.417 642.585C169.325 642.467 169.195 642.385 169.049 642.352V641.221H162.737V642.337H162.65C162.565 642.337 162.481 642.354 162.402 642.386C162.324 642.419 162.253 642.467 162.192 642.527C162.132 642.587 162.085 642.658 162.052 642.737C162.02 642.815 162.003 642.899 162.003 642.984C162.003 643 162.004 643.016 162.005 643.031C162.502 649.953 160.823 656.16 156.968 661.653C156.746 661.968 156.633 662.347 156.645 662.733L157.335 684.051C157.352 684.526 157.552 684.977 157.893 685.309C158.234 685.641 158.691 685.828 159.167 685.832H173.443C173.925 685.828 174.386 685.636 174.729 685.298C175.071 684.959 175.268 684.501 175.277 684.019L175.543 663.321C175.55 662.562 175.326 661.818 174.9 661.189Z" fill="#E6E6E6"/>
<path d="M172.64 668.27H160.214C160.03 668.27 159.848 668.31 159.681 668.386C159.514 668.463 159.365 668.575 159.245 668.714C159.126 668.854 159.038 669.017 158.987 669.194C158.937 669.37 158.925 669.556 158.953 669.737L160.831 681.926H171.613L173.894 669.779C173.928 669.595 173.922 669.405 173.875 669.224C173.828 669.043 173.741 668.874 173.622 668.73C173.502 668.586 173.352 668.47 173.182 668.391C173.012 668.311 172.827 668.27 172.64 668.27Z" fill="white"/>
<path d="M93.9858 727.496H91.151C91.0513 727.496 90.9557 727.536 90.8852 727.606C90.8147 727.676 90.7751 727.772 90.7751 727.871V729.114C90.7751 729.213 90.8147 729.309 90.8852 729.379C90.9557 729.45 91.0513 729.489 91.151 729.489H91.6207V731.351H93.516V729.489H93.9858C94.0854 729.489 94.181 729.45 94.2515 729.379C94.322 729.309 94.3616 729.213 94.3616 729.114V727.871C94.3616 727.772 94.322 727.676 94.2515 727.606C94.181 727.536 94.0854 727.496 93.9858 727.496Z" fill="#E6E6E6"/>
<path d="M96.8252 738.867C95.0891 736.331 94.2016 733.31 94.2898 730.239C94.2914 730.168 94.2684 730.099 94.2246 730.043C94.1809 729.987 94.1191 729.948 94.0499 729.933V729.396H91.056V729.925H91.0147C90.9744 729.925 90.9345 729.933 90.8972 729.949C90.8599 729.964 90.8261 729.987 90.7976 730.015C90.7691 730.044 90.7465 730.078 90.7312 730.115C90.7158 730.152 90.7079 730.192 90.7079 730.232C90.7079 730.24 90.7082 730.247 90.7088 730.255C90.9851 733.389 90.1384 736.519 88.3194 739.088C88.2142 739.237 88.1604 739.417 88.1662 739.6L88.4935 749.712C88.5014 749.938 88.5962 750.151 88.7581 750.309C88.9201 750.466 89.1367 750.555 89.3627 750.557H96.1344C96.363 750.555 96.5818 750.464 96.7443 750.304C96.9067 750.143 96.9999 749.925 97.0041 749.697L97.1302 739.879C97.134 739.519 97.0276 739.166 96.8252 738.867Z" fill="#E6E6E6"/>
<path d="M95.8505 742.585H89.3892V745.811H95.8505V742.585Z" fill="white"/>
<path d="M107.182 727.496H104.347C104.247 727.496 104.152 727.536 104.081 727.606C104.011 727.676 103.971 727.772 103.971 727.871V729.114C103.971 729.213 104.011 729.309 104.081 729.379C104.152 729.45 104.247 729.489 104.347 729.489H104.817V731.351H106.712V729.489H107.182C107.281 729.489 107.377 729.45 107.448 729.379C107.518 729.309 107.558 729.213 107.558 729.114V727.871C107.558 727.772 107.518 727.676 107.448 727.606C107.377 727.536 107.281 727.496 107.182 727.496Z" fill="#E6E6E6"/>
<path d="M110.021 738.867C108.285 736.331 107.397 733.31 107.486 730.239C107.487 730.168 107.464 730.099 107.42 730.043C107.377 729.987 107.315 729.948 107.246 729.933V729.396H104.252V729.925H104.211C104.17 729.925 104.13 729.933 104.093 729.949C104.056 729.964 104.022 729.987 103.993 730.015C103.965 730.044 103.942 730.078 103.927 730.115C103.912 730.152 103.904 730.192 103.904 730.232C103.904 730.24 103.904 730.247 103.905 730.255C104.181 733.389 103.334 736.519 101.515 739.088C101.41 739.237 101.356 739.417 101.362 739.6L101.689 749.712C101.697 749.938 101.792 750.151 101.954 750.309C102.116 750.466 102.332 750.555 102.558 750.557H109.33C109.559 750.555 109.778 750.464 109.94 750.304C110.102 750.143 110.196 749.925 110.2 749.697L110.326 739.879C110.33 739.519 110.223 739.166 110.021 738.867Z" fill="#E6E6E6"/>
<path d="M109.047 742.585H102.585V745.811H109.047V742.585Z" fill="white"/>
<path d="M120.378 727.496H117.543C117.443 727.496 117.348 727.536 117.277 727.606C117.207 727.676 117.167 727.772 117.167 727.871V729.114C117.167 729.213 117.207 729.309 117.277 729.379C117.348 729.45 117.443 729.489 117.543 729.489H118.013V731.351H119.908V729.489H120.378C120.478 729.489 120.573 729.45 120.644 729.379C120.714 729.309 120.754 729.213 120.754 729.114V727.871C120.754 727.772 120.714 727.676 120.644 727.606C120.573 727.536 120.478 727.496 120.378 727.496Z" fill="#E6E6E6"/>
<path d="M123.217 738.867C121.481 736.331 120.593 733.31 120.682 730.239C120.683 730.168 120.66 730.099 120.616 730.043C120.573 729.987 120.511 729.948 120.442 729.933V729.396H117.448V729.925H117.407C117.366 729.925 117.326 729.933 117.289 729.949C117.252 729.964 117.218 729.987 117.189 730.015C117.161 730.044 117.138 730.078 117.123 730.115C117.108 730.152 117.1 730.192 117.1 730.232C117.1 730.24 117.1 730.247 117.101 730.255C117.377 733.389 116.53 736.519 114.711 739.088C114.606 739.237 114.552 739.417 114.558 739.6L114.885 749.712C114.893 749.938 114.988 750.151 115.15 750.309C115.312 750.466 115.529 750.555 115.755 750.557H122.526C122.755 750.555 122.974 750.464 123.136 750.304C123.299 750.143 123.392 749.925 123.396 749.697L123.522 739.879C123.526 739.519 123.419 739.166 123.217 738.867Z" fill="#E6E6E6"/>
<path d="M122.243 742.585H115.781V745.811H122.243V742.585Z" fill="white"/>
<path d="M158.532 702.791H152.556C152.452 702.791 152.349 702.811 152.253 702.851C152.156 702.891 152.069 702.949 151.996 703.023C151.922 703.096 151.864 703.183 151.824 703.279C151.784 703.375 151.763 703.478 151.763 703.582V706.201C151.763 706.411 151.847 706.613 151.996 706.761C152.144 706.909 152.346 706.993 152.556 706.993H153.546V710.917H157.542V706.993H158.532C158.742 706.993 158.944 706.909 159.092 706.761C159.241 706.613 159.324 706.411 159.324 706.201V703.582C159.324 703.478 159.304 703.375 159.264 703.279C159.224 703.183 159.166 703.096 159.092 703.023C159.019 702.949 158.931 702.891 158.835 702.851C158.739 702.811 158.636 702.791 158.532 702.791Z" fill="#E6E6E6"/>
<path d="M164.518 726.764C160.858 721.416 158.987 715.048 159.173 708.573C159.176 708.424 159.127 708.278 159.035 708.16C158.943 708.043 158.813 707.96 158.667 707.928V706.796H152.355V707.912H152.268C152.183 707.912 152.099 707.929 152.021 707.961C151.942 707.994 151.871 708.042 151.811 708.102C151.751 708.162 151.703 708.233 151.67 708.312C151.638 708.39 151.621 708.474 151.622 708.559C151.622 708.575 151.622 708.591 151.623 708.606C152.121 715.528 150.441 721.735 146.586 727.228C146.364 727.544 146.251 727.923 146.263 728.308L146.953 749.626C146.97 750.101 147.17 750.552 147.511 750.884C147.852 751.216 148.309 751.403 148.785 751.407H163.061C163.543 751.403 164.005 751.212 164.347 750.873C164.69 750.534 164.886 750.076 164.895 749.595L165.161 728.897C165.169 728.137 164.944 727.393 164.518 726.764Z" fill="#E6E6E6"/>
<path d="M162.258 733.845H149.832C149.648 733.845 149.466 733.885 149.299 733.961C149.132 734.038 148.983 734.15 148.863 734.289C148.744 734.429 148.655 734.592 148.605 734.769C148.554 734.946 148.543 735.131 148.571 735.313L150.449 747.501H161.231L163.512 735.354C163.546 735.17 163.54 734.98 163.493 734.799C163.446 734.618 163.359 734.449 163.24 734.305C163.12 734.161 162.97 734.045 162.8 733.966C162.63 733.886 162.445 733.845 162.258 733.845Z" fill="white"/>
<path d="M161.794 624.716H126.171C128.661 611.269 128.088 595.032 126.171 577.57H161.794C159.928 595.032 159.37 611.269 161.794 624.716Z" fill="#E6E6E6"/>
<path d="M144.197 608.429C148.938 608.429 152.781 604.591 152.781 599.857C152.781 595.123 148.938 591.285 144.197 591.285C139.456 591.285 135.613 595.123 135.613 599.857C135.613 604.591 139.456 608.429 144.197 608.429Z" fill="white"/>
<path d="M129.175 687.291H93.5513C96.0419 673.844 95.4689 657.607 93.5513 640.145H129.175C127.308 657.607 126.751 673.844 129.175 687.291Z" fill="#E6E6E6"/>
<path d="M111.578 671.004C116.319 671.004 120.162 667.166 120.162 662.432C120.162 657.698 116.319 653.86 111.578 653.86C106.837 653.86 102.994 657.698 102.994 662.432C102.994 667.166 106.837 671.004 111.578 671.004Z" fill="white"/>
<path d="M181.967 627.716H146.343C148.834 614.269 148.261 598.032 146.343 580.57H181.967C180.1 598.032 179.543 614.269 181.967 627.716Z" fill="#E6E6E6"/>
<path d="M164.37 611.429C169.111 611.429 172.954 607.591 172.954 602.857C172.954 598.123 169.111 594.285 164.37 594.285C159.629 594.285 155.786 598.123 155.786 602.857C155.786 607.591 159.629 611.429 164.37 611.429Z" fill="white"/>
<path d="M181.967 625.573H146.343C148.834 612.126 148.261 595.889 146.343 578.427H181.967C180.1 595.889 179.543 612.126 181.967 625.573Z" fill="#E6E6E6"/>
<path d="M164.37 609.286C169.111 609.286 172.954 605.448 172.954 600.714C172.954 595.98 169.111 592.142 164.37 592.142C159.629 592.142 155.786 595.98 155.786 600.714C155.786 605.448 159.629 609.286 164.37 609.286Z" fill="white"/>
<path d="M181.967 627.716H146.343C148.834 614.269 148.261 598.032 146.343 580.57H181.967C180.1 598.032 179.543 614.269 181.967 627.716Z" fill="#E6E6E6"/>
<path d="M164.37 611.429C169.111 611.429 172.954 607.591 172.954 602.857C172.954 598.123 169.111 594.285 164.37 594.285C159.629 594.285 155.786 598.123 155.786 602.857C155.786 607.591 159.629 611.429 164.37 611.429Z" fill="white"/>
<path d="M190.122 622.144H73.3789V635.002H190.122V622.144Z" fill="#E6E6E6"/>
<path d="M190.122 686.005H73.3789V698.863H190.122V686.005Z" fill="#E6E6E6"/>
<path d="M190.122 749.866H73.3789V762.723H190.122V749.866Z" fill="#E6E6E6"/>
<path d="M393.202 802.029L364.117 781.487C373.927 771.945 382.848 758.359 391.38 742.997L420.464 763.538C408.843 776.719 398.998 789.653 393.202 802.029Z" fill="#FFC107"/>
<path d="M393.21 780.159C397.95 780.159 401.794 776.321 401.794 771.587C401.794 766.853 397.95 763.015 393.21 763.015C388.469 763.015 384.625 766.853 384.625 771.587C384.625 776.321 388.469 780.159 393.21 780.159Z" fill="white"/>
<path d="M252.902 708.292H249.71C249.597 708.292 249.49 708.336 249.41 708.416C249.331 708.495 249.286 708.602 249.286 708.714V710.114C249.286 710.169 249.297 710.224 249.319 710.276C249.34 710.327 249.371 710.373 249.41 710.413C249.45 710.452 249.496 710.483 249.548 710.504C249.599 710.526 249.654 710.536 249.71 710.536H250.239V712.633H252.373V710.536H252.902C253.014 710.536 253.122 710.492 253.201 710.413C253.281 710.333 253.325 710.226 253.325 710.114V708.714C253.325 708.602 253.281 708.495 253.201 708.416C253.122 708.336 253.014 708.292 252.902 708.292Z" fill="#E6E6E6"/>
<path d="M256.1 721.098C254.145 718.241 253.145 714.84 253.244 711.381C253.246 711.301 253.22 711.223 253.171 711.16C253.122 711.097 253.052 711.053 252.974 711.036V710.431H249.602V711.028H249.556C249.511 711.028 249.466 711.037 249.424 711.054C249.382 711.071 249.344 711.097 249.311 711.129C249.279 711.161 249.254 711.199 249.237 711.241C249.219 711.283 249.21 711.328 249.21 711.373C249.21 711.382 249.211 711.39 249.211 711.399C249.523 714.928 248.569 718.453 246.52 721.346C246.402 721.515 246.341 721.718 246.348 721.923L246.717 733.312C246.725 733.566 246.832 733.807 247.015 733.984C247.197 734.161 247.441 734.261 247.695 734.263H255.322C255.579 734.261 255.826 734.159 256.009 733.978C256.192 733.797 256.297 733.552 256.301 733.295L256.443 722.238C256.447 721.832 256.328 721.435 256.1 721.098Z" fill="#FFC107"/>
<path opacity="0.2" d="M252.237 708.748C252.237 708.99 252.141 709.222 251.969 709.393C251.798 709.564 251.566 709.66 251.324 709.66C251.081 709.66 250.849 709.564 250.678 709.393C250.507 709.222 250.41 708.99 250.41 708.748" fill="black"/>
<path d="M254.615 723.293H248.177V727.579H254.615V723.293Z" fill="white"/>
<path d="M353.932 752.782H347.956C347.746 752.782 347.544 752.865 347.396 753.013C347.247 753.162 347.164 753.363 347.164 753.573V756.192C347.164 756.402 347.247 756.603 347.396 756.752C347.544 756.9 347.746 756.983 347.956 756.983H348.946V760.908H352.942V756.983H353.932C354.142 756.983 354.344 756.9 354.492 756.752C354.641 756.603 354.724 756.402 354.724 756.192V753.573C354.724 753.363 354.641 753.162 354.492 753.013C354.344 752.865 354.142 752.782 353.932 752.782Z" fill="#E6E6E6"/>
<path d="M359.918 776.754C356.258 771.406 354.387 765.039 354.573 758.564C354.576 758.415 354.528 758.269 354.435 758.151C354.343 758.033 354.213 757.951 354.067 757.918V756.786H347.755V757.903H347.668C347.583 757.903 347.499 757.919 347.421 757.952C347.342 757.985 347.271 758.032 347.211 758.093C347.151 758.153 347.103 758.224 347.071 758.303C347.038 758.381 347.022 758.465 347.022 758.55C347.022 758.566 347.022 758.581 347.023 758.597C347.521 765.519 345.842 771.726 341.986 777.219C341.764 777.534 341.651 777.913 341.663 778.299L342.353 799.617C342.37 800.092 342.57 800.543 342.911 800.875C343.253 801.207 343.709 801.394 344.186 801.398H358.462C358.943 801.394 359.405 801.202 359.747 800.864C360.09 800.525 360.286 800.066 360.295 799.585L360.561 778.887C360.569 778.128 360.345 777.384 359.918 776.754Z" fill="#FFC107"/>
<path opacity="0.2" d="M352.686 753.635C352.686 754.088 352.506 754.522 352.186 754.842C351.865 755.162 351.43 755.342 350.977 755.342C350.524 755.342 350.089 755.162 349.768 754.842C349.448 754.522 349.268 754.088 349.268 753.635" fill="black"/>
<path d="M357.658 783.836H345.232C345.048 783.836 344.866 783.875 344.699 783.952C344.532 784.029 344.383 784.141 344.264 784.28C344.144 784.419 344.056 784.583 344.005 784.76C343.955 784.936 343.943 785.122 343.971 785.303L345.849 797.491H356.631L358.912 785.344C358.946 785.16 358.94 784.971 358.893 784.79C358.846 784.609 358.759 784.44 358.64 784.296C358.52 784.152 358.37 784.036 358.2 783.956C358.031 783.877 357.845 783.836 357.658 783.836Z" fill="white"/>
<path d="M336.881 801.996H301.257C303.748 788.549 303.175 772.312 301.257 754.85H336.881C335.015 772.312 334.457 788.549 336.881 801.996Z" fill="#FFC107"/>
<path d="M319.284 785.709C324.025 785.709 327.868 781.871 327.868 777.137C327.868 772.403 324.025 768.565 319.284 768.565C314.543 768.565 310.7 772.403 310.7 777.137C310.7 781.871 314.543 785.709 319.284 785.709Z" fill="white"/>
<path d="M191.171 653.622L199.168 652.896L204.257 640.555L195.17 635.472L191.171 653.622Z" fill="#FFB8B8"/>
<path d="M264.565 687.504C264.831 686.842 264.935 686.126 264.87 685.415C264.804 684.705 264.571 684.02 264.188 683.417C263.806 682.815 263.285 682.312 262.67 681.949C262.054 681.587 261.361 681.376 260.648 681.333L248.231 680.594L246.403 686.665L259.185 690.17C260.253 690.463 261.392 690.353 262.384 689.862C263.377 689.37 264.153 688.531 264.565 687.504Z" fill="#FFB8B8"/>
<path d="M251.232 690.272L251.095 678.881L223.515 674.486L202.267 650.152C201.161 648.885 199.634 648.062 197.967 647.835C196.3 647.607 194.608 647.991 193.202 648.914C192.351 649.473 191.634 650.212 191.1 651.078C190.567 651.944 190.231 652.917 190.115 653.928C189.999 654.938 190.108 655.962 190.432 656.926C190.756 657.89 191.288 658.771 191.991 659.507L209.52 681.049L251.232 690.272Z" fill="#575A89"/>
<path d="M184.991 818.423H192.261L210.294 737.008L228.976 762.159L239.882 816.608H246.788L245.334 758.166L220.979 695.73H196.987C190.431 707.579 185.288 719.793 191.171 732.393L184.991 818.423Z" fill="#2F2E41"/>
<path d="M235.425 823.369C235.344 823.626 235.32 823.897 235.352 824.164C235.385 824.431 235.474 824.688 235.614 824.918C235.754 825.148 235.942 825.345 236.164 825.497C236.387 825.649 236.639 825.752 236.904 825.799L254.695 828.952C255.398 829.08 256.123 828.948 256.735 828.579C257.347 828.209 257.802 827.63 258.015 826.949C258.223 826.298 258.194 825.595 257.933 824.963C257.673 824.331 257.198 823.811 256.592 823.495C252.681 821.489 249.314 818.566 246.781 814.977C244.826 816.795 242.641 816.624 240.32 815.284L237.859 815.591L235.425 823.369Z" fill="#2F2E41"/>
<path d="M181.625 823.369C181.545 823.626 181.52 823.897 181.553 824.164C181.585 824.431 181.675 824.688 181.815 824.918C181.955 825.148 182.142 825.345 182.364 825.497C182.587 825.649 182.839 825.752 183.104 825.799L200.895 828.952C201.598 829.08 202.324 828.948 202.935 828.579C203.547 828.209 204.002 827.63 204.215 826.949C204.423 826.298 204.394 825.595 204.134 824.963C203.873 824.331 203.399 823.811 202.793 823.495C198.881 821.489 195.514 818.566 192.982 814.977C191.026 816.795 188.841 816.624 186.52 815.284L184.059 815.591L181.625 823.369Z" fill="#2F2E41"/>
<path d="M204.439 645.092C210.06 645.092 214.617 640.541 214.617 634.928C214.617 629.315 210.06 624.764 204.439 624.764C198.818 624.764 194.261 629.315 194.261 634.928C194.261 640.541 198.818 645.092 204.439 645.092Z" fill="#FFB8B8"/>
<path d="M195.351 698.453L221.888 697.727L214.095 673.234C218.938 665.481 214.064 657.736 207.166 649.992L201.713 646.362L192.989 645.636C189.211 649.672 187.144 655.012 187.221 660.535C187.394 672.364 189.491 685.24 195.351 698.453Z" fill="#575A89"/>
<path d="M256.32 714.939C256.825 714.435 257.204 713.817 257.423 713.138C257.643 712.46 257.698 711.738 257.584 711.034C257.469 710.33 257.189 709.662 256.766 709.088C256.343 708.513 255.789 708.046 255.15 707.727L244.025 702.17L239.953 707.033L250.324 715.277C251.19 715.966 252.281 716.312 253.387 716.25C254.492 716.188 255.537 715.721 256.32 714.939Z" fill="#FFB8B8"/>
<path d="M242.972 712.247L247.334 701.72L223.708 686.845L213.76 656.125C213.242 654.527 212.162 653.17 210.719 652.306C209.277 651.442 207.57 651.13 205.914 651.427C204.911 651.606 203.961 652.004 203.129 652.591C202.297 653.178 201.605 653.94 201.1 654.823C200.596 655.707 200.292 656.69 200.21 657.704C200.128 658.718 200.271 659.737 200.627 660.69L208.256 687.381L242.972 712.247Z" fill="#575A89"/>
<path d="M187.718 630.935C187.718 634.89 190.29 641.014 193.534 643.64C195.717 645.406 198.601 645.332 199.713 642.914C200.854 640.433 204.787 634.603 211.709 630.935C220.937 626.046 208.437 617.681 199.713 618.956C193.158 619.915 187.718 624.319 187.718 630.935Z" fill="#2F2E41"/>
<path d="M193.897 625.49C197.912 625.49 201.167 622.24 201.167 618.23C201.167 614.22 197.912 610.97 193.897 610.97C189.882 610.97 186.627 614.22 186.627 618.23C186.627 622.24 189.882 625.49 193.897 625.49Z" fill="#2F2E41"/>
<path d="M202.258 615.689C202.257 613.859 201.564 612.096 200.317 610.755C199.07 609.414 197.361 608.593 195.533 608.457C195.714 608.443 195.894 608.429 196.078 608.429C198.007 608.429 199.856 609.194 201.219 610.555C202.583 611.917 203.349 613.764 203.349 615.689C203.349 617.615 202.583 619.461 201.219 620.823C199.856 622.184 198.007 622.949 196.078 622.949C195.894 622.949 195.714 622.935 195.533 622.922C197.361 622.785 199.07 621.964 200.317 620.623C201.564 619.282 202.257 617.519 202.258 615.689Z" fill="#2F2E41"/>
<path d="M204.621 638.558C205.524 638.558 206.257 637.583 206.257 636.38C206.257 635.177 205.524 634.202 204.621 634.202C203.717 634.202 202.985 635.177 202.985 636.38C202.985 637.583 203.717 638.558 204.621 638.558Z" fill="#FFB8B8"/>
<path d="M410.61 805.109H297.435L273.469 691.976H253.016V686.899H277.589L301.555 800.033H410.61V805.109Z" fill="#3F3D56"/>
<path d="M314.02 825.778C320.036 825.778 324.914 820.908 324.914 814.9C324.914 808.892 320.036 804.021 314.02 804.021C308.004 804.021 303.126 808.892 303.126 814.9C303.126 820.908 308.004 825.778 314.02 825.778Z" fill="#3F3D56"/>
<path d="M395.359 825.778C401.376 825.778 406.253 820.908 406.253 814.9C406.253 808.892 401.376 804.021 395.359 804.021C389.343 804.021 384.466 808.892 384.466 814.9C384.466 820.908 389.343 825.778 395.359 825.778Z" fill="#3F3D56"/>
<path d="M408.547 802.719H298.434L279.005 706.843H426.779C427.533 706.843 428.278 707.006 428.963 707.321C429.648 707.636 430.257 708.096 430.747 708.668C431.237 709.24 431.597 709.911 431.802 710.636C432.008 711.36 432.054 712.121 431.937 712.865L413.704 798.315C413.515 799.545 412.891 800.666 411.945 801.474C410.998 802.282 409.792 802.724 408.547 802.719ZM299.63 801.268H408.547C409.446 801.272 410.316 800.953 410.999 800.37C411.682 799.786 412.133 798.977 412.268 798.09L430.501 712.639C430.586 712.103 430.553 711.554 430.405 711.031C430.257 710.508 429.997 710.023 429.643 709.61C429.289 709.197 428.85 708.865 428.356 708.638C427.861 708.411 427.324 708.293 426.779 708.293H280.768L299.63 801.268Z" fill="#3F3D56"/>
<path d="M319.84 802.412L307.116 707.686L308.549 707.45L321.273 802.176L319.84 802.412Z" fill="#3F3D56"/>
<path d="M390.587 801.685L389.153 801.453L401.505 707.452L402.939 707.684L390.587 801.685Z" fill="#3F3D56"/>
<path d="M356.88 707.568H355.427V802.294H356.88V707.568Z" fill="#3F3D56"/>
<path d="M286.425 732.95L286.421 734.401L427.02 734.741L427.023 733.29L286.425 732.95Z" fill="#3F3D56"/>
<path d="M417.102 777.756L293.583 778.599L293.593 780.049L417.111 779.206L417.102 777.756Z" fill="#3F3D56"/>
<path d="M255.194 693.064C259.606 693.064 263.183 691.115 263.183 688.712C263.183 686.309 259.606 684.361 255.194 684.361C250.782 684.361 247.206 686.309 247.206 688.712C247.206 691.115 250.782 693.064 255.194 693.064Z" fill="#3F3D56"/>
</g>
<g clip-path="url(#clip1_42_2)">
<path d="M72.1086 407.09C70.7438 417.801 65.725 427.601 60.3709 437.041C60.1939 437.362 60.0117 437.679 59.8251 438H4.17801C3.05257 437.707 1.94164 437.386 0.835365 437.041C-5.44981 435.124 -11.3835 432.2 -16.7351 428.382C-37.2077 413.608 -45.0855 385.691 -41.5272 360.676C-39.3147 345.135 -32.505 329.267 -19.2446 320.896C-12.2431 316.469 -3.24969 315.03 4.81007 316.675C5.02099 316.714 5.23167 316.762 5.44704 316.805C12.3814 318.369 18.559 322.254 22.0742 328.514C28.3954 339.762 24.6314 353.697 21.5235 366.216C18.425 378.736 16.744 393.721 25.7377 402.955C22.7685 394.201 25.6993 383.758 32.7917 377.839C38.1505 373.373 45.6116 371.699 52.4166 373.085C53.0679 373.224 53.7097 373.383 54.3418 373.575C55.8695 374.023 57.3425 374.641 58.7332 375.417C69.3405 381.35 73.6363 395.016 72.1086 407.09Z" fill="#F2F2F2"/>
<path d="M39.1131 437.041C40.655 437.4 42.2018 437.717 43.7582 438H35.3442C34.2426 437.703 33.1459 437.386 32.0591 437.041C29.6693 436.292 27.3163 435.434 25.0001 434.465C15.7097 430.56 7.15188 424.699 0.677285 416.899C-2.48922 413.12 -5.07496 408.889 -6.99453 404.346C-9.07603 399.211 -10.3989 393.799 -10.9213 388.281C-12.0947 376.961 -10.8974 365.329 -8.66106 354.21C-6.35313 342.686 -2.62766 331.493 2.43011 320.887C3.0383 319.616 3.66724 318.353 4.31691 317.097C4.3616 316.994 4.42926 316.902 4.51472 316.829C4.60019 316.756 4.7012 316.703 4.81007 316.675C5.03113 316.632 5.26017 316.679 5.44703 316.805C5.6713 316.934 5.83759 317.144 5.91157 317.392C5.98554 317.64 5.96155 317.907 5.84455 318.138C0.629719 328.325 -3.32328 339.111 -5.92661 350.258C-8.47423 361.132 -9.92049 372.51 -9.42733 383.691C-8.95802 394.138 -6.23294 404.413 -0.050622 412.956C5.59549 420.756 13.3917 426.905 22.0167 431.093C27.4758 433.709 33.2104 435.704 39.1131 437.041Z" fill="white"/>
<path d="M57.5791 438H55.0983C54.8205 437.683 54.5523 437.362 54.289 437.041C48.6386 430.164 44.8107 421.971 43.1595 413.22C41.1542 402.299 42.7141 391.021 47.6084 381.058C48.9738 378.264 50.5828 375.596 52.4164 373.085C53.0677 373.224 53.7095 373.383 54.3416 373.575C49.5185 379.975 46.2744 387.428 44.8739 395.323C43.6246 402.722 44.04 410.306 46.0897 417.523C48.1394 424.741 51.7718 431.409 56.7218 437.041C56.9994 437.362 57.2868 437.683 57.5791 438Z" fill="white"/>
<path d="M289.756 437.747C289.349 437.842 288.941 437.925 288.53 438H290.751C291.042 437.922 291.331 437.838 291.618 437.747C292.249 437.549 292.87 437.323 293.481 437.067C295.96 436.059 298.162 434.469 299.9 432.431C300.736 431.434 301.418 430.317 301.925 429.118C302.474 427.763 302.823 426.335 302.961 424.878C303.213 421.868 303.012 418.837 302.365 415.886C301.756 412.845 300.772 409.891 299.438 407.092C299.277 406.756 299.111 406.423 298.94 406.092C298.928 406.064 298.91 406.04 298.887 406.021C298.865 406.002 298.838 405.988 298.809 405.98C298.751 405.969 298.691 405.981 298.641 406.014C298.582 406.048 298.538 406.104 298.519 406.169C298.499 406.235 298.505 406.305 298.536 406.366C299.913 409.055 300.956 411.901 301.643 414.843C302.351 417.729 302.661 420.697 302.567 423.667C302.516 426.429 301.656 429.115 300.092 431.39C298.572 433.44 296.572 435.084 294.268 436.177C292.828 436.867 291.314 437.394 289.756 437.747Z" fill="white"/>
<path d="M284.883 438H285.538C285.611 437.916 285.682 437.832 285.751 437.747C287.242 435.932 288.253 433.77 288.688 431.46C289.218 428.578 288.806 425.601 287.514 422.972C287.154 422.235 286.729 421.53 286.245 420.868C286.073 420.905 285.904 420.946 285.737 420.997C287.01 422.686 287.866 424.653 288.236 426.737C288.566 428.689 288.456 430.691 287.915 432.596C287.374 434.501 286.415 436.26 285.109 437.747C285.036 437.832 284.96 437.916 284.883 438Z" fill="white"/>
<path d="M148.674 364.935H102.709L102.222 350.78C102.201 350.166 102.313 349.555 102.55 348.989C102.787 348.423 103.144 347.915 103.596 347.5C104.048 347.085 104.584 346.774 105.168 346.586C105.752 346.399 106.369 346.341 106.978 346.415L133.726 349.696H133.729C137.695 349.707 141.494 351.291 144.295 354.103C147.097 356.914 148.671 360.723 148.674 364.695V364.935Z" fill="#FFC107"/>
<path d="M128.187 314.723H96.1292C95.7028 314.723 95.2806 314.807 94.8867 314.97C94.4928 315.134 94.1349 315.373 93.8334 315.675C93.5319 315.977 93.2928 316.336 93.1297 316.73C92.9666 317.125 92.8827 317.548 92.8828 317.975V350.085C92.8827 350.512 92.9666 350.935 93.1297 351.33C93.2928 351.724 93.5319 352.083 93.8334 352.385C94.1349 352.687 94.4928 352.926 94.8867 353.09C95.2806 353.253 95.7028 353.337 96.1292 353.337H128.187C128.613 353.337 129.036 353.253 129.43 353.09C129.824 352.926 130.181 352.687 130.483 352.385C130.784 352.083 131.024 351.724 131.187 351.33C131.35 350.935 131.434 350.512 131.434 350.085V317.975C131.434 317.548 131.35 317.125 131.187 316.73C131.024 316.336 130.784 315.977 130.483 315.675C130.181 315.373 129.824 315.134 129.43 314.97C129.036 314.807 128.613 314.723 128.187 314.723Z" fill="#CCCCCC"/>
<path d="M120.967 338.734L105.831 341.687C104.933 341.861 104.003 341.671 103.245 341.159C102.487 340.647 101.962 339.855 101.786 338.956L100.623 332.971C100.449 332.072 100.638 331.14 101.15 330.381C101.661 329.621 102.452 329.096 103.349 328.92L118.485 325.967C119.383 325.793 120.313 325.983 121.071 326.495C121.83 327.007 122.354 327.799 122.53 328.698L123.694 334.683C123.867 335.582 123.678 336.513 123.167 337.273C122.656 338.033 121.865 338.558 120.967 338.734Z" fill="#3F3D56"/>
<path d="M117.939 331.664L106.388 333.917C106.177 333.958 105.958 333.914 105.779 333.793C105.601 333.673 105.477 333.486 105.436 333.275C105.395 333.063 105.439 332.844 105.56 332.665C105.68 332.486 105.866 332.362 106.078 332.321L117.629 330.068C117.84 330.027 118.059 330.071 118.237 330.192C118.416 330.312 118.539 330.499 118.58 330.711C118.622 330.922 118.577 331.142 118.457 331.32C118.337 331.499 118.15 331.623 117.939 331.664Z" fill="white"/>
<path d="M115.694 335.001L109.719 336.166C109.508 336.207 109.289 336.163 109.11 336.042C108.932 335.922 108.808 335.735 108.767 335.523C108.726 335.312 108.77 335.093 108.891 334.914C109.011 334.735 109.197 334.611 109.409 334.57L115.383 333.405C115.488 333.384 115.596 333.385 115.7 333.406C115.804 333.427 115.904 333.469 115.992 333.529C116.081 333.588 116.156 333.665 116.215 333.754C116.274 333.843 116.315 333.943 116.335 334.047C116.356 334.152 116.355 334.26 116.334 334.364C116.313 334.469 116.271 334.569 116.212 334.657C116.152 334.746 116.076 334.821 115.987 334.88C115.898 334.939 115.798 334.98 115.694 335.001Z" fill="white"/>
<path d="M131.433 317.975V322.243H92.8828V317.975C92.8827 317.548 92.9666 317.125 93.1297 316.73C93.2928 316.336 93.5319 315.977 93.8334 315.675C94.1349 315.373 94.4928 315.134 94.8867 314.97C95.2806 314.807 95.7028 314.723 96.1292 314.723H128.187C128.613 314.723 129.036 314.807 129.43 314.97C129.824 315.134 130.181 315.373 130.483 315.675C130.784 315.977 131.023 316.336 131.187 316.73C131.35 317.125 131.434 317.548 131.433 317.975Z" fill="#B3B3B3"/>
<path d="M208.415 323.579C208.193 322.86 207.815 322.198 207.31 321.64C206.804 321.082 206.183 320.642 205.489 320.351C204.795 320.06 204.046 319.925 203.295 319.955C202.543 319.985 201.808 320.18 201.139 320.526L157.035 304.676L155.093 315.712L199.057 327.822C199.711 328.908 200.74 329.715 201.95 330.092C203.159 330.468 204.464 330.387 205.617 329.864C206.771 329.341 207.693 328.413 208.209 327.254C208.724 326.096 208.798 324.788 208.415 323.579Z" fill="#FFB8B8"/>
<path opacity="0.2" d="M208.415 323.579C208.193 322.86 207.815 322.198 207.31 321.64C206.804 321.082 206.183 320.642 205.489 320.351C204.795 320.06 204.046 319.925 203.295 319.955C202.543 319.985 201.808 320.18 201.139 320.526L157.035 304.676L155.093 315.712L199.057 327.822C199.711 328.908 200.74 329.715 201.95 330.092C203.159 330.468 204.464 330.387 205.617 329.864C206.771 329.341 207.693 328.413 208.209 327.254C208.724 326.096 208.798 324.788 208.415 323.579Z" fill="black"/>
<path d="M164.864 306.687L160.699 317.586C160.58 317.896 160.397 318.177 160.16 318.409C159.923 318.642 159.639 318.82 159.328 318.933C159.016 319.046 158.683 319.09 158.353 319.062C158.023 319.035 157.702 318.936 157.413 318.773L147.291 313.067C145.711 312.45 144.439 311.232 143.755 309.677C143.07 308.123 143.029 306.361 143.64 304.776C144.251 303.191 145.464 301.914 147.014 301.224C148.563 300.534 150.323 300.487 151.907 301.095L163.21 303.606C163.533 303.678 163.837 303.819 164.102 304.019C164.366 304.22 164.584 304.475 164.741 304.767C164.898 305.06 164.99 305.382 165.011 305.714C165.033 306.045 164.982 306.377 164.864 306.687Z" fill="#FFC107"/>
<path d="M211.887 333.67L196.084 340.865L198.159 348.689C202.165 363.798 203.229 379.539 201.29 395.05L212.845 397.467L222.423 373.004L219.07 345.183L211.887 333.67Z" fill="#FFC107"/>
<path d="M242.895 369.886C232.512 369.886 224.05 377.447 223.64 386.914H262.151C261.74 377.447 253.279 369.886 242.895 369.886Z" fill="#3F3D56"/>
<path d="M234.812 371.518C234.272 328.779 209.971 332.711 209.971 332.711C209.971 332.711 210.426 346.014 210.644 346.428C226.13 375.774 200.573 410.179 168.042 403.849C167.429 403.73 166.84 403.609 166.275 403.486C162.153 402.624 158.513 400.222 156.097 396.768C153.68 393.314 152.668 389.067 153.266 384.892C156.471 359.117 140.532 359.573 140.532 359.573H117.226L105.123 348.662C104.696 348.277 104.181 348.003 103.624 347.863C103.066 347.723 102.483 347.722 101.925 347.861C101.367 347.999 100.851 348.272 100.423 348.656C99.9947 349.04 99.6669 349.523 99.4682 350.063L97.9111 354.296C97.9111 354.296 74.9244 356.695 76.84 379.24H83.9466C83.9295 379.88 83.9551 380.521 84.0233 381.158L137.061 380.726C140.17 380.701 142.914 383.224 142.927 386.338C142.93 387.097 142.78 387.848 142.487 388.547C142.194 389.245 141.763 389.878 141.22 390.406C140.677 390.934 140.033 391.348 139.327 391.621C138.621 391.894 137.867 392.022 137.111 391.997L128.56 391.711C125.926 403.463 132.391 411.378 139.515 416.355C146.222 420.972 154.18 423.421 162.318 423.37H185.548C215.718 423.37 220.986 397.947 220.986 397.947C236.789 391.232 234.812 371.518 234.812 371.518Z" fill="#3F3D56"/>
<path d="M241.459 437.28C256.336 437.28 268.396 425.2 268.396 410.299C268.396 395.397 256.336 383.317 241.459 383.317C226.581 383.317 214.521 395.397 214.521 410.299C214.521 425.2 226.581 437.28 241.459 437.28Z" fill="#3F3D56"/>
<path d="M241.459 416.912C245.105 416.912 248.061 413.951 248.061 410.299C248.061 406.646 245.105 403.685 241.459 403.685C237.812 403.685 234.856 406.646 234.856 410.299C234.856 413.951 237.812 416.912 241.459 416.912Z" fill="white"/>
<path d="M105.454 437.28C122.579 437.28 136.462 423.375 136.462 406.221C136.462 389.068 122.579 375.162 105.454 375.162C88.3284 375.162 74.4456 389.068 74.4456 406.221C74.4456 423.375 88.3284 437.28 105.454 437.28Z" fill="#3F3D56"/>
<path d="M105.454 413.834C109.651 413.834 113.054 410.426 113.054 406.221C113.054 402.017 109.651 398.609 105.454 398.609C101.256 398.609 97.8538 402.017 97.8538 406.221C97.8538 410.426 101.256 413.834 105.454 413.834Z" fill="white"/>
<path d="M196.129 342.991L190.442 327.522C190.146 326.716 190.011 325.859 190.045 325.001C190.08 324.142 190.282 323.299 190.642 322.519C191.002 321.739 191.511 321.038 192.141 320.455C192.772 319.872 193.51 319.419 194.315 319.123L210.617 313.112C212.033 312.589 213.538 312.351 215.046 312.412C216.554 312.472 218.035 312.829 219.406 313.463C220.776 314.097 222.008 314.994 223.032 316.105C224.055 317.216 224.851 318.517 225.372 319.936C225.842 321.209 226.083 322.556 226.081 323.914C226.075 325.637 225.686 327.338 224.941 328.892C224.197 330.446 223.116 331.815 221.777 332.898C220.81 333.675 219.723 334.289 218.559 334.716L196.129 342.991Z" fill="#3F3D56"/>
<path d="M225.842 323.914C225.841 325.602 225.461 327.269 224.732 328.792C224.003 330.314 222.942 331.653 221.628 332.711C219.611 332.178 217.735 331.212 216.129 329.88C214.523 328.547 213.226 326.88 212.328 324.995C211.43 323.11 210.953 321.051 210.93 318.962C210.907 316.874 211.338 314.805 212.194 312.9C213.836 312.543 215.538 312.558 217.174 312.945C218.81 313.332 220.338 314.081 221.647 315.138C222.956 316.194 224.013 317.53 224.738 319.049C225.464 320.568 225.841 322.23 225.842 323.914Z" fill="#FFC107"/>
<path d="M80.9105 382.357C84.6133 382.357 87.615 378.707 87.615 374.203C87.615 369.699 84.6133 366.048 80.9105 366.048C77.2077 366.048 74.2061 369.699 74.2061 374.203C74.2061 378.707 77.2077 382.357 80.9105 382.357Z" fill="#FFC107"/>
<path d="M169.535 403.068H175.406L178.199 387.816L169.534 387.816L169.535 403.068Z" fill="#FFB8B8"/>
<path d="M168.037 401.148L179.599 401.148H179.6C180.567 401.148 181.525 401.338 182.419 401.709C183.313 402.08 184.126 402.624 184.81 403.309C185.494 403.995 186.037 404.808 186.407 405.704C186.777 406.599 186.968 407.559 186.968 408.528V408.768L168.037 408.769L168.037 401.148Z" fill="#2F2E41"/>
<path d="M176.349 396.808C176.281 396.808 176.212 396.805 176.143 396.798L168.018 396.206C167.69 396.175 167.373 396.069 167.091 395.897C166.81 395.724 166.572 395.489 166.396 395.209C166.219 394.93 166.109 394.614 166.075 394.285C166.04 393.956 166.081 393.624 166.194 393.313L177.068 368.843C177.146 368.625 177.177 368.393 177.161 368.162C177.145 367.931 177.081 367.706 176.974 367.5C176.867 367.293 176.717 367.11 176.535 366.965C176.352 366.819 176.141 366.714 175.915 366.656C170.802 365.318 157.683 361.753 146.326 357.582C141.461 355.795 138.396 353.212 137.218 349.906C135.665 345.547 137.963 341.572 138.061 341.405L138.138 341.275L148.825 342.248L160.41 343.235L185.797 356.871C187.925 358.023 189.54 359.936 190.323 362.228C191.106 364.52 190.998 367.023 190.02 369.239L178.316 395.529C178.147 395.909 177.871 396.233 177.522 396.46C177.173 396.687 176.766 396.808 176.349 396.808Z" fill="#2F2E41"/>
<path d="M150.683 293.834C157.179 293.834 162.445 288.56 162.445 282.053C162.445 275.546 157.179 270.272 150.683 270.272C144.187 270.272 138.921 275.546 138.921 282.053C138.921 288.56 144.187 293.834 150.683 293.834Z" fill="#FFB8B8"/>
<path d="M166.182 404.507H172.054L174.847 389.255L166.181 389.255L166.182 404.507Z" fill="#FFB8B8"/>
<path d="M164.685 402.587L176.247 402.587H176.247C177.215 402.587 178.173 402.777 179.067 403.148C179.961 403.519 180.773 404.063 181.458 404.748C182.142 405.434 182.685 406.247 183.055 407.143C183.425 408.038 183.616 408.998 183.616 409.967V410.207L164.685 410.208L164.685 402.587Z" fill="#2F2E41"/>
<path d="M172.997 398.247C172.929 398.247 172.86 398.244 172.791 398.237L164.666 397.645C164.337 397.614 164.02 397.508 163.739 397.336C163.458 397.163 163.22 396.928 163.043 396.648C162.867 396.369 162.757 396.053 162.722 395.724C162.687 395.395 162.728 395.063 162.842 394.752L173.716 370.282C173.793 370.064 173.825 369.832 173.809 369.601C173.793 369.37 173.729 369.145 173.622 368.939C173.515 368.732 173.365 368.549 173.182 368.404C173 368.258 172.789 368.153 172.563 368.095C167.45 366.757 154.33 363.192 142.974 359.021C138.108 357.234 135.044 354.651 133.866 351.345C132.313 346.986 134.61 343.011 134.709 342.844L134.786 342.714L145.472 343.687L157.057 344.674L182.445 358.31C184.572 359.462 186.188 361.375 186.971 363.667C187.753 365.959 187.645 368.462 186.668 370.678L174.964 396.968C174.794 397.348 174.518 397.672 174.169 397.899C173.82 398.126 173.413 398.247 172.997 398.247Z" fill="#2F2E41"/>
<path d="M154.31 300.515L141.859 296.198C141.859 296.198 134.043 302.213 137.798 317.135C139.758 324.835 139.187 332.963 136.169 340.313C135.806 341.222 135.387 342.108 134.915 342.966C134.915 342.966 148.803 359.755 161.733 347.283L156.705 323.06C156.705 323.06 164.606 306.99 154.31 300.515Z" fill="#FFC107"/>
<path d="M152.143 294.235C150.469 291.725 149.148 288.245 150.991 285.857C152.811 283.5 156.399 283.847 159.185 282.804C163.066 281.351 165.317 276.784 164.615 272.694C163.913 268.605 160.635 265.214 156.731 263.827C152.826 262.44 148.423 262.891 144.599 264.488C139.892 266.455 135.854 270.259 134.16 275.078C132.467 279.897 133.372 285.683 136.885 289.386C140.651 293.357 146.561 294.416 152.029 294.351" fill="#2F2E41"/>
<path d="M141.202 272.826C139.093 274.546 135.874 273.782 133.61 272.272C131.345 270.763 129.508 268.613 127.058 267.43C122.739 265.343 117.517 266.73 113.313 269.041C109.11 271.353 105.383 274.546 100.943 276.359C96.5025 278.173 90.8364 278.263 87.4741 274.838C86.6467 277.239 86.5791 279.838 87.2804 282.279C87.9818 284.72 89.418 286.885 91.3931 288.478C93.3682 290.071 95.786 291.016 98.3166 291.182C100.847 291.348 103.367 290.728 105.533 289.406C110.398 286.438 113.086 280.214 118.543 278.576C121.562 277.669 124.805 278.399 127.857 279.19C130.909 279.981 134.091 280.836 137.171 280.162C140.251 279.489 143.131 276.717 142.74 273.584L141.202 272.826Z" fill="#2F2E41"/>
<path d="M207.83 323.099C207.521 322.413 207.065 321.802 206.494 321.311C205.924 320.82 205.253 320.461 204.529 320.258C203.804 320.055 203.044 320.013 202.302 320.136C201.56 320.259 200.854 320.543 200.234 320.969L154.514 310.691L153.946 321.882L199.066 328.466C199.849 329.463 200.97 330.137 202.216 330.361C203.462 330.585 204.747 330.344 205.828 329.682C206.908 329.021 207.709 327.985 208.078 326.772C208.447 325.559 208.359 324.252 207.83 323.099Z" fill="#FFB8B8"/>
<path d="M162.53 311.719L159.74 323.049C159.66 323.371 159.513 323.672 159.306 323.932C159.1 324.192 158.84 324.405 158.545 324.555C158.249 324.705 157.925 324.79 157.594 324.804C157.263 324.817 156.932 324.759 156.626 324.633L145.878 320.221C144.233 319.806 142.819 318.754 141.948 317.296C141.076 315.838 140.817 314.093 141.229 312.444C141.64 310.795 142.687 309.377 144.141 308.501C145.595 307.625 147.336 307.362 148.983 307.77L160.509 308.865C160.839 308.897 161.159 308.999 161.446 309.165C161.732 309.331 161.98 309.558 162.172 309.828C162.364 310.099 162.495 310.408 162.557 310.734C162.619 311.061 162.61 311.396 162.53 311.719Z" fill="#FFC107"/>
<path d="M202.549 331.991C204.4 331.991 205.901 330.488 205.901 328.634C205.901 326.779 204.4 325.276 202.549 325.276C200.697 325.276 199.197 326.779 199.197 328.634C199.197 330.488 200.697 331.991 202.549 331.991Z" fill="#FFC107"/>
</g>
<defs>
<filter id="filter0_d_42_2" x="-250" y="-68" width="895" height="1200" filterUnits="userSpaceOnUse" color-interpolation-filters="sRGB">
<feFlood flood-opacity="0" result="BackgroundImageFix"/>
<feColorMatrix in="SourceAlpha" type="matrix" values="0 0 0 0 0 0 0 0 0 0 0 0 0 0 0 0 0 0 127 0" result="hardAlpha"/>
<feOffset dy="4"/>
<feGaussianBlur stdDeviation="125"/>
<feComposite in2="hardAlpha" operator="out"/>
<feColorMatrix type="matrix" values="0 0 0 0 0 0 0 0 0 0 0 0 0 0 0 0 0 0 0.25 0"/>
<feBlend mode="normal" in2="BackgroundImageFix" result="effect1_dropShadow_42_2"/>
<feBlend mode="normal" in="SourceGraphic" in2="effect1_dropShadow_42_2" result="shape"/>
</filter>
<clipPath id="clip0_42_2">
<rect width="378" height="315" fill="white" transform="translate(54 514)"/>
</clipPath>
<clipPath id="clip1_42_2">
<rect width="350" height="175" fill="white" transform="translate(1 263)"/>
</clipPath>
</defs>
</svg>
