<svg width="100%" height="100%" viewBox="0 0 1000 500" fill="none" xmlns="http://www.w3.org/2000/svg">
<path d="M421.925 291.244H290.598L289.206 250.799C289.146 249.046 289.465 247.3 290.143 245.683C290.821 244.065 291.841 242.614 293.132 241.429C294.423 240.244 295.956 239.353 297.624 238.818C299.292 238.283 301.056 238.116 302.794 238.329L379.217 247.703H379.227C390.557 247.733 401.413 252.261 409.416 260.294C417.419 268.327 421.917 279.21 421.925 290.558V291.244Z" fill="#FFC107"/>
<path d="M363.392 147.78H271.798C270.58 147.78 269.373 148.02 268.248 148.487C267.122 148.953 266.1 149.638 265.238 150.501C264.377 151.363 263.694 152.388 263.228 153.515C262.762 154.642 262.522 155.851 262.522 157.071V248.815C262.522 250.035 262.762 251.244 263.228 252.371C263.694 253.498 264.377 254.523 265.238 255.385C266.1 256.248 267.122 256.932 268.248 257.399C269.373 257.866 270.58 258.106 271.798 258.106H363.392C364.61 258.106 365.816 257.866 366.942 257.399C368.067 256.933 369.09 256.248 369.951 255.385C370.813 254.523 371.496 253.498 371.962 252.371C372.428 251.244 372.668 250.035 372.667 248.815V157.071C372.668 155.851 372.428 154.642 371.962 153.515C371.496 152.388 370.813 151.363 369.951 150.501C369.09 149.638 368.067 148.953 366.942 148.487C365.816 148.02 364.61 147.78 363.392 147.78Z" fill="#CCCCCC"/>
<path d="M342.763 216.383L299.518 224.819C296.953 225.316 294.295 224.774 292.129 223.311C289.962 221.848 288.463 219.585 287.961 217.016L284.636 199.918C284.14 197.348 284.681 194.686 286.141 192.516C287.602 190.346 289.862 188.845 292.426 188.341L335.672 179.906C338.237 179.409 340.894 179.951 343.061 181.414C345.227 182.876 346.726 185.14 347.229 187.709L350.553 204.807C351.05 207.377 350.508 210.038 349.048 212.209C347.588 214.379 345.327 215.88 342.763 216.383Z" fill="#3F3D56"/>
<path d="M334.111 196.183L301.108 202.62C300.505 202.738 299.879 202.611 299.369 202.267C298.859 201.922 298.507 201.389 298.389 200.785C298.271 200.18 298.398 199.553 298.742 199.042C299.086 198.532 299.618 198.178 300.222 198.061L333.225 191.623C333.829 191.505 334.454 191.633 334.964 191.977C335.474 192.321 335.827 192.854 335.944 193.459C336.062 194.064 335.935 194.69 335.591 195.201C335.247 195.712 334.715 196.065 334.111 196.183Z" fill="white"/>
<path d="M327.696 205.716L310.625 209.046C310.022 209.164 309.396 209.036 308.886 208.692C308.376 208.348 308.024 207.815 307.906 207.21C307.788 206.605 307.916 205.979 308.259 205.468C308.603 204.957 309.135 204.604 309.739 204.486L326.809 201.156C327.108 201.098 327.416 201.099 327.714 201.16C328.013 201.221 328.296 201.34 328.549 201.51C328.801 201.681 329.018 201.899 329.186 202.154C329.354 202.408 329.471 202.693 329.529 202.992C329.587 203.292 329.586 203.6 329.525 203.899C329.465 204.197 329.346 204.482 329.176 204.734C329.005 204.987 328.787 205.204 328.533 205.373C328.279 205.541 327.995 205.658 327.696 205.716Z" fill="white"/>
<path d="M372.667 157.071V169.265H262.522V157.071C262.522 155.851 262.762 154.642 263.228 153.515C263.694 152.388 264.377 151.363 265.238 150.501C266.1 149.638 267.122 148.953 268.248 148.487C269.373 148.02 270.58 147.78 271.798 147.78H363.392C364.61 147.78 365.816 148.02 366.942 148.487C368.067 148.953 369.09 149.638 369.951 150.501C370.813 151.363 371.496 152.388 371.962 153.515C372.428 154.642 372.668 155.851 372.667 157.071Z" fill="#B3B3B3"/>
<path d="M592.615 173.083C591.98 171.027 590.901 169.136 589.457 167.542C588.012 165.949 586.236 164.692 584.254 163.86C582.272 163.029 580.133 162.643 577.985 162.729C575.838 162.815 573.736 163.372 571.827 164.36L445.815 119.075L440.265 150.607L565.876 185.205C567.746 188.308 570.687 190.615 574.142 191.691C577.596 192.766 581.325 192.535 584.621 191.041C587.917 189.546 590.551 186.893 592.025 183.583C593.498 180.274 593.708 176.538 592.615 173.083Z" fill="#FFB8B8"/>
<path opacity="0.2" d="M592.615 173.083C591.98 171.027 590.901 169.136 589.457 167.542C588.012 165.949 586.236 164.692 584.254 163.86C582.272 163.029 580.133 162.643 577.985 162.729C575.838 162.815 573.736 163.372 571.827 164.36L445.815 119.075L440.265 150.607L565.876 185.205C567.746 188.308 570.687 190.615 574.142 191.691C577.596 192.766 581.325 192.535 584.621 191.041C587.917 189.546 590.551 186.893 592.025 183.583C593.498 180.274 593.708 176.538 592.615 173.083Z" fill="black"/>
<path d="M468.182 124.821L456.283 155.959C455.944 156.845 455.419 157.647 454.743 158.312C454.067 158.976 453.255 159.486 452.365 159.808C451.474 160.13 450.524 160.256 449.58 160.178C448.636 160.099 447.721 159.817 446.895 159.352L417.975 143.048C413.46 141.287 409.826 137.804 407.871 133.364C405.915 128.923 405.797 123.887 407.542 119.36C409.288 114.832 412.754 111.183 417.182 109.211C421.609 107.239 426.637 107.107 431.162 108.842L463.456 116.016C464.38 116.222 465.25 116.625 466.005 117.198C466.76 117.77 467.383 118.499 467.832 119.335C468.28 120.17 468.544 121.093 468.604 122.039C468.665 122.986 468.521 123.935 468.182 124.821Z" fill="#FFC107"/>
<path d="M602.535 201.915L557.382 222.473L563.31 244.827C574.758 287.995 577.796 332.967 572.259 377.286L605.271 384.192L632.637 314.297L623.059 234.807L602.535 201.915Z" fill="#FFC107"/>
<path d="M691.13 305.388C661.463 305.388 637.286 326.99 636.113 354.041H746.146C744.973 326.99 720.796 305.388 691.13 305.388Z" fill="#3F3D56"/>
<path d="M668.035 310.05C666.491 187.94 597.061 199.174 597.061 199.174C597.061 199.174 598.36 237.183 598.984 238.365C643.227 322.212 570.209 420.51 477.264 402.426C475.512 402.085 473.828 401.74 472.213 401.389C460.436 398.926 450.038 392.062 443.134 382.193C436.23 372.325 433.338 360.192 435.047 348.264C444.203 274.619 398.664 275.922 398.664 275.922H332.076L297.495 244.749C296.275 243.649 294.804 242.865 293.21 242.465C291.617 242.066 289.951 242.064 288.357 242.459C286.763 242.854 285.289 243.634 284.066 244.731C282.842 245.828 281.906 247.209 281.338 248.752L276.889 260.847C276.889 260.847 211.213 267.699 216.686 332.113H236.991C236.942 333.943 237.015 335.775 237.21 337.595L388.745 336.361C397.628 336.289 405.469 343.498 405.505 352.396C405.514 354.562 405.087 356.708 404.249 358.704C403.411 360.701 402.18 362.508 400.629 364.018C399.077 365.527 397.238 366.707 395.221 367.488C393.204 368.269 391.05 368.634 388.889 368.562L364.458 367.746C356.932 401.324 375.404 423.937 395.757 438.156C414.919 451.349 437.657 458.345 460.91 458.2H527.28C613.481 458.2 628.531 385.563 628.531 385.563C673.684 366.376 668.035 310.05 668.035 310.05Z" fill="#3F3D56"/>
<path d="M687.025 497.944C729.531 497.944 763.989 463.429 763.989 420.853C763.989 378.277 729.531 343.762 687.025 343.762C644.518 343.762 610.06 378.277 610.06 420.853C610.06 463.429 644.518 497.944 687.025 497.944Z" fill="#3F3D56"/>
<path d="M687.024 439.748C697.443 439.748 705.888 431.289 705.888 420.853C705.888 410.418 697.443 401.958 687.024 401.958C676.606 401.958 668.161 410.418 668.161 420.853C668.161 431.289 676.606 439.748 687.024 439.748Z" fill="white"/>
<path d="M298.439 497.944C347.368 497.944 387.034 458.214 387.034 409.204C387.034 360.194 347.368 320.464 298.439 320.464C249.509 320.464 209.844 360.194 209.844 409.204C209.844 458.214 249.509 497.944 298.439 497.944Z" fill="#3F3D56"/>
<path d="M298.439 430.954C310.432 430.954 320.154 421.216 320.154 409.204C320.154 397.192 310.432 387.454 298.439 387.454C286.447 387.454 276.725 397.192 276.725 409.204C276.725 421.216 286.447 430.954 298.439 430.954Z" fill="white"/>
<path d="M557.51 228.547L541.264 184.349C540.418 182.045 540.032 179.597 540.13 177.145C540.228 174.692 540.807 172.283 541.835 170.054C542.862 167.826 544.318 165.822 546.118 164.157C547.919 162.492 550.03 161.198 552.329 160.35L598.905 143.176C602.951 141.684 607.251 141.004 611.56 141.176C615.869 141.348 620.101 142.369 624.016 144.179C627.931 145.99 631.451 148.555 634.376 151.729C637.301 154.902 639.574 158.621 641.064 162.674C642.407 166.312 643.093 170.161 643.09 174.039C643.073 178.964 641.96 183.824 639.833 188.264C637.705 192.704 634.617 196.614 630.792 199.709C628.03 201.929 624.924 203.683 621.597 204.902L557.51 228.547Z" fill="#3F3D56"/>
<path d="M642.406 174.039C642.402 178.864 641.318 183.626 639.234 187.976C637.15 192.326 634.12 196.152 630.364 199.174C624.603 197.652 619.242 194.891 614.654 191.084C610.066 187.277 606.36 182.515 603.795 177.128C601.23 171.742 599.867 165.86 599.8 159.893C599.734 153.925 600.966 148.015 603.41 142.572C608.103 141.55 612.965 141.594 617.639 142.7C622.313 143.806 626.681 145.946 630.421 148.964C634.161 151.982 637.179 155.801 639.253 160.14C641.327 164.479 642.404 169.228 642.406 174.039Z" fill="#FFC107"/>
<path d="M228.316 341.021C238.895 341.021 247.471 330.59 247.471 317.723C247.471 304.855 238.895 294.424 228.316 294.424C217.736 294.424 209.16 304.855 209.16 317.723C209.16 330.59 217.736 341.021 228.316 341.021Z" fill="#FFC107"/>
<path d="M481.528 400.194H498.302L506.284 356.616L481.525 356.618L481.528 400.194Z" fill="#FFB8B8"/>
<path d="M477.248 394.709L510.283 394.707H510.284C513.049 394.707 515.787 395.253 518.341 396.312C520.895 397.372 523.216 398.925 525.171 400.883C527.126 402.842 528.677 405.166 529.735 407.725C530.793 410.283 531.337 413.025 531.337 415.794V416.48L477.249 416.482L477.248 394.709Z" fill="#2F2E41"/>
<path d="M500.998 382.309C500.803 382.309 500.607 382.299 500.41 382.28L477.195 380.587C476.256 380.5 475.35 380.198 474.546 379.705C473.742 379.211 473.062 378.539 472.559 377.741C472.055 376.942 471.741 376.039 471.641 375.1C471.542 374.16 471.659 373.211 471.983 372.324L503.051 302.408C503.273 301.785 503.364 301.122 503.318 300.462C503.272 299.802 503.089 299.159 502.783 298.573C502.477 297.979 502.049 297.458 501.528 297.042C501.006 296.627 500.403 296.326 499.757 296.161C485.148 292.336 447.665 282.151 415.218 270.234C401.316 265.128 392.561 257.749 389.195 248.303C384.758 235.849 391.322 224.492 391.604 224.015L391.824 223.642L422.356 226.422L455.456 229.242L527.992 268.202C534.07 271.494 538.687 276.959 540.923 283.508C543.159 290.056 542.85 297.208 540.058 303.539L506.617 378.653C506.133 379.741 505.345 380.665 504.348 381.314C503.351 381.963 502.187 382.308 500.998 382.309Z" fill="#2F2E41"/>
<path d="M427.665 88.0978C446.225 88.0978 461.271 73.0272 461.271 54.4368C461.271 35.8463 446.225 20.7758 427.665 20.7758C409.105 20.7758 394.059 35.8463 394.059 54.4368C394.059 73.0272 409.105 88.0978 427.665 88.0978Z" fill="#FFB8B8"/>
<path d="M471.95 404.306H488.724L496.705 360.728L471.947 360.729L471.95 404.306Z" fill="#FFB8B8"/>
<path d="M467.67 398.82L500.705 398.819H500.707C503.471 398.819 506.209 399.364 508.763 400.424C511.317 401.484 513.638 403.037 515.593 404.995C517.548 406.953 519.099 409.278 520.157 411.836C521.215 414.394 521.759 417.137 521.759 419.906V420.591L467.671 420.593L467.67 398.82Z" fill="#2F2E41"/>
<path d="M491.42 386.42C491.225 386.42 491.029 386.411 490.832 386.392L467.617 384.699C466.678 384.612 465.772 384.31 464.968 383.816C464.164 383.322 463.484 382.651 462.981 381.852C462.477 381.054 462.163 380.15 462.063 379.211C461.964 378.272 462.08 377.322 462.405 376.436L493.473 306.52C493.695 305.897 493.786 305.234 493.74 304.574C493.693 303.914 493.511 303.27 493.205 302.684C492.899 302.091 492.471 301.569 491.95 301.154C491.428 300.738 490.825 300.438 490.179 300.272C475.57 296.447 438.087 286.262 405.639 274.345C391.738 269.239 382.983 261.861 379.617 252.414C375.179 239.961 381.744 228.603 382.026 228.127L382.246 227.753L412.778 230.533L445.878 233.353L518.414 272.313C524.492 275.606 529.109 281.07 531.345 287.619C533.581 294.168 533.272 301.32 530.48 307.651L497.039 382.765C496.555 383.853 495.767 384.777 494.77 385.426C493.772 386.074 492.609 386.42 491.42 386.42Z" fill="#2F2E41"/>
<path d="M438.03 107.185L402.455 94.8504C402.455 94.8504 380.122 112.037 390.851 154.671C396.452 176.672 394.82 199.896 386.199 220.894C385.16 223.492 383.964 226.024 382.615 228.475C382.615 228.475 422.295 276.442 459.238 240.809L444.871 171.599C444.871 171.599 467.447 125.687 438.03 107.185Z" fill="#FFC107"/>
<path d="M431.838 89.2425C427.055 82.0716 423.28 72.1283 428.546 65.3054C433.745 58.5705 443.997 59.5628 451.958 56.5826C463.046 52.4318 469.477 39.3837 467.472 27.6984C465.466 16.013 456.101 6.32612 444.945 2.36258C433.788 -1.60096 421.208 -0.311922 410.282 4.25234C396.833 9.871 385.296 20.7399 380.459 34.508C375.621 48.276 378.207 64.8072 388.243 75.3896C399.003 86.7351 415.889 89.7587 431.511 89.5753" fill="#2F2E41"/>
<path d="M400.577 28.0733C394.55 32.9878 385.355 30.805 378.885 26.492C372.415 22.1789 367.166 16.0374 360.166 12.6558C347.825 6.69416 332.905 10.6573 320.895 17.2608C308.884 23.8644 298.237 32.9874 285.551 38.1695C272.864 43.3516 256.675 43.6077 247.069 33.8227C244.705 40.6833 244.511 48.1073 246.515 55.0819C248.519 62.0565 252.623 68.2419 258.266 72.7943C263.909 77.3467 270.817 80.0443 278.047 80.519C285.277 80.9938 292.478 79.2225 298.666 75.447C312.567 66.9658 320.245 49.1831 335.836 44.5019C344.463 41.9116 353.728 43.9979 362.447 46.2576C371.167 48.5173 380.259 50.959 389.059 49.0353C397.858 47.1115 406.089 39.1908 404.97 30.2391L400.577 28.0733Z" fill="#2F2E41"/>
<path d="M590.944 171.712C590.059 169.75 588.756 168.007 587.127 166.604C585.497 165.201 583.58 164.174 581.51 163.593C579.441 163.013 577.27 162.894 575.15 163.245C573.03 163.596 571.012 164.408 569.24 165.625L438.612 136.259L436.989 168.236L565.902 187.046C568.139 189.894 571.342 191.82 574.903 192.461C578.464 193.101 582.136 192.411 585.222 190.52C588.309 188.63 590.597 185.672 591.651 182.205C592.705 178.739 592.454 175.005 590.944 171.712Z" fill="#FFB8B8"/>
<path d="M461.515 139.196L453.542 171.567C453.315 172.488 452.893 173.35 452.304 174.092C451.715 174.835 450.973 175.442 450.128 175.872C449.284 176.301 448.357 176.544 447.411 176.582C446.464 176.621 445.521 176.454 444.645 176.095L413.937 163.489C409.237 162.303 405.198 159.296 402.708 155.131C400.217 150.965 399.478 145.979 400.653 141.268C401.828 136.557 404.821 132.506 408.975 130.002C413.128 127.499 418.104 126.748 422.81 127.915L455.741 131.043C456.683 131.133 457.596 131.426 458.416 131.901C459.236 132.375 459.944 133.022 460.492 133.796C461.04 134.569 461.415 135.452 461.591 136.384C461.768 137.316 461.742 138.275 461.515 139.196Z" fill="#FFC107"/>
<path d="M575.854 197.118C581.143 197.118 585.431 192.823 585.431 187.525C585.431 182.226 581.143 177.931 575.854 177.931C570.564 177.931 566.276 182.226 566.276 187.525C566.276 192.823 570.564 197.118 575.854 197.118Z" fill="#FFC107"/>
</svg>
