<svg width="100%" height="100%" viewBox="0 0 832 786" fill="none" xmlns="http://www.w3.org/2000/svg">
<g clip-path="url(#clip0_44_501)">
<path d="M726.721 370.177C727.801 371.446 728.603 372.927 729.074 374.525C729.545 376.123 729.675 377.803 729.455 379.454C729.236 381.105 728.672 382.692 727.8 384.112C726.929 385.532 725.768 386.753 724.394 387.696L666.329 427.551L640.76 444.592C639.308 445.561 637.547 445.954 635.821 445.695C634.095 445.437 632.526 444.546 631.421 443.195C630.777 442.408 630.311 441.49 630.056 440.505C629.801 439.52 629.763 438.492 629.945 437.491C630.127 436.49 630.524 435.54 631.108 434.707C631.693 433.875 632.452 433.179 633.332 432.668L658.096 418.292L701.317 377.14L673.532 347.305L694.114 331.873L726.721 370.177Z" fill="#A0616A"/>
<path d="M590.178 745.449H575.975L567.539 628.166L603.556 627.137L590.178 745.449Z" fill="#A0616A"/>
<path d="M591.207 783.515C587.42 785.243 584.248 771.242 581.053 774.381C572.117 783.16 558.434 785.072 546.507 781.239L550.681 781.192C549.961 780.961 549.296 780.586 548.726 780.09C548.155 779.594 547.691 778.987 547.362 778.307C547.033 777.627 546.845 776.887 546.811 776.132C546.776 775.377 546.895 774.622 547.16 773.915C547.478 773.068 547.997 772.311 548.672 771.709C549.347 771.106 550.158 770.677 551.036 770.458L560.539 768.083L575.46 741.848L590.693 740.82C594.089 745.148 596.459 750.19 597.625 755.565C598.79 760.941 598.722 766.512 597.424 771.857C596.041 777.498 593.907 782.283 591.207 783.515Z" fill="#2F2E41"/>
<path d="M684.751 745.449H670.547L662.111 628.166L699.157 620.965L684.751 745.449Z" fill="#A0616A"/>
<path d="M685.779 783.515C681.992 785.243 678.82 771.242 675.625 774.381C666.689 783.16 653.006 785.072 641.079 781.239L645.253 781.192C644.533 780.961 643.868 780.586 643.297 780.09C642.727 779.594 642.263 778.988 641.934 778.307C641.605 777.627 641.417 776.887 641.382 776.132C641.348 775.377 641.467 774.622 641.732 773.915C642.05 773.068 642.569 772.311 643.244 771.709C643.919 771.106 644.73 770.677 645.608 770.458L655.111 768.083L670.032 741.848L686.294 739.791L686.705 740.462C689.848 745.528 691.875 751.205 692.65 757.116C693.425 763.026 692.93 769.034 691.198 774.739C689.845 779.071 688.005 782.499 685.779 783.515Z" fill="#2F2E41"/>
<path d="M700.855 334.526C687.793 336.343 678.751 343.494 675.068 357.76L651.058 313.443C649.635 310.626 649.274 307.391 650.042 304.33C650.81 301.269 652.656 298.588 655.241 296.777C657.985 294.855 661.36 294.055 664.674 294.54C667.989 295.025 670.993 296.759 673.071 299.386L700.855 334.526Z" fill="#FFC107"/>
<path d="M726.014 615.821C667.638 641.643 607.896 644.821 546.958 628.166C569.211 541.883 595.486 463.863 595.324 399.774L655.009 394.63L664.199 409.195C686.002 443.752 701.053 482.13 708.552 522.294L726.014 615.821Z" fill="#2F2E41"/>
<path d="M628.254 267.059C645.304 267.059 659.125 253.241 659.125 236.195C659.125 219.15 645.304 205.331 628.254 205.331C611.204 205.331 597.382 219.15 597.382 236.195C597.382 253.241 611.204 267.059 628.254 267.059Z" fill="#A0616A"/>
<path d="M662.212 290.721L624.138 292.779L617.963 258.828L648.835 253.685L662.212 290.721Z" fill="#A0616A"/>
<path d="M658.096 399.774L616.383 400.948L595.324 403.889C584.986 369.75 576.283 335.69 597.382 307.182L622.079 282.491L659.125 281.462L659.616 281.743C665.499 285.112 670.059 290.385 672.544 296.693C675.028 303 675.289 309.965 673.284 316.441C664.091 346.308 658.186 374.511 658.096 399.774Z" fill="#FFC107"/>
<path d="M594.295 495.452L591.707 530.805C591.569 532.699 590.75 534.479 589.403 535.817C588.056 537.155 586.27 537.961 584.375 538.088C583.283 538.161 582.188 538.005 581.16 537.631C580.131 537.257 579.192 536.673 578.402 535.916C577.612 535.16 576.988 534.246 576.571 533.235C576.153 532.224 575.951 531.137 575.977 530.043L576.801 495.452L602.527 397.716L603.556 338.046L632.37 337.017L630.312 405.947L594.295 495.452Z" fill="#A0616A"/>
<path d="M635.457 342.161C623.241 337.195 611.831 338.858 601.498 349.363L602.914 298.982C603.092 295.831 604.4 292.851 606.598 290.586C608.796 288.321 611.737 286.924 614.882 286.65C618.219 286.36 621.541 287.357 624.168 289.436C626.794 291.516 628.526 294.52 629.008 297.835L635.457 342.161Z" fill="#FFC107"/>
<path d="M693.599 373.54H598.925C621.011 315.071 628.133 260.679 598.925 214.076C599.427 200.079 617.384 187.945 631.33 189.285C647.8 190.868 669.932 202.968 673.018 219.22L693.599 373.54Z" fill="#2F2E41"/>
<path d="M391.879 186.715H387.56V68.4492C387.56 59.4603 385.789 50.5594 382.349 42.2548C378.908 33.9501 373.865 26.4043 367.507 20.0482C361.149 13.6921 353.601 8.6502 345.295 5.21032C336.988 1.77044 328.085 -2.69372e-05 319.093 3.07395e-10H68.4669C59.4757 -1.98484e-05 50.5725 1.77046 42.2657 5.21034C33.9589 8.65023 26.4112 13.6922 20.0535 20.0482C13.6957 26.4043 8.65249 33.9501 5.21171 42.2548C1.77093 50.5594 -9.92687e-06 59.4603 0 68.4492V717.265C-7.09062e-06 726.254 1.77093 735.155 5.21171 743.46C8.65249 751.764 13.6957 759.31 20.0535 765.666C26.4112 772.022 33.9589 777.064 42.2657 780.504C50.5725 783.944 59.4757 785.714 68.4669 785.714H319.093C328.085 785.714 336.988 783.944 345.295 780.504C353.601 777.064 361.149 772.022 367.507 765.666C373.865 759.31 378.908 751.764 382.349 743.46C385.789 735.155 387.56 726.254 387.56 717.265V270.899H391.879V186.715Z" fill="#3F3D56"/>
<path d="M321.856 17.8081H289.141C290.645 21.4957 291.22 25.4965 290.813 29.4582C290.407 33.42 289.032 37.2209 286.81 40.5264C284.588 43.8318 281.587 46.5402 278.071 48.4129C274.556 50.2857 270.634 51.2654 266.65 51.2657H123.069C119.086 51.2654 115.163 50.2857 111.648 48.4129C108.132 46.5402 105.131 43.8318 102.909 40.5264C100.687 37.221 99.3124 33.42 98.906 29.4582C98.4995 25.4965 99.0738 21.4957 100.578 17.8081H70.0223C63.3078 17.8081 56.659 19.1303 50.4556 21.6991C44.2522 24.268 38.6157 28.0332 33.8678 32.7799C29.1199 37.5265 25.3537 43.1616 22.7842 49.3634C20.2146 55.5652 18.8921 62.2123 18.8921 68.9251V716.789C18.8921 723.502 20.2146 730.149 22.7841 736.351C25.3537 742.553 29.1199 748.188 33.8678 752.934C38.6157 757.681 44.2522 761.446 50.4556 764.015C56.659 766.584 63.3078 767.906 70.0223 767.906H321.856C328.571 767.906 335.219 766.584 341.423 764.015C347.626 761.446 353.263 757.681 358.011 752.934C362.758 748.188 366.525 742.553 369.094 736.351C371.664 730.149 372.986 723.502 372.986 716.789V68.925C372.986 55.3679 367.599 42.3662 358.01 32.7799C348.422 23.1936 335.417 17.8081 321.856 17.8081Z" fill="white"/>
<path d="M328.765 119.009H63.1133V346.806H328.765V119.009Z" fill="#E6E6E6"/>
<path d="M141.945 394.309C152.681 394.309 161.383 385.608 161.383 374.876C161.383 364.143 152.681 355.443 141.945 355.443C131.21 355.443 122.507 364.143 122.507 374.876C122.507 385.608 131.21 394.309 141.945 394.309Z" fill="#FFC107"/>
<path d="M151.664 373.257H143.565V365.16H140.326V373.257H132.227V376.496H140.326V384.593H143.565V376.496H151.664V373.257Z" fill="white"/>
<path d="M244.534 394.309C255.269 394.309 263.972 385.608 263.972 374.876C263.972 364.143 255.269 355.443 244.534 355.443C233.799 355.443 225.096 364.143 225.096 374.876C225.096 385.608 233.799 394.309 244.534 394.309Z" fill="#FFC107"/>
<path d="M254.253 376.495V373.257H234.815V376.495H254.253Z" fill="white"/>
<path d="M205.847 147.419H184.854C184.116 147.419 183.408 147.712 182.886 148.234C182.364 148.756 182.071 149.463 182.071 150.201V159.414C182.071 160.152 182.364 160.859 182.886 161.381C183.408 161.903 184.116 162.196 184.854 162.196H188.333V175.999H202.368V162.196H205.847C206.585 162.196 207.293 161.903 207.815 161.381C208.337 160.859 208.63 160.152 208.63 159.414V150.201C208.63 149.463 208.337 148.756 207.815 148.234C207.293 147.712 206.585 147.419 205.847 147.419Z" fill="#FFC107"/>
<path d="M226.874 231.728C214.017 212.92 207.444 190.526 208.097 167.755C208.109 167.229 207.938 166.716 207.615 166.302C207.291 165.888 206.833 165.599 206.321 165.484V161.503H184.149V165.429H183.843C183.545 165.429 183.249 165.488 182.973 165.603C182.697 165.718 182.447 165.885 182.236 166.097C182.025 166.308 181.857 166.559 181.743 166.835C181.629 167.112 181.571 167.407 181.571 167.706C181.571 167.761 181.574 167.816 181.578 167.872C183.324 192.214 177.426 214.044 163.883 233.361C163.104 234.471 162.705 235.804 162.748 237.16L165.173 312.132C165.231 313.805 165.933 315.39 167.132 316.557C168.331 317.724 169.935 318.383 171.609 318.396H221.758C223.45 318.383 225.071 317.709 226.274 316.518C227.477 315.327 228.167 313.714 228.198 312.022L229.132 239.229C229.16 236.558 228.372 233.941 226.874 231.728Z" fill="#3F3D56"/>
<path opacity="0.2" d="M201.471 150.42C201.471 152.013 200.838 153.54 199.712 154.665C198.586 155.791 197.058 156.424 195.466 156.424C193.873 156.424 192.346 155.791 191.22 154.665C190.094 153.54 189.461 152.013 189.461 150.42" fill="black"/>
<path d="M218.935 256.632H212.863C212.283 252.871 210.376 249.442 207.487 246.964C204.597 244.487 200.917 243.125 197.11 243.125C193.304 243.125 189.623 244.487 186.734 246.964C183.844 249.442 181.938 252.871 181.358 256.632H175.285C174.639 256.632 174 256.772 173.413 257.042C172.826 257.311 172.304 257.705 171.883 258.195C171.463 258.685 171.153 259.261 170.976 259.882C170.798 260.503 170.757 261.155 170.855 261.794L177.452 304.658H215.328L223.34 261.938C223.461 261.291 223.439 260.625 223.273 259.988C223.108 259.351 222.804 258.758 222.384 258.251C221.963 257.745 221.436 257.337 220.84 257.057C220.244 256.777 219.594 256.632 218.935 256.632Z" fill="#FFC107"/>
<path d="M328.765 439.652H63.1133V667.449H328.765V439.652Z" fill="#E6E6E6"/>
<path d="M141.945 714.952C152.681 714.952 161.383 706.252 161.383 695.519C161.383 684.787 152.681 676.086 141.945 676.086C131.21 676.086 122.507 684.787 122.507 695.519C122.507 706.252 131.21 714.952 141.945 714.952Z" fill="#FFC107"/>
<path d="M151.664 693.9H143.565V685.803H140.326V693.9H132.227V697.139H140.326V705.236H143.565V697.139H151.664V693.9Z" fill="white"/>
<path d="M244.534 714.952C255.269 714.952 263.972 706.252 263.972 695.519C263.972 684.787 255.269 676.086 244.534 676.086C233.799 676.086 225.096 684.787 225.096 695.519C225.096 706.252 233.799 714.952 244.534 714.952Z" fill="#FFC107"/>
<path d="M254.253 697.139V693.9H234.815V697.139H254.253Z" fill="white"/>
<path d="M248.236 601.483L248.382 601.483C253.384 601.525 258.282 600.059 262.438 597.276C266.594 594.493 269.814 590.523 271.679 585.883C277.555 571.028 278.931 554.774 275.635 539.144C272.339 523.513 264.517 509.197 253.143 497.979C241.769 486.76 227.345 479.134 211.668 476.05C195.99 472.966 179.752 474.561 164.974 480.636C150.197 486.711 137.533 496.997 128.56 510.214C119.587 523.431 114.701 538.995 114.511 554.968C114.32 570.941 118.834 586.616 127.489 600.044C136.144 613.471 148.559 624.056 163.187 630.481C167.734 632.494 172.783 633.086 177.672 632.179C182.561 631.273 187.061 628.911 190.584 625.402C198.139 617.809 207.123 611.786 217.018 607.681C226.913 603.576 237.523 601.469 248.236 601.483Z" fill="white"/>
<path d="M206.399 576.835C221.253 576.835 233.294 564.797 233.294 549.946C233.294 535.096 221.253 523.058 206.399 523.058C191.545 523.058 179.503 535.096 179.503 549.946C179.503 564.797 191.545 576.835 206.399 576.835Z" fill="#F9A825"/>
</g>
<defs>
<clipPath id="clip0_44_501">
<rect width="831.429" height="785.714" fill="white"/>
</clipPath>
</defs>
</svg>
