<svg width="1440" height="866" viewBox="0 0 1440 866" fill="none" xmlns="http://www.w3.org/2000/svg">
<g clip-path="url(#clip0_14_303)">
<rect width="1440" height="866" fill="white"/>
<g clip-path="url(#clip1_14_303)">
<g filter="url(#filter0_d_14_303)">
<path d="M1440 129.037C1440 129.037 1151.12 71.07 1064.66 175.552C960.928 300.911 1228.43 589.538 1064.66 714.916C922.714 823.593 1440 812.696 1440 812.696V129.037Z" fill="white"/>
</g>
<g filter="url(#filter1_d_14_303)">
<path d="M0 796.963C0 796.963 285.266 854.93 370.645 750.448C473.084 625.089 208.927 336.462 370.645 211.084C510.82 102.407 0 113.304 0 113.304V796.963Z" fill="white" fill-opacity="0.01"/>
</g>
<mask id="mask0_14_303" style="mask-type:luminance" maskUnits="userSpaceOnUse" x="54" y="449" width="378" height="315">
<path d="M432 449H54V764H432V449Z" fill="white"/>
</mask>
<g mask="url(#mask0_14_303)">
<path d="M209.753 523.124H208.037V476.174C208.037 472.605 207.333 469.072 205.965 465.775C204.598 462.478 202.593 459.482 200.066 456.959C197.54 454.436 194.54 452.434 191.238 451.068C187.937 449.703 184.398 449 180.824 449H81.2123C77.6388 449 74.1002 449.703 70.7986 451.068C67.4971 452.434 64.4972 454.436 61.9703 456.959C59.4434 459.482 57.4389 462.478 56.0714 465.775C54.7039 469.072 54 472.605 54 476.174V733.749C54 737.317 54.7039 740.851 56.0714 744.148C57.439 747.444 59.4434 750.44 61.9703 752.963C64.4972 755.487 67.4971 757.488 70.7986 758.854C74.1002 760.22 77.6388 760.922 81.2123 760.922H180.824C184.398 760.922 187.937 760.22 191.238 758.854C194.54 757.488 197.54 755.487 200.066 752.963C202.593 750.44 204.598 747.444 205.965 744.148C207.333 740.851 208.037 737.317 208.037 733.749V556.545H209.753V523.124Z" fill="#E6E6E6"/>
<path d="M181.923 456.07H168.92C169.518 457.534 169.746 459.122 169.584 460.695C169.423 462.267 168.877 463.776 167.993 465.089C167.11 466.401 165.918 467.476 164.52 468.22C163.123 468.963 161.564 469.352 159.981 469.352H102.914C101.331 469.352 99.772 468.963 98.3747 468.22C96.9775 467.476 95.7847 466.401 94.9016 465.089C94.0185 463.776 93.4721 462.267 93.3105 460.695C93.1489 459.122 93.3772 457.534 93.9752 456.07H81.8306C79.1619 456.07 76.5194 456.595 74.0538 457.614C71.5882 458.634 69.348 460.129 67.4609 462.013C65.5739 463.898 64.077 466.135 63.0557 468.597C62.0344 471.059 61.5088 473.698 61.5088 476.363V733.56C61.5088 736.225 62.0344 738.863 63.0557 741.326C64.077 743.788 65.5739 746.025 67.4609 747.909C69.348 749.793 71.5882 751.288 74.0538 752.308C76.5194 753.328 79.1619 753.853 81.8306 753.853H181.923C184.591 753.853 187.234 753.328 189.699 752.308C192.165 751.288 194.405 749.793 196.292 747.909C198.179 746.025 199.676 743.788 200.697 741.326C201.719 738.863 202.244 736.225 202.244 733.56V476.363C202.244 473.698 201.719 471.059 200.697 468.597C199.676 466.135 198.179 463.898 196.292 462.013C194.405 460.129 192.165 458.634 189.699 457.614C187.234 456.595 184.591 456.07 181.923 456.07Z" fill="white"/>
<path d="M102.388 508.355H96.4115C96.2013 508.355 95.9998 508.438 95.8512 508.587C95.7026 508.735 95.6191 508.936 95.6191 509.146V511.766C95.6191 511.975 95.7026 512.177 95.8512 512.325C95.9998 512.473 96.2013 512.557 96.4115 512.557H97.4018V516.482H101.397V512.557H102.388C102.598 512.557 102.799 512.473 102.948 512.325C103.096 512.177 103.18 511.975 103.18 511.766V509.146C103.18 508.936 103.096 508.735 102.948 508.587C102.799 508.438 102.598 508.355 102.388 508.355Z" fill="#E6E6E6"/>
<path d="M108.373 532.328C104.713 526.98 102.842 520.612 103.028 514.137C103.032 513.988 102.983 513.842 102.891 513.724C102.799 513.607 102.668 513.524 102.522 513.492V512.36H96.2107V513.476H96.1238C95.952 513.476 95.7874 513.545 95.6661 513.666C95.5448 513.787 95.4768 513.952 95.477 514.124C95.477 514.139 95.4776 514.155 95.4788 514.171C95.976 521.092 94.2969 527.299 90.4416 532.792C90.2197 533.108 90.1064 533.487 90.1186 533.872L90.8087 555.19C90.8253 555.666 91.0252 556.116 91.3666 556.448C91.708 556.78 92.1645 556.968 92.641 556.971H106.917C107.399 556.967 107.86 556.776 108.203 556.437C108.545 556.099 108.742 555.64 108.75 555.159L109.016 534.461C109.024 533.701 108.8 532.957 108.373 532.328Z" fill="#E6E6E6"/>
<path d="M106.114 539.409H93.6874C93.5034 539.409 93.3217 539.449 93.1546 539.525C92.9874 539.602 92.8389 539.714 92.7191 539.853C92.5994 539.993 92.5112 540.156 92.4607 540.333C92.4102 540.51 92.3985 540.695 92.4265 540.877L94.3042 553.065H105.087L107.367 540.918C107.402 540.734 107.395 540.544 107.348 540.363C107.301 540.182 107.215 540.013 107.095 539.869C106.976 539.725 106.825 539.609 106.656 539.53C106.486 539.45 106.301 539.409 106.114 539.409Z" fill="white"/>
<path d="M168.914 572.216H162.938C162.728 572.216 162.526 572.299 162.378 572.447C162.229 572.596 162.146 572.797 162.146 573.007V575.626C162.146 575.836 162.229 576.037 162.378 576.186C162.526 576.334 162.728 576.418 162.938 576.418H163.928V580.342H167.924V576.418H168.914C169.124 576.418 169.326 576.334 169.474 576.186C169.623 576.037 169.706 575.836 169.706 575.626V573.007C169.706 572.797 169.623 572.596 169.474 572.447C169.326 572.299 169.124 572.216 168.914 572.216Z" fill="#E6E6E6"/>
<path d="M174.9 596.189C171.24 590.841 169.369 584.473 169.555 577.998C169.558 577.849 169.509 577.703 169.417 577.585C169.325 577.467 169.195 577.385 169.049 577.352V576.221H162.737V577.337H162.65C162.565 577.337 162.481 577.354 162.402 577.386C162.324 577.419 162.253 577.467 162.192 577.527C162.132 577.587 162.085 577.658 162.052 577.737C162.02 577.815 162.003 577.899 162.003 577.984C162.003 578 162.004 578.016 162.005 578.031C162.502 584.953 160.823 591.16 156.968 596.653C156.746 596.968 156.633 597.347 156.645 597.733L157.335 619.051C157.352 619.526 157.552 619.977 157.893 620.309C158.234 620.641 158.691 620.828 159.167 620.832H173.443C173.925 620.828 174.386 620.636 174.729 620.298C175.071 619.959 175.268 619.501 175.277 619.019L175.543 598.321C175.55 597.562 175.326 596.818 174.9 596.189Z" fill="#E6E6E6"/>
<path d="M172.64 603.27H160.214C160.03 603.27 159.848 603.31 159.681 603.386C159.514 603.463 159.365 603.575 159.245 603.714C159.126 603.854 159.038 604.017 158.987 604.194C158.937 604.37 158.925 604.556 158.953 604.737L160.831 616.926H171.613L173.894 604.779C173.928 604.595 173.922 604.405 173.875 604.224C173.828 604.043 173.741 603.874 173.622 603.73C173.502 603.586 173.352 603.47 173.182 603.391C173.012 603.311 172.827 603.27 172.64 603.27Z" fill="white"/>
<path d="M93.9858 662.496H91.151C91.0513 662.496 90.9557 662.536 90.8852 662.606C90.8147 662.676 90.7751 662.772 90.7751 662.871V664.114C90.7751 664.213 90.8147 664.309 90.8852 664.379C90.9557 664.45 91.0513 664.489 91.151 664.489H91.6207V666.351H93.516V664.489H93.9858C94.0854 664.489 94.181 664.45 94.2515 664.379C94.322 664.309 94.3616 664.213 94.3616 664.114V662.871C94.3616 662.772 94.322 662.676 94.2515 662.606C94.181 662.536 94.0854 662.496 93.9858 662.496Z" fill="#E6E6E6"/>
<path d="M96.8252 673.867C95.0891 671.331 94.2016 668.31 94.2898 665.239C94.2914 665.168 94.2684 665.099 94.2246 665.043C94.1809 664.987 94.1191 664.948 94.0499 664.933V664.396H91.056V664.925H91.0147C90.9744 664.925 90.9345 664.933 90.8972 664.949C90.8599 664.964 90.8261 664.987 90.7976 665.015C90.7691 665.044 90.7465 665.078 90.7312 665.115C90.7158 665.152 90.7079 665.192 90.7079 665.232C90.7079 665.24 90.7082 665.247 90.7088 665.255C90.9851 668.389 90.1384 671.519 88.3194 674.088C88.2142 674.237 88.1604 674.417 88.1662 674.6L88.4935 684.712C88.5014 684.938 88.5962 685.151 88.7581 685.309C88.9201 685.466 89.1367 685.555 89.3627 685.557H96.1344C96.363 685.555 96.5818 685.464 96.7443 685.304C96.9067 685.143 96.9999 684.925 97.0041 684.697L97.1302 674.879C97.134 674.519 97.0276 674.166 96.8252 673.867Z" fill="#E6E6E6"/>
<path d="M95.8505 677.585H89.3892V680.811H95.8505V677.585Z" fill="white"/>
<path d="M107.182 662.496H104.347C104.247 662.496 104.152 662.536 104.081 662.606C104.011 662.676 103.971 662.772 103.971 662.871V664.114C103.971 664.213 104.011 664.309 104.081 664.379C104.152 664.45 104.247 664.489 104.347 664.489H104.817V666.351H106.712V664.489H107.182C107.281 664.489 107.377 664.45 107.448 664.379C107.518 664.309 107.558 664.213 107.558 664.114V662.871C107.558 662.772 107.518 662.676 107.448 662.606C107.377 662.536 107.281 662.496 107.182 662.496Z" fill="#E6E6E6"/>
<path d="M110.021 673.867C108.285 671.331 107.397 668.31 107.486 665.239C107.487 665.168 107.464 665.099 107.42 665.043C107.377 664.987 107.315 664.948 107.246 664.933V664.396H104.252V664.925H104.211C104.17 664.925 104.13 664.933 104.093 664.949C104.056 664.964 104.022 664.987 103.993 665.015C103.965 665.044 103.942 665.078 103.927 665.115C103.912 665.152 103.904 665.192 103.904 665.232C103.904 665.24 103.904 665.247 103.905 665.255C104.181 668.389 103.334 671.519 101.515 674.088C101.41 674.237 101.356 674.417 101.362 674.6L101.689 684.712C101.697 684.938 101.792 685.151 101.954 685.309C102.116 685.466 102.332 685.555 102.558 685.557H109.33C109.559 685.555 109.778 685.464 109.94 685.304C110.103 685.143 110.196 684.925 110.2 684.697L110.326 674.879C110.33 674.519 110.223 674.166 110.021 673.867Z" fill="#E6E6E6"/>
<path d="M109.047 677.585H102.585V680.811H109.047V677.585Z" fill="white"/>
<path d="M120.378 662.496H117.543C117.443 662.496 117.348 662.536 117.277 662.606C117.207 662.676 117.167 662.772 117.167 662.871V664.114C117.167 664.213 117.207 664.309 117.277 664.379C117.348 664.45 117.443 664.489 117.543 664.489H118.013V666.351H119.908V664.489H120.378C120.478 664.489 120.573 664.45 120.644 664.379C120.714 664.309 120.754 664.213 120.754 664.114V662.871C120.754 662.772 120.714 662.676 120.644 662.606C120.573 662.536 120.478 662.496 120.378 662.496Z" fill="#E6E6E6"/>
<path d="M123.217 673.867C121.481 671.331 120.593 668.31 120.682 665.239C120.683 665.168 120.66 665.099 120.616 665.043C120.573 664.987 120.511 664.948 120.442 664.933V664.396H117.448V664.925H117.407C117.366 664.925 117.326 664.933 117.289 664.949C117.252 664.964 117.218 664.987 117.189 665.015C117.161 665.044 117.138 665.078 117.123 665.115C117.108 665.152 117.1 665.192 117.1 665.232C117.1 665.24 117.1 665.247 117.101 665.255C117.377 668.389 116.53 671.519 114.711 674.088C114.606 674.237 114.552 674.417 114.558 674.6L114.885 684.712C114.893 684.938 114.988 685.151 115.15 685.309C115.312 685.466 115.529 685.555 115.755 685.557H122.526C122.755 685.555 122.974 685.464 123.136 685.304C123.299 685.143 123.392 684.925 123.396 684.697L123.522 674.879C123.526 674.519 123.419 674.166 123.217 673.867Z" fill="#E6E6E6"/>
<path d="M122.243 677.585H115.781V680.811H122.243V677.585Z" fill="white"/>
<path d="M158.532 637.791H152.556C152.452 637.791 152.349 637.811 152.253 637.851C152.156 637.891 152.069 637.949 151.996 638.023C151.922 638.096 151.864 638.183 151.824 638.279C151.784 638.375 151.763 638.478 151.763 638.582V641.201C151.763 641.411 151.847 641.613 151.996 641.761C152.144 641.909 152.346 641.993 152.556 641.993H153.546V645.917H157.542V641.993H158.532C158.742 641.993 158.944 641.909 159.092 641.761C159.241 641.613 159.324 641.411 159.324 641.201V638.582C159.324 638.478 159.304 638.375 159.264 638.279C159.224 638.183 159.166 638.096 159.092 638.023C159.019 637.949 158.931 637.891 158.835 637.851C158.739 637.811 158.636 637.791 158.532 637.791Z" fill="#E6E6E6"/>
<path d="M164.518 661.764C160.858 656.416 158.987 650.048 159.173 643.573C159.176 643.424 159.127 643.278 159.035 643.16C158.943 643.043 158.813 642.96 158.667 642.928V641.796H152.355V642.912H152.268C152.183 642.912 152.099 642.929 152.021 642.961C151.942 642.994 151.871 643.042 151.811 643.102C151.751 643.162 151.703 643.233 151.67 643.312C151.638 643.39 151.621 643.474 151.622 643.559C151.622 643.575 151.622 643.591 151.623 643.606C152.121 650.528 150.441 656.735 146.586 662.228C146.364 662.544 146.251 662.923 146.263 663.308L146.953 684.626C146.97 685.101 147.17 685.552 147.511 685.884C147.852 686.216 148.309 686.403 148.785 686.407H163.061C163.543 686.403 164.005 686.212 164.347 685.873C164.69 685.534 164.886 685.076 164.895 684.595L165.161 663.897C165.169 663.137 164.944 662.393 164.518 661.764Z" fill="#E6E6E6"/>
<path d="M162.258 668.845H149.832C149.648 668.845 149.466 668.885 149.299 668.961C149.132 669.038 148.983 669.15 148.863 669.289C148.744 669.429 148.655 669.592 148.605 669.769C148.554 669.946 148.543 670.131 148.571 670.313L150.449 682.501H161.231L163.512 670.354C163.546 670.17 163.54 669.98 163.493 669.799C163.446 669.618 163.359 669.449 163.24 669.305C163.12 669.161 162.97 669.045 162.8 668.966C162.63 668.886 162.445 668.845 162.258 668.845Z" fill="white"/>
<path d="M161.794 559.716H126.171C128.661 546.269 128.088 530.032 126.171 512.57H161.794C159.928 530.032 159.37 546.269 161.794 559.716Z" fill="#E6E6E6"/>
<path d="M144.197 543.429C148.938 543.429 152.781 539.591 152.781 534.857C152.781 530.123 148.938 526.285 144.197 526.285C139.456 526.285 135.613 530.123 135.613 534.857C135.613 539.591 139.456 543.429 144.197 543.429Z" fill="white"/>
<path d="M129.175 622.291H93.5513C96.0419 608.844 95.4689 592.607 93.5513 575.145H129.175C127.308 592.607 126.751 608.844 129.175 622.291Z" fill="#E6E6E6"/>
<path d="M111.578 606.004C116.319 606.004 120.162 602.166 120.162 597.432C120.162 592.698 116.319 588.86 111.578 588.86C106.837 588.86 102.994 592.698 102.994 597.432C102.994 602.166 106.837 606.004 111.578 606.004Z" fill="white"/>
<path d="M181.967 562.716H146.343C148.834 549.269 148.261 533.032 146.343 515.57H181.967C180.1 533.032 179.543 549.269 181.967 562.716Z" fill="#E6E6E6"/>
<path d="M164.37 546.429C169.111 546.429 172.954 542.591 172.954 537.857C172.954 533.123 169.111 529.285 164.37 529.285C159.629 529.285 155.786 533.123 155.786 537.857C155.786 542.591 159.629 546.429 164.37 546.429Z" fill="white"/>
<path d="M181.967 560.573H146.343C148.834 547.126 148.261 530.889 146.343 513.427H181.967C180.1 530.889 179.543 547.126 181.967 560.573Z" fill="#E6E6E6"/>
<path d="M164.37 544.286C169.111 544.286 172.954 540.448 172.954 535.714C172.954 530.98 169.111 527.142 164.37 527.142C159.629 527.142 155.786 530.98 155.786 535.714C155.786 540.448 159.629 544.286 164.37 544.286Z" fill="white"/>
<path d="M181.967 562.716H146.343C148.834 549.269 148.261 533.032 146.343 515.57H181.967C180.1 533.032 179.543 549.269 181.967 562.716Z" fill="#E6E6E6"/>
<path d="M164.37 546.429C169.111 546.429 172.954 542.591 172.954 537.857C172.954 533.123 169.111 529.285 164.37 529.285C159.629 529.285 155.786 533.123 155.786 537.857C155.786 542.591 159.629 546.429 164.37 546.429Z" fill="white"/>
<path d="M190.122 557.144H73.3789V570.002H190.122V557.144Z" fill="#E6E6E6"/>
<path d="M190.122 621.005H73.3789V633.863H190.122V621.005Z" fill="#E6E6E6"/>
<path d="M190.122 684.866H73.3789V697.723H190.122V684.866Z" fill="#E6E6E6"/>
<path d="M393.202 737.029L364.117 716.487C373.927 706.945 382.848 693.359 391.38 677.997L420.464 698.538C408.843 711.719 398.998 724.653 393.202 737.029Z" fill="#F5B000"/>
<path d="M393.21 715.159C397.95 715.159 401.794 711.321 401.794 706.587C401.794 701.853 397.95 698.015 393.21 698.015C388.469 698.015 384.625 701.853 384.625 706.587C384.625 711.321 388.469 715.159 393.21 715.159Z" fill="white"/>
<path d="M252.902 643.292H249.71C249.597 643.292 249.49 643.336 249.41 643.416C249.331 643.495 249.286 643.602 249.286 643.714V645.114C249.286 645.169 249.297 645.224 249.319 645.276C249.34 645.327 249.371 645.373 249.41 645.413C249.45 645.452 249.496 645.483 249.548 645.504C249.599 645.526 249.654 645.536 249.71 645.536H250.239V647.633H252.373V645.536H252.902C253.014 645.536 253.122 645.492 253.201 645.413C253.281 645.333 253.325 645.226 253.325 645.114V643.714C253.325 643.602 253.281 643.495 253.201 643.416C253.122 643.336 253.014 643.292 252.902 643.292Z" fill="#E6E6E6"/>
<path d="M256.1 656.098C254.145 653.241 253.145 649.84 253.244 646.381C253.246 646.301 253.22 646.223 253.171 646.16C253.122 646.097 253.052 646.053 252.974 646.036V645.431H249.602V646.028H249.556C249.511 646.028 249.466 646.037 249.424 646.054C249.382 646.071 249.344 646.097 249.311 646.129C249.279 646.161 249.254 646.199 249.237 646.241C249.219 646.283 249.21 646.328 249.21 646.373C249.21 646.382 249.211 646.39 249.211 646.399C249.523 649.928 248.569 653.453 246.52 656.346C246.402 656.515 246.341 656.718 246.348 656.923L246.717 668.312C246.725 668.566 246.832 668.807 247.015 668.984C247.197 669.161 247.441 669.261 247.695 669.263H255.322C255.579 669.261 255.826 669.159 256.009 668.978C256.192 668.797 256.297 668.552 256.301 668.295L256.443 657.238C256.447 656.832 256.328 656.435 256.1 656.098Z" fill="#F5B000"/>
<path opacity="0.2" d="M252.237 643.748C252.237 643.99 252.141 644.222 251.969 644.393C251.798 644.564 251.566 644.66 251.324 644.66C251.081 644.66 250.849 644.564 250.678 644.393C250.507 644.222 250.41 643.99 250.41 643.748" fill="black"/>
<path d="M254.615 658.293H248.177V662.579H254.615V658.293Z" fill="white"/>
<path d="M353.932 687.782H347.956C347.746 687.782 347.544 687.865 347.396 688.013C347.247 688.162 347.164 688.363 347.164 688.573V691.192C347.164 691.402 347.247 691.603 347.396 691.752C347.544 691.9 347.746 691.983 347.956 691.983H348.946V695.908H352.942V691.983H353.932C354.142 691.983 354.344 691.9 354.492 691.752C354.641 691.603 354.724 691.402 354.724 691.192V688.573C354.724 688.363 354.641 688.162 354.492 688.013C354.344 687.865 354.142 687.782 353.932 687.782Z" fill="#E6E6E6"/>
<path d="M359.918 711.754C356.258 706.406 354.387 700.039 354.573 693.564C354.576 693.415 354.528 693.269 354.435 693.151C354.343 693.033 354.213 692.951 354.067 692.918V691.786H347.755V692.903H347.668C347.583 692.903 347.499 692.919 347.421 692.952C347.342 692.985 347.271 693.032 347.211 693.093C347.151 693.153 347.103 693.224 347.071 693.303C347.038 693.381 347.022 693.465 347.022 693.55C347.022 693.566 347.022 693.581 347.023 693.597C347.521 700.519 345.842 706.726 341.986 712.219C341.764 712.534 341.651 712.913 341.663 713.299L342.353 734.617C342.37 735.092 342.57 735.543 342.911 735.875C343.253 736.207 343.709 736.394 344.186 736.398H358.462C358.943 736.394 359.405 736.202 359.747 735.864C360.09 735.525 360.286 735.066 360.295 734.585L360.561 713.887C360.569 713.128 360.345 712.384 359.918 711.754Z" fill="#F5B000"/>
<path opacity="0.2" d="M352.686 688.635C352.686 689.088 352.506 689.522 352.186 689.842C351.865 690.162 351.43 690.342 350.977 690.342C350.524 690.342 350.089 690.162 349.768 689.842C349.448 689.522 349.268 689.088 349.268 688.635" fill="black"/>
<path d="M357.658 718.836H345.232C345.048 718.836 344.866 718.875 344.699 718.952C344.532 719.029 344.383 719.141 344.264 719.28C344.144 719.419 344.056 719.583 344.005 719.76C343.955 719.936 343.943 720.122 343.971 720.303L345.849 732.491H356.631L358.912 720.344C358.946 720.16 358.94 719.971 358.893 719.79C358.846 719.609 358.759 719.44 358.64 719.296C358.52 719.152 358.37 719.036 358.2 718.956C358.031 718.877 357.845 718.836 357.658 718.836Z" fill="white"/>
<path d="M336.881 736.996H301.257C303.748 723.549 303.175 707.312 301.257 689.85H336.881C335.015 707.312 334.457 723.549 336.881 736.996Z" fill="#F5B000"/>
<path d="M319.284 720.709C324.025 720.709 327.868 716.871 327.868 712.137C327.868 707.403 324.025 703.565 319.284 703.565C314.543 703.565 310.7 707.403 310.7 712.137C310.7 716.871 314.543 720.709 319.284 720.709Z" fill="white"/>
<path d="M191.171 588.622L199.168 587.896L204.257 575.555L195.17 570.472L191.171 588.622Z" fill="#FFB8B8"/>
<path d="M264.565 622.504C264.831 621.842 264.935 621.126 264.87 620.415C264.804 619.705 264.571 619.02 264.188 618.417C263.806 617.815 263.285 617.312 262.67 616.949C262.054 616.587 261.361 616.376 260.648 616.333L248.231 615.594L246.403 621.665L259.185 625.17C260.253 625.463 261.392 625.353 262.384 624.862C263.377 624.37 264.153 623.531 264.565 622.504Z" fill="#FFB8B8"/>
<path d="M251.232 625.272L251.095 613.881L223.515 609.486L202.267 585.152C201.161 583.885 199.634 583.062 197.967 582.835C196.3 582.607 194.608 582.991 193.202 583.914C192.351 584.473 191.634 585.212 191.1 586.078C190.567 586.944 190.231 587.917 190.115 588.928C189.999 589.938 190.108 590.962 190.432 591.926C190.756 592.89 191.288 593.771 191.991 594.507L209.52 616.049L251.232 625.272Z" fill="#575A89"/>
<path d="M184.991 753.423H192.261L210.294 672.008L228.976 697.159L239.882 751.608H246.788L245.334 693.166L220.979 630.73H196.987C190.431 642.579 185.288 654.793 191.171 667.393L184.991 753.423Z" fill="#2F2E41"/>
<path d="M235.425 758.369C235.344 758.626 235.32 758.897 235.352 759.164C235.385 759.431 235.474 759.688 235.614 759.918C235.754 760.148 235.942 760.345 236.164 760.497C236.387 760.649 236.639 760.752 236.904 760.799L254.695 763.952C255.398 764.08 256.123 763.948 256.735 763.579C257.347 763.209 257.802 762.63 258.015 761.949C258.223 761.298 258.194 760.595 257.933 759.963C257.673 759.331 257.198 758.811 256.592 758.495C252.681 756.489 249.314 753.566 246.781 749.977C244.826 751.795 242.641 751.624 240.32 750.284L237.859 750.591L235.425 758.369Z" fill="#2F2E41"/>
<path d="M181.625 758.369C181.545 758.626 181.52 758.897 181.553 759.164C181.585 759.431 181.675 759.688 181.815 759.918C181.955 760.148 182.142 760.345 182.364 760.497C182.587 760.649 182.839 760.752 183.104 760.799L200.895 763.952C201.598 764.08 202.324 763.948 202.935 763.579C203.547 763.209 204.002 762.63 204.215 761.949C204.423 761.298 204.394 760.595 204.134 759.963C203.873 759.331 203.399 758.811 202.793 758.495C198.881 756.489 195.514 753.566 192.982 749.977C191.026 751.795 188.841 751.624 186.52 750.284L184.059 750.591L181.625 758.369Z" fill="#2F2E41"/>
<path d="M204.439 580.092C210.06 580.092 214.617 575.541 214.617 569.928C214.617 564.315 210.06 559.764 204.439 559.764C198.818 559.764 194.261 564.315 194.261 569.928C194.261 575.541 198.818 580.092 204.439 580.092Z" fill="#FFB8B8"/>
<path d="M195.351 633.453L221.888 632.727L214.095 608.234C218.938 600.481 214.064 592.736 207.166 584.992L201.713 581.362L192.989 580.636C189.211 584.672 187.144 590.012 187.221 595.535C187.394 607.364 189.491 620.24 195.351 633.453Z" fill="#575A89"/>
<path d="M256.32 649.939C256.825 649.435 257.204 648.817 257.423 648.138C257.643 647.46 257.698 646.738 257.584 646.034C257.469 645.33 257.189 644.662 256.766 644.088C256.343 643.513 255.789 643.046 255.15 642.727L244.025 637.17L239.953 642.033L250.324 650.277C251.19 650.966 252.281 651.312 253.387 651.25C254.492 651.188 255.537 650.721 256.32 649.939Z" fill="#FFB8B8"/>
<path d="M242.972 647.247L247.334 636.72L223.708 621.845L213.76 591.125C213.242 589.527 212.162 588.17 210.719 587.306C209.277 586.442 207.57 586.13 205.914 586.427C204.911 586.606 203.961 587.004 203.129 587.591C202.297 588.178 201.605 588.94 201.1 589.823C200.596 590.707 200.292 591.69 200.21 592.704C200.128 593.718 200.271 594.737 200.627 595.69L208.256 622.381L242.972 647.247Z" fill="#575A89"/>
<path d="M187.718 565.935C187.718 569.89 190.29 576.014 193.534 578.64C195.717 580.406 198.601 580.332 199.713 577.914C200.854 575.433 204.787 569.603 211.709 565.935C220.937 561.046 208.437 552.681 199.713 553.956C193.158 554.915 187.718 559.319 187.718 565.935Z" fill="#2F2E41"/>
<path d="M193.897 560.49C197.912 560.49 201.167 557.24 201.167 553.23C201.167 549.22 197.912 545.97 193.897 545.97C189.882 545.97 186.627 549.22 186.627 553.23C186.627 557.24 189.882 560.49 193.897 560.49Z" fill="#2F2E41"/>
<path d="M202.258 550.689C202.257 548.859 201.564 547.096 200.317 545.755C199.07 544.414 197.361 543.593 195.533 543.457C195.714 543.443 195.894 543.429 196.078 543.429C198.007 543.429 199.856 544.194 201.219 545.555C202.583 546.917 203.349 548.764 203.349 550.689C203.349 552.615 202.583 554.461 201.219 555.823C199.856 557.184 198.007 557.949 196.078 557.949C195.894 557.949 195.714 557.935 195.533 557.922C197.361 557.785 199.07 556.964 200.317 555.623C201.564 554.282 202.257 552.519 202.258 550.689Z" fill="#2F2E41"/>
<path d="M204.621 573.558C205.524 573.558 206.257 572.583 206.257 571.38C206.257 570.177 205.524 569.202 204.621 569.202C203.717 569.202 202.985 570.177 202.985 571.38C202.985 572.583 203.717 573.558 204.621 573.558Z" fill="#FFB8B8"/>
<path d="M410.61 740.109H297.435L273.469 626.976H253.016V621.899H277.589L301.555 735.033H410.61V740.109Z" fill="#3F3D56"/>
<path d="M314.02 760.778C320.036 760.778 324.914 755.908 324.914 749.9C324.914 743.892 320.036 739.021 314.02 739.021C308.004 739.021 303.126 743.892 303.126 749.9C303.126 755.908 308.004 760.778 314.02 760.778Z" fill="#3F3D56"/>
<path d="M395.359 760.778C401.376 760.778 406.253 755.908 406.253 749.9C406.253 743.892 401.376 739.021 395.359 739.021C389.343 739.021 384.466 743.892 384.466 749.9C384.466 755.908 389.343 760.778 395.359 760.778Z" fill="#3F3D56"/>
<path d="M408.547 737.719H298.434L279.005 641.843H426.779C427.533 641.843 428.278 642.006 428.963 642.321C429.648 642.636 430.257 643.096 430.747 643.668C431.237 644.24 431.597 644.911 431.802 645.636C432.008 646.36 432.054 647.121 431.937 647.865L413.704 733.315C413.515 734.545 412.891 735.666 411.945 736.474C410.998 737.282 409.792 737.724 408.547 737.719ZM299.63 736.268H408.547C409.446 736.272 410.316 735.953 410.999 735.37C411.682 734.786 412.133 733.977 412.268 733.09L430.501 647.639C430.586 647.103 430.553 646.554 430.405 646.031C430.256 645.508 429.997 645.023 429.643 644.61C429.289 644.197 428.85 643.865 428.356 643.638C427.861 643.411 427.324 643.293 426.779 643.293H280.768L299.63 736.268Z" fill="#3F3D56"/>
<path d="M319.84 737.412L307.116 642.686L308.549 642.45L321.273 737.176L319.84 737.412Z" fill="#3F3D56"/>
<path d="M390.587 736.685L389.153 736.453L401.505 642.452L402.939 642.684L390.587 736.685Z" fill="#3F3D56"/>
<path d="M356.88 642.568H355.427V737.294H356.88V642.568Z" fill="#3F3D56"/>
<path d="M286.425 667.95L286.421 669.401L427.02 669.741L427.023 668.29L286.425 667.95Z" fill="#3F3D56"/>
<path d="M417.102 712.756L293.583 713.599L293.593 715.049L417.111 714.206L417.102 712.756Z" fill="#3F3D56"/>
<path d="M255.194 628.064C259.606 628.064 263.183 626.115 263.183 623.712C263.183 621.309 259.606 619.361 255.194 619.361C250.782 619.361 247.206 621.309 247.206 623.712C247.206 626.115 250.782 628.064 255.194 628.064Z" fill="#3F3D56"/>
</g>
<path d="M1377.35 337.562C1377.73 338.006 1378.01 338.525 1378.18 339.084C1378.34 339.643 1378.39 340.231 1378.31 340.809C1378.23 341.387 1378.04 341.942 1377.73 342.439C1377.42 342.936 1377.02 343.363 1376.54 343.693L1356.22 357.643L1347.27 363.607C1346.76 363.946 1346.14 364.084 1345.54 363.993C1344.93 363.903 1344.38 363.591 1344 363.118C1343.77 362.843 1343.61 362.522 1343.52 362.177C1343.43 361.832 1343.42 361.472 1343.48 361.122C1343.54 360.771 1343.68 360.439 1343.89 360.148C1344.09 359.856 1344.36 359.613 1344.67 359.434L1353.33 354.402L1368.46 339.999L1358.74 329.557L1365.94 324.156L1377.35 337.562Z" fill="#A0616A"/>
<path d="M1329.56 468.907H1324.59L1321.64 427.858L1334.24 427.498L1329.56 468.907Z" fill="#A0616A"/>
<path d="M1329.92 482.23C1328.6 482.835 1327.49 477.935 1326.37 479.033C1323.24 482.106 1318.45 482.775 1314.28 481.434L1315.74 481.417C1315.49 481.336 1315.25 481.205 1315.05 481.031C1314.85 480.858 1314.69 480.646 1314.58 480.407C1314.46 480.169 1314.4 479.91 1314.38 479.646C1314.37 479.382 1314.41 479.118 1314.51 478.87C1314.62 478.574 1314.8 478.309 1315.04 478.098C1315.27 477.887 1315.56 477.737 1315.86 477.66L1319.19 476.829L1324.41 467.647L1329.74 467.287C1330.93 468.802 1331.76 470.566 1332.17 472.448C1332.58 474.33 1332.55 476.279 1332.1 478.15C1331.61 480.124 1330.87 481.799 1329.92 482.23Z" fill="#2F2E41"/>
<path d="M1362.66 468.907H1357.69L1354.74 427.858L1367.71 425.338L1362.66 468.907Z" fill="#A0616A"/>
<path d="M1363.02 482.23C1361.7 482.835 1360.59 477.935 1359.47 479.033C1356.34 482.106 1351.55 482.775 1347.38 481.434L1348.84 481.417C1348.59 481.336 1348.35 481.205 1348.15 481.031C1347.95 480.858 1347.79 480.646 1347.68 480.407C1347.56 480.169 1347.5 479.91 1347.48 479.646C1347.47 479.382 1347.51 479.118 1347.61 478.87C1347.72 478.574 1347.9 478.309 1348.14 478.098C1348.37 477.887 1348.66 477.737 1348.96 477.66L1352.29 476.829L1357.51 467.647L1363.2 466.927L1363.35 467.162C1364.45 468.935 1365.16 470.922 1365.43 472.991C1365.7 475.059 1365.53 477.162 1364.92 479.159C1364.45 480.675 1363.8 481.875 1363.02 482.23Z" fill="#2F2E41"/>
<path d="M1368.3 325.084C1363.73 325.72 1360.56 328.223 1359.27 333.216L1350.87 317.705C1350.37 316.719 1350.25 315.587 1350.51 314.516C1350.78 313.444 1351.43 312.506 1352.33 311.872C1353.29 311.199 1354.48 310.919 1355.64 311.089C1356.8 311.259 1357.85 311.866 1358.57 312.785L1368.3 325.084Z" fill="#F5B000"/>
<path d="M1377.11 423.537C1356.67 432.575 1335.76 433.687 1314.44 427.858C1322.22 397.659 1331.42 370.352 1331.36 347.921L1352.25 346.12L1355.47 351.218C1363.1 363.313 1368.37 376.746 1370.99 390.803L1377.11 423.537Z" fill="#2F2E41"/>
<path d="M1342.89 301.471C1348.86 301.471 1353.69 296.634 1353.69 290.668C1353.69 284.702 1348.86 279.866 1342.89 279.866C1336.92 279.866 1332.08 284.702 1332.08 290.668C1332.08 296.634 1336.92 301.471 1342.89 301.471Z" fill="#A0616A"/>
<path d="M1354.77 309.752L1341.45 310.473L1339.29 298.59L1350.09 296.79L1354.77 309.752Z" fill="#A0616A"/>
<path d="M1353.33 347.921L1338.73 348.332L1331.36 349.361C1327.75 337.413 1324.7 325.492 1332.08 315.514L1340.73 306.872L1353.69 306.512L1353.87 306.61C1355.92 307.789 1357.52 309.635 1358.39 311.842C1359.26 314.05 1359.35 316.488 1358.65 318.754C1355.43 329.208 1353.36 339.079 1353.33 347.921Z" fill="#F5B000"/>
<path d="M1331 381.408L1330.1 393.782C1330.05 394.445 1329.76 395.067 1329.29 395.536C1328.82 396.004 1328.19 396.287 1327.53 396.331C1327.15 396.356 1326.77 396.302 1326.41 396.171C1326.05 396.04 1325.72 395.836 1325.44 395.571C1325.16 395.306 1324.95 394.986 1324.8 394.632C1324.65 394.278 1324.58 393.898 1324.59 393.515L1324.88 381.408L1333.88 347.201L1334.24 326.316L1344.33 325.956L1343.61 350.081L1331 381.408Z" fill="#A0616A"/>
<path d="M1345.41 327.756C1341.13 326.018 1337.14 326.6 1333.52 330.277L1334.02 312.644C1334.08 311.541 1334.54 310.498 1335.31 309.705C1336.08 308.912 1337.11 308.423 1338.21 308.328C1339.38 308.226 1340.54 308.575 1341.46 309.303C1342.38 310.03 1342.98 311.082 1343.15 312.242L1345.41 327.756Z" fill="#F5B000"/>
<path d="M1365.76 338.739H1332.62C1340.35 318.275 1342.85 299.238 1332.62 282.927C1332.8 278.028 1339.08 273.781 1343.97 274.25C1349.73 274.804 1357.48 279.039 1358.56 284.727L1365.76 338.739Z" fill="#2F2E41"/>
<path d="M1260.16 273.35H1258.65V231.957C1258.65 228.811 1258.03 225.696 1256.82 222.789C1255.62 219.883 1253.85 217.242 1251.63 215.017C1249.4 212.792 1246.76 211.028 1243.85 209.824C1240.95 208.62 1237.83 208 1234.68 208H1146.96C1143.82 208 1140.7 208.62 1137.79 209.824C1134.89 211.028 1132.24 212.792 1130.02 215.017C1127.79 217.242 1126.03 219.883 1124.82 222.789C1123.62 225.696 1123 228.811 1123 231.957V459.043C1123 462.189 1123.62 465.304 1124.82 468.211C1126.03 471.117 1127.79 473.758 1130.02 475.983C1132.24 478.208 1134.89 479.972 1137.79 481.176C1140.7 482.38 1143.82 483 1146.96 483H1234.68C1237.83 483 1240.95 482.38 1243.85 481.176C1246.76 479.972 1249.4 478.208 1251.63 475.983C1253.85 473.758 1255.62 471.117 1256.82 468.211C1258.03 465.304 1258.65 462.189 1258.65 459.043V302.815H1260.16V273.35Z" fill="#3F3D56"/>
<path d="M1235.65 214.233H1224.2C1224.73 215.523 1224.93 216.924 1224.78 218.31C1224.64 219.697 1224.16 221.027 1223.38 222.184C1222.61 223.341 1221.56 224.289 1220.33 224.945C1219.09 225.6 1217.72 225.943 1216.33 225.943H1166.07C1164.68 225.943 1163.31 225.6 1162.08 224.945C1160.85 224.289 1159.8 223.341 1159.02 222.184C1158.24 221.027 1157.76 219.697 1157.62 218.31C1157.47 216.924 1157.68 215.523 1158.2 214.233H1147.51C1145.16 214.233 1142.83 214.696 1140.66 215.595C1138.49 216.494 1136.52 217.812 1134.85 219.473C1133.19 221.134 1131.87 223.107 1130.97 225.277C1130.08 227.448 1129.61 229.774 1129.61 232.124V458.876C1129.61 461.226 1130.08 463.552 1130.97 465.723C1131.87 467.893 1133.19 469.866 1134.85 471.527C1136.52 473.188 1138.49 474.506 1140.66 475.405C1142.83 476.304 1145.16 476.767 1147.51 476.767H1235.65C1238 476.767 1240.33 476.304 1242.5 475.405C1244.67 474.506 1246.64 473.188 1248.3 471.527C1249.97 469.866 1251.28 467.893 1252.18 465.723C1253.08 463.552 1253.55 461.226 1253.55 458.876V232.124C1253.55 227.379 1251.66 222.828 1248.3 219.473C1244.95 216.118 1240.4 214.233 1235.65 214.233Z" fill="white"/>
<path d="M1238.07 249.653H1145.09V329.382H1238.07V249.653Z" fill="#E6E6E6"/>
<path d="M1172.68 346.008C1176.44 346.008 1179.48 342.963 1179.48 339.207C1179.48 335.45 1176.44 332.405 1172.68 332.405C1168.92 332.405 1165.88 335.45 1165.88 339.207C1165.88 342.963 1168.92 346.008 1172.68 346.008Z" fill="#F5B000"/>
<path d="M1176.08 338.64H1173.25V335.806H1172.11V338.64H1169.28V339.773H1172.11V342.607H1173.25V339.773H1176.08V338.64Z" fill="white"/>
<path d="M1208.59 346.008C1212.34 346.008 1215.39 342.963 1215.39 339.207C1215.39 335.45 1212.34 332.405 1208.59 332.405C1204.83 332.405 1201.78 335.45 1201.78 339.207C1201.78 342.963 1204.83 346.008 1208.59 346.008Z" fill="#F5B000"/>
<path d="M1211.99 339.773V338.64H1205.19V339.773H1211.99Z" fill="white"/>
<path d="M1195.05 259.597H1187.7C1187.44 259.597 1187.19 259.699 1187.01 259.882C1186.83 260.064 1186.72 260.312 1186.72 260.57V263.795C1186.72 264.053 1186.83 264.301 1187.01 264.483C1187.19 264.666 1187.44 264.769 1187.7 264.769H1188.92V269.6H1193.83V264.769H1195.05C1195.3 264.769 1195.55 264.666 1195.74 264.483C1195.92 264.301 1196.02 264.053 1196.02 263.795V260.57C1196.02 260.312 1195.92 260.064 1195.74 259.882C1195.55 259.699 1195.3 259.597 1195.05 259.597Z" fill="#F5B000"/>
<path d="M1202.41 289.105C1197.91 282.522 1195.61 274.684 1195.83 266.714C1195.84 266.53 1195.78 266.351 1195.67 266.206C1195.55 266.061 1195.39 265.96 1195.21 265.919V264.526H1187.45V265.9H1187.35C1187.24 265.9 1187.14 265.921 1187.04 265.961C1186.94 266.001 1186.86 266.06 1186.78 266.134C1186.71 266.208 1186.65 266.296 1186.61 266.392C1186.57 266.489 1186.55 266.593 1186.55 266.697C1186.55 266.716 1186.55 266.736 1186.55 266.755C1187.16 275.275 1185.1 282.915 1180.36 289.676C1180.09 290.065 1179.95 290.531 1179.96 291.006L1180.81 317.246C1180.83 317.832 1181.08 318.386 1181.5 318.795C1181.92 319.203 1182.48 319.434 1183.06 319.439H1200.62C1201.21 319.434 1201.77 319.198 1202.2 318.781C1202.62 318.365 1202.86 317.8 1202.87 317.208L1203.2 291.73C1203.21 290.795 1202.93 289.879 1202.41 289.105Z" fill="#3F3D56"/>
<path opacity="0.2" d="M1193.51 260.647C1193.51 261.204 1193.29 261.739 1192.9 262.133C1192.5 262.527 1191.97 262.748 1191.41 262.748C1190.86 262.748 1190.32 262.527 1189.93 262.133C1189.53 261.739 1189.31 261.204 1189.31 260.647" fill="black"/>
<path d="M1199.63 297.821H1197.5C1197.3 296.505 1196.63 295.305 1195.62 294.437C1194.61 293.57 1193.32 293.094 1191.99 293.094C1190.66 293.094 1189.37 293.57 1188.36 294.437C1187.35 295.305 1186.68 296.505 1186.48 297.821H1184.35C1184.12 297.821 1183.9 297.87 1183.69 297.965C1183.49 298.059 1183.31 298.197 1183.16 298.368C1183.01 298.54 1182.9 298.741 1182.84 298.959C1182.78 299.176 1182.76 299.404 1182.8 299.628L1185.11 314.63H1198.36L1201.17 299.678C1201.21 299.452 1201.2 299.219 1201.15 298.996C1201.09 298.773 1200.98 298.565 1200.83 298.388C1200.69 298.211 1200.5 298.068 1200.29 297.97C1200.09 297.872 1199.86 297.821 1199.63 297.821Z" fill="#F5B000"/>
<path d="M1238.07 361.878H1145.09V441.607H1238.07V361.878Z" fill="#E6E6E6"/>
<path d="M1172.68 458.233C1176.44 458.233 1179.48 455.188 1179.48 451.432C1179.48 447.675 1176.44 444.63 1172.68 444.63C1168.92 444.63 1165.88 447.675 1165.88 451.432C1165.88 455.188 1168.92 458.233 1172.68 458.233Z" fill="#F5B000"/>
<path d="M1176.08 450.865H1173.25V448.031H1172.11V450.865H1169.28V451.999H1172.11V454.833H1173.25V451.999H1176.08V450.865Z" fill="white"/>
<path d="M1208.59 458.233C1212.34 458.233 1215.39 455.188 1215.39 451.432C1215.39 447.675 1212.34 444.63 1208.59 444.63C1204.83 444.63 1201.78 447.675 1201.78 451.432C1201.78 455.188 1204.83 458.233 1208.59 458.233Z" fill="#F5B000"/>
<path d="M1211.99 451.999V450.865H1205.19V451.999H1211.99Z" fill="white"/>
<path d="M1209.88 418.519H1209.93C1211.68 418.534 1213.4 418.021 1214.85 417.047C1216.31 416.073 1217.43 414.683 1218.09 413.059C1220.14 407.86 1220.63 402.171 1219.47 396.7C1218.32 391.23 1215.58 386.219 1211.6 382.293C1207.62 378.366 1202.57 375.697 1197.08 374.618C1191.6 373.538 1185.91 374.096 1180.74 376.223C1175.57 378.349 1171.14 381.949 1168 386.575C1164.86 391.201 1163.15 396.648 1163.08 402.239C1163.01 407.829 1164.59 413.316 1167.62 418.015C1170.65 422.715 1175 426.42 1180.12 428.668C1181.71 429.373 1183.47 429.58 1185.19 429.263C1186.9 428.946 1188.47 428.119 1189.7 426.891C1192.35 424.233 1195.49 422.125 1198.96 420.688C1202.42 419.252 1206.13 418.514 1209.88 418.519Z" fill="white"/>
<path d="M1195.24 409.892C1200.44 409.892 1204.65 405.679 1204.65 400.481C1204.65 395.284 1200.44 391.07 1195.24 391.07C1190.04 391.07 1185.83 395.284 1185.83 400.481C1185.83 405.679 1190.04 409.892 1195.24 409.892Z" fill="#F9A825"/>
<mask id="mask1_14_303" style="mask-type:luminance" maskUnits="userSpaceOnUse" x="1037" y="551" width="403" height="178">
<path d="M1037 551H1440V729H1037V551Z" fill="white"/>
</mask>
<g mask="url(#mask1_14_303)">
<path d="M1141.99 627.555V594.409C1141.99 591.104 1139.3 588.415 1135.99 588.415H1114.25C1110.94 588.415 1108.25 591.104 1108.25 594.409V627.555C1108.25 630.86 1110.94 633.548 1114.25 633.548H1135.99C1139.3 633.548 1141.99 630.86 1141.99 627.555Z" fill="#F5B000"/>
<path d="M1130.86 602.743H1119.38V599.877H1130.86V602.743Z" fill="#3F3D56"/>
<path d="M1127.99 597.728H1122.25V588.415H1127.99V597.728Z" fill="#3F3D56"/>
<path d="M1127.99 633.548H1122.25V624.235H1127.99V633.548Z" fill="#3F3D56"/>
<path d="M1157.43 628.895H1190.65C1193.96 628.895 1196.65 626.206 1196.65 622.901V601.217C1196.65 597.912 1193.96 595.224 1190.65 595.224H1157.43C1154.12 595.224 1151.42 597.912 1151.42 601.217V622.901C1151.42 626.206 1154.12 628.895 1157.43 628.895Z" fill="#F5B000"/>
<path d="M1167.58 599.88H1179.06V602.746H1167.58V599.88Z" fill="#3F3D56"/>
<path d="M1187.32 614.925V609.193H1196.65V614.925H1187.32Z" fill="#3F3D56"/>
<path d="M1151.42 614.925V609.193H1160.75V614.925H1151.42Z" fill="#3F3D56"/>
<path d="M1426.88 690.877L1432.43 658.598C1434.89 644.255 1424.25 630.983 1409.69 630.23L1330.64 626.144L1311.77 595.115C1309.27 591.002 1304.79 588.49 1299.97 588.49H1243.17C1238.71 588.49 1234.93 591.794 1234.35 596.211L1232.91 621.039L1091.3 621.463L1073.48 680.046L1090.02 679.242L1089.17 697.011L1110.79 697.858L1118 677.519C1119.36 673.689 1125.31 669.371 1131.49 665.758C1145.35 657.659 1163.15 660.258 1173.64 672.396C1176.12 675.259 1177.85 678.243 1178.33 681.04L1181.6 699.973L1340.18 697.435L1360.96 668.425C1367.1 661.758 1396.08 659.309 1398.69 668.425L1414.38 691.511L1426.88 690.877Z" fill="#D1D1D1"/>
<path d="M1254.53 607.37L1249.86 629.318L1309.22 630.587L1296.69 603.727C1295.55 601.29 1293.05 599.778 1290.36 599.894L1261.92 601.128C1258.32 601.285 1255.28 603.852 1254.53 607.37Z" fill="white"/>
<path d="M1317.28 628.895L1305.41 598.432L1308.52 595.331L1327.88 624.664L1323.94 630.587L1317.28 628.895Z" fill="white"/>
<path d="M1147.26 727.897C1131.8 727.897 1119.27 715.395 1119.27 699.973C1119.27 684.551 1131.8 672.049 1147.26 672.049C1162.71 672.049 1175.24 684.551 1175.24 699.973C1175.24 715.395 1162.71 727.897 1147.26 727.897Z" fill="#3F3D56"/>
<path d="M1166.55 699.973C1166.55 689.358 1157.89 680.723 1147.26 680.723C1136.62 680.723 1127.96 689.358 1127.96 699.973C1127.96 710.588 1136.62 719.223 1147.26 719.223C1157.89 719.223 1166.55 710.588 1166.55 699.973ZM1166.12 699.973C1166.12 710.354 1157.66 718.8 1147.26 718.8C1136.85 718.8 1128.39 710.354 1128.39 699.973C1128.39 689.592 1136.85 681.146 1147.26 681.146C1157.66 681.146 1166.12 689.592 1166.12 699.973Z" fill="white"/>
<path d="M1163.79 699.973C1163.79 709.086 1156.39 716.473 1147.26 716.473C1138.12 716.473 1130.72 709.086 1130.72 699.973C1130.72 690.86 1138.12 683.473 1147.26 683.473C1156.39 683.473 1163.79 690.86 1163.79 699.973ZM1136.51 696.022L1139.44 697.927L1140.56 696.204L1136.51 696.022ZM1140.97 705.712L1140.19 703.808L1137.73 707.033L1140.97 705.712ZM1148.47 712.243L1146.41 708.753V712.243H1148.47ZM1148.47 692.039L1146.41 688.55V692.039H1148.47ZM1157.63 707.033L1155.17 703.808L1154.39 705.712L1157.63 707.033ZM1158.85 696.022L1154.8 696.204L1155.92 697.927L1158.85 696.022Z" fill="#E6E6E6"/>
<path d="M1382.15 727.897C1366.7 727.897 1354.17 715.395 1354.17 699.973C1354.17 684.551 1366.7 672.049 1382.15 672.049C1397.61 672.049 1410.14 684.551 1410.14 699.973C1410.14 715.395 1397.61 727.897 1382.15 727.897Z" fill="#3F3D56"/>
<path d="M1401.44 699.973C1401.44 689.358 1392.79 680.723 1382.15 680.723C1371.51 680.723 1362.86 689.358 1362.86 699.973C1362.86 710.588 1371.51 719.223 1382.15 719.223C1392.79 719.223 1401.44 710.588 1401.44 699.973ZM1401.02 699.973C1401.02 710.354 1392.56 718.8 1382.15 718.8C1371.75 718.8 1363.28 710.354 1363.28 699.973C1363.28 689.592 1371.75 681.146 1382.15 681.146C1392.56 681.146 1401.02 689.592 1401.02 699.973Z" fill="white"/>
<path d="M1398.69 699.973C1398.69 709.086 1391.28 716.473 1382.15 716.473C1373.02 716.473 1365.62 709.086 1365.62 699.973C1365.62 690.86 1373.02 683.473 1382.15 683.473C1391.28 683.473 1398.69 690.86 1398.69 699.973ZM1371.4 696.022L1374.33 697.927L1375.46 696.204L1371.4 696.022ZM1375.86 705.712L1375.08 703.808L1372.63 707.033L1375.86 705.712ZM1383.36 712.243L1381.3 708.753V712.243H1383.36ZM1383.36 692.039L1381.3 688.55V692.039H1383.36ZM1392.52 707.033L1390.07 703.808L1389.29 705.712L1392.52 707.033ZM1393.75 696.022L1389.69 696.204L1390.82 697.927L1393.75 696.022Z" fill="#E6E6E6"/>
<path d="M1265.34 640.529H1249.23V637.145H1265.34V640.529Z" fill="#3F3D56"/>
<path d="M1038.24 706.973C1038.39 706.514 1039.53 706.716 1039.64 706.306C1039.75 705.897 1038.66 705.555 1037.82 704.403C1037.67 704.195 1036.72 702.886 1037.08 702.336C1037.77 701.292 1042.59 703.891 1043.75 702.433C1044 702.113 1044.1 701.563 1044.86 700.541C1045.16 700.134 1045.35 699.938 1045.58 699.943C1045.91 699.952 1046.03 700.36 1046.54 701.099C1047.31 702.208 1047.59 702.069 1048.1 702.977C1048.47 703.652 1048.52 704.083 1048.79 704.108C1049.18 704.144 1049.33 703.304 1049.8 703.272C1050.28 703.238 1050.76 704.068 1051 704.716C1051.45 705.933 1051.17 706.863 1051.11 707.789C1051.04 708.796 1051.2 710.27 1052.3 712.162L1062.64 728.604C1060.42 725.252 1054.11 716.112 1051.57 712.759C1050.84 711.792 1050.05 710.82 1048.84 710.637C1047.67 710.461 1046.25 711.037 1044.27 711.004C1044.04 711 1043.39 710.981 1043.23 710.64C1043.1 710.358 1043.43 710.113 1043.31 709.848C1043.15 709.493 1042.45 709.645 1041.48 709.409C1040.8 709.243 1040.34 708.968 1039.95 708.731C1039.83 708.66 1038.04 707.583 1038.24 706.973Z" fill="#F2F2F2"/>
<path d="M1065.33 710.812C1065.6 710.753 1065.83 711.368 1066.06 711.304C1066.3 711.239 1066.15 710.605 1066.47 709.863C1066.53 709.729 1066.9 708.885 1067.28 708.905C1067.99 708.943 1068.1 712.051 1069.15 712.196C1069.38 712.228 1069.68 712.12 1070.4 712.195C1070.69 712.225 1070.84 712.263 1070.91 712.378C1071 712.54 1070.83 712.715 1070.61 713.18C1070.29 713.878 1070.44 713.974 1070.14 714.484C1069.92 714.864 1069.72 715.01 1069.78 715.15C1069.88 715.349 1070.34 715.184 1070.49 715.405C1070.64 715.63 1070.37 716.105 1070.12 716.408C1069.65 716.978 1069.12 717.111 1068.64 717.348C1068.13 717.606 1067.45 718.108 1066.83 719.191L1061.73 729C1062.74 726.945 1065.41 721.22 1066.33 719.009C1066.6 718.37 1066.85 717.704 1066.59 717.057C1066.34 716.435 1065.64 715.905 1065.09 714.924C1065.02 714.81 1064.85 714.488 1064.97 714.313C1065.07 714.168 1065.28 714.255 1065.38 714.122C1065.51 713.942 1065.23 713.64 1065.07 713.1C1064.95 712.72 1064.96 712.415 1064.96 712.152C1064.96 712.073 1064.97 710.89 1065.33 710.812Z" fill="#F2F2F2"/>
<path d="M1060.24 713.205L1060.08 711.727L1059.98 711.634C1059.53 711.205 1059.24 710.75 1059.13 710.282C1059.12 710.208 1059.1 710.133 1059.09 710.056C1059.04 709.752 1058.97 709.374 1058.68 708.982C1058.52 708.763 1058.08 708.269 1057.63 708.442C1057.51 708.487 1057.43 708.565 1057.38 708.648C1057.36 708.633 1057.35 708.619 1057.33 708.604C1057.14 708.416 1057 708.348 1056.87 708.282C1056.77 708.231 1056.67 708.179 1056.5 708.039C1056.42 707.978 1056.36 707.923 1056.31 707.877C1056.15 707.737 1055.95 707.573 1055.67 707.638C1055.38 707.718 1055.28 707.995 1055.22 708.178C1055.1 708.506 1055.06 708.731 1055.04 708.88C1055.03 708.935 1055.02 708.996 1055.01 709.016C1054.95 709.177 1054.15 709.218 1053.85 709.236C1053.17 709.272 1052.58 709.304 1052.44 709.766C1052.34 710.097 1052.55 710.458 1053.09 710.868C1053.25 710.995 1053.42 711.083 1053.56 711.149C1053.48 711.233 1053.4 711.347 1053.4 711.503C1053.39 711.872 1053.77 712.155 1054.53 712.346C1054.72 712.394 1054.97 712.458 1055.3 712.442C1055.46 712.434 1055.59 712.41 1055.71 712.388C1055.73 712.454 1055.76 712.523 1055.82 712.588C1055.99 712.781 1056.26 712.83 1056.63 712.721C1057.04 712.608 1057.36 712.454 1057.64 712.318C1057.89 712.2 1058.11 712.099 1058.29 712.071C1058.62 712.024 1058.93 712.23 1059.31 712.505L1060.24 713.205Z" fill="#F2F2F2"/>
<path d="M1057.57 704.788L1059.04 705.008L1059.16 704.936C1059.69 704.606 1060.2 704.446 1060.68 704.462C1060.76 704.464 1060.84 704.471 1060.92 704.477C1061.22 704.503 1061.61 704.535 1062.06 704.352C1062.31 704.249 1062.9 703.956 1062.85 703.481C1062.84 703.353 1062.78 703.255 1062.71 703.179C1062.73 703.169 1062.75 703.159 1062.77 703.148C1063 703.009 1063.1 702.896 1063.2 702.787C1063.27 702.703 1063.35 702.617 1063.53 702.484C1063.61 702.425 1063.68 702.38 1063.73 702.342C1063.91 702.226 1064.12 702.074 1064.13 701.792C1064.12 701.491 1063.88 701.324 1063.72 701.213C1063.43 701.016 1063.22 700.924 1063.08 700.863C1063.03 700.84 1062.98 700.815 1062.96 700.803C1062.82 700.7 1062.98 699.917 1063.04 699.622C1063.18 698.96 1063.29 698.386 1062.88 698.133C1062.59 697.951 1062.18 698.063 1061.65 698.475C1061.49 698.604 1061.36 698.742 1061.26 698.865C1061.2 698.758 1061.11 698.66 1060.96 698.617C1060.6 698.514 1060.23 698.808 1059.85 699.491C1059.76 699.661 1059.63 699.889 1059.56 700.213C1059.53 700.366 1059.52 700.504 1059.51 700.622C1059.44 700.622 1059.37 700.635 1059.29 700.674C1059.06 700.788 1058.94 701.038 1058.96 701.423C1058.96 701.846 1059.03 702.196 1059.09 702.505C1059.14 702.775 1059.18 703.008 1059.17 703.188C1059.13 703.523 1058.85 703.772 1058.49 704.062L1057.57 704.788Z" fill="#F2F2F2"/>
<path d="M1057.37 700.373L1057.21 698.895L1057.11 698.802C1056.66 698.373 1056.37 697.918 1056.27 697.45C1056.25 697.376 1056.24 697.301 1056.22 697.224C1056.17 696.92 1056.1 696.542 1055.81 696.15C1055.65 695.932 1055.21 695.437 1054.77 695.61C1054.65 695.655 1054.56 695.733 1054.51 695.816C1054.49 695.802 1054.48 695.787 1054.46 695.772C1054.27 695.585 1054.14 695.516 1054.01 695.45C1053.91 695.399 1053.8 695.347 1053.63 695.207C1053.55 695.146 1053.49 695.091 1053.44 695.045C1053.28 694.905 1053.08 694.742 1052.81 694.806C1052.51 694.886 1052.41 695.163 1052.35 695.347C1052.23 695.674 1052.19 695.899 1052.17 696.049C1052.16 696.103 1052.15 696.165 1052.14 696.185C1052.08 696.345 1051.28 696.386 1050.98 696.404C1050.3 696.44 1049.71 696.472 1049.57 696.935C1049.47 697.265 1049.68 697.626 1050.22 698.036C1050.38 698.163 1050.55 698.251 1050.7 698.317C1050.61 698.401 1050.54 698.515 1050.53 698.671C1050.52 699.04 1050.9 699.323 1051.66 699.514C1051.85 699.562 1052.1 699.626 1052.43 699.61C1052.59 699.602 1052.72 699.578 1052.84 699.556C1052.86 699.622 1052.89 699.691 1052.95 699.757C1053.12 699.949 1053.39 699.998 1053.76 699.89C1054.17 699.776 1054.49 699.622 1054.77 699.486C1055.02 699.368 1055.24 699.267 1055.42 699.239C1055.75 699.192 1056.06 699.399 1056.44 699.673L1057.37 700.373Z" fill="#F2F2F2"/>
<path d="M1062.15 728.688L1062.41 728.431L1062.77 728.393C1062.77 728.359 1062.77 728.28 1062.78 728.156C1062.79 727.476 1062.83 725.407 1062.54 722.228C1062.34 720.009 1062.01 717.756 1061.54 715.531C1061.08 713.303 1060.6 711.646 1060.21 710.313C1059.92 709.308 1059.63 708.355 1059.34 707.426C1058.57 704.946 1057.85 702.602 1057.4 699.93C1057.3 699.333 1057.09 698.091 1057.52 696.625C1057.76 695.775 1058.19 694.974 1058.78 694.247L1058.21 693.788C1057.56 694.592 1057.09 695.478 1056.81 696.422C1056.34 698.047 1056.57 699.401 1056.68 700.051C1057.13 702.771 1057.86 705.137 1058.64 707.641C1058.92 708.566 1059.22 709.515 1059.51 710.516C1059.89 711.836 1060.37 713.48 1060.83 715.679C1061.28 717.877 1061.62 720.102 1061.81 722.294C1062.1 725.432 1062.06 727.471 1062.04 728.14C1062.04 728.498 1062.03 728.573 1062.15 728.688Z" fill="#F2F2F2"/>
<path d="M1060.34 695.088C1060.37 695.082 1060.4 695.074 1060.43 695.066C1061.03 694.897 1061.51 694.409 1061.86 693.613C1062.03 693.239 1062.06 692.845 1062.14 692.06C1062.15 691.939 1062.21 691.326 1062.14 690.514C1062.1 689.984 1062.04 689.771 1061.9 689.603C1061.74 689.417 1061.52 689.31 1061.29 689.257C1061.28 689.186 1061.26 689.118 1061.22 689.053C1061.03 688.782 1060.71 688.893 1060.54 688.951C1060.46 688.982 1060.35 689.021 1060.23 689.042C1060.04 689.074 1059.92 689.041 1059.75 688.992C1059.59 688.944 1059.39 688.885 1059.1 688.89C1058.55 688.898 1058.13 689.147 1058 689.229C1057.28 689.658 1057.04 690.342 1056.75 691.134C1056.69 691.293 1056.51 691.867 1056.46 692.606C1056.43 693.14 1056.5 693.358 1056.58 693.514C1056.74 693.835 1057 693.983 1057.62 694.296C1058.27 694.624 1058.6 694.788 1058.86 694.873C1059.49 695.068 1059.88 695.191 1060.34 695.088Z" fill="#F2F2F2"/>
<path d="M1249.33 724.874H1243.44L1240.64 702.215L1249.33 702.216V724.874Z" fill="#FFB6B6"/>
<path d="M1229.16 724.741C1228.98 725.049 1228.88 726.044 1228.88 726.402C1228.88 727.503 1229.78 728.396 1230.88 728.396H1249.11C1249.86 728.396 1250.47 727.787 1250.47 727.035V726.278C1250.47 726.278 1251.38 724.002 1249.52 721.196C1249.52 721.196 1247.21 723.393 1243.76 719.952L1242.75 718.113L1235.38 723.485L1231.3 723.987C1230.41 724.096 1229.62 723.97 1229.16 724.741Z" fill="#2F2E41"/>
<path d="M1275.78 724.874H1269.89L1267.09 702.215L1275.78 702.216V724.874Z" fill="#FFB6B6"/>
<path d="M1255.61 724.741C1255.43 725.049 1255.33 726.044 1255.33 726.402C1255.33 727.503 1256.23 728.396 1257.33 728.396H1275.56C1276.31 728.396 1276.92 727.787 1276.92 727.035V726.278C1276.92 726.278 1277.83 724.002 1275.97 721.196C1275.97 721.196 1273.66 723.393 1270.21 719.952L1269.2 718.113L1261.83 723.485L1257.75 723.987C1256.86 724.096 1256.07 723.97 1255.61 724.741Z" fill="#2F2E41"/>
<path d="M1250.26 570.155L1249.15 580.564L1262.18 579.449L1259.95 569.784L1250.26 570.155Z" fill="#FFB6B6"/>
<path opacity="0.1" d="M1250.26 570.155L1249.15 580.564L1262.18 579.449L1259.95 569.784L1250.26 570.155Z" fill="black"/>
<path d="M1254.92 571.457C1250.19 571.457 1246.35 567.629 1246.35 562.907C1246.35 558.185 1250.19 554.357 1254.92 554.357C1259.65 554.357 1263.49 558.185 1263.49 562.907C1263.49 567.629 1259.65 571.457 1254.92 571.457Z" fill="#FFB6B6"/>
<path d="M1249.33 576.289L1234.99 584.653L1239.69 607.329L1236.48 637.811L1238.71 712.53L1252.5 711.043L1254.36 647.477L1265.16 713.274H1278.55L1276.34 642.272L1269.63 612.162L1273.73 579.449L1261.25 575.546L1249.33 576.289Z" fill="#2F2E41"/>
<path d="M1248.77 565.323C1248.77 565.323 1248.03 562.721 1246.35 562.907C1244.67 563.092 1244.3 561.606 1244.67 560.862C1245.05 560.119 1245.79 556.401 1245.79 556.401C1245.79 556.401 1245.42 553.799 1247.65 553.427C1249.89 553.056 1250.64 552.684 1251.01 551.94C1251.38 551.197 1256.97 550.453 1258.83 551.569C1260.69 552.684 1262.18 554.824 1263.49 555.427C1264.79 556.03 1265.91 557.145 1265.16 559.003C1264.42 560.862 1263.34 564.497 1263.34 564.497C1263.34 564.497 1261.44 563.836 1261.07 564.951C1260.69 566.066 1262.18 564.579 1260.32 561.606C1258.46 558.632 1258.46 555.658 1255.48 556.773C1252.5 557.888 1249.15 557.516 1249.52 559.747C1249.89 561.977 1248.77 565.323 1248.77 565.323Z" fill="#2F2E41"/>
<path d="M1242.38 631.143C1244.18 633.038 1244.65 635.496 1243.44 636.635C1242.23 637.773 1239.8 637.16 1238.01 635.265C1237.28 634.518 1236.74 633.607 1236.44 632.611L1228.95 624.487L1232.84 621.059L1239.82 629.431C1240.8 629.789 1241.68 630.376 1242.38 631.143Z" fill="#FFB6B6"/>
<path d="M1235.14 584.467L1222.52 605.928L1220.65 615.725L1232.8 631.12L1237.94 624.589L1231.87 615.725L1241.69 598.463L1235.14 584.467Z" fill="#2F2E41"/>
<path d="M1270.63 629.145V603.842C1270.63 599.985 1267.49 596.848 1263.62 596.848H1224.86C1221 596.848 1217.85 599.985 1217.85 603.842V629.145C1217.85 633.001 1221 636.139 1224.86 636.139H1263.62C1267.49 636.139 1270.63 633.001 1270.63 629.145Z" fill="#F5B000"/>
<path d="M1251.78 612.818H1238.38V609.474H1251.78V612.818Z" fill="#3F3D56"/>
<path d="M1239.48 635.914V629.227H1250.37V635.914H1239.48Z" fill="#3F3D56"/>
<path d="M1238.96 603.76V597.072H1249.86V603.76H1238.96Z" fill="#3F3D56"/>
<path d="M1266.71 626.31C1264.92 628.205 1264.44 630.664 1265.65 631.802C1266.86 632.941 1269.29 632.328 1271.09 630.432C1271.81 629.685 1272.35 628.775 1272.65 627.778L1280.15 619.655L1276.25 616.226L1269.28 624.598C1268.3 624.956 1267.42 625.543 1266.71 626.31Z" fill="#FFB6B6"/>
<path d="M1273.95 579.635L1286.58 601.095L1288.45 610.892L1276.29 626.288L1271.15 619.756L1277.23 610.892L1267.41 593.631L1273.95 579.635Z" fill="#2F2E41"/>
<path d="M1430.92 681.964C1424.6 681.964 1419.47 677.513 1419.47 672.021C1419.47 666.53 1424.6 662.079 1430.92 662.079C1437.24 662.079 1442.37 666.53 1442.37 672.021C1442.37 677.513 1437.24 681.964 1430.92 681.964Z" fill="#E6E6E6"/>
</g>
<mask id="mask2_14_303" style="mask-type:luminance" maskUnits="userSpaceOnUse" x="1" y="198" width="350" height="175">
<path d="M351 198H1V373H351V198Z" fill="white"/>
</mask>
<g mask="url(#mask2_14_303)">
<path d="M72.1086 342.09C70.7438 352.801 65.725 362.601 60.3709 372.041C60.1939 372.362 60.0117 372.679 59.8251 373H4.17799C3.05255 372.707 1.94161 372.386 0.835342 372.041C-5.44983 370.124 -11.3835 367.2 -16.7351 363.382C-37.2077 348.608 -45.0855 320.691 -41.5272 295.676C-39.3147 280.135 -32.505 264.267 -19.2446 255.896C-12.2431 251.469 -3.24972 250.03 4.81005 251.675C5.02097 251.714 5.23165 251.762 5.44702 251.805C12.3814 253.369 18.559 257.254 22.0742 263.514C28.3954 274.762 24.6314 288.697 21.5235 301.216C18.425 313.736 16.744 328.721 25.7377 337.955C22.7685 329.201 25.6993 318.758 32.7917 312.839C38.1505 308.373 45.6116 306.699 52.4166 308.085C53.0679 308.224 53.7097 308.383 54.3418 308.575C55.8695 309.023 57.3425 309.641 58.7332 310.417C69.3405 316.35 73.6363 330.016 72.1086 342.09Z" fill="#F2F2F2"/>
<path d="M39.113 372.041C40.6549 372.4 42.2017 372.717 43.7581 373H35.3441C34.2425 372.703 33.1458 372.386 32.059 372.041C29.6692 371.292 27.3162 370.434 25 369.465C15.7096 365.56 7.15177 359.699 0.677176 351.899C-2.48933 348.12 -5.07507 343.889 -6.99464 339.346C-9.07614 334.211 -10.399 328.799 -10.9214 323.281C-12.0948 311.961 -10.8975 300.329 -8.66117 289.21C-6.35324 277.686 -2.62777 266.493 2.43 255.887C3.03819 254.616 3.66713 253.353 4.3168 252.097C4.36149 251.994 4.42915 251.902 4.51461 251.829C4.60008 251.756 4.7011 251.703 4.80996 251.675C5.03102 251.632 5.26006 251.679 5.44692 251.805C5.67119 251.934 5.83748 252.144 5.91146 252.392C5.98543 252.64 5.96144 252.907 5.84444 253.138C0.62961 263.325 -3.32339 274.111 -5.92672 285.258C-8.47434 296.132 -9.9206 307.51 -9.42744 318.691C-8.95813 329.138 -6.23305 339.413 -0.0507326 347.956C5.59538 355.756 13.3916 361.905 22.0166 366.093C27.4757 368.709 33.2103 370.704 39.113 372.041Z" fill="white"/>
<path d="M57.5791 373H55.0983C54.8205 372.683 54.5523 372.362 54.289 372.041C48.6386 365.164 44.8107 356.971 43.1595 348.22C41.1542 337.299 42.7141 326.021 47.6084 316.058C48.9738 313.264 50.5828 310.596 52.4164 308.085C53.0677 308.224 53.7095 308.383 54.3416 308.575C49.5185 314.975 46.2744 322.428 44.8739 330.323C43.6246 337.722 44.04 345.306 46.0897 352.523C48.1394 359.741 51.7718 366.409 56.7218 372.041C56.9994 372.362 57.2868 372.683 57.5791 373Z" fill="white"/>
<path d="M289.756 372.747C289.349 372.842 288.941 372.925 288.53 373H290.751C291.042 372.922 291.331 372.838 291.618 372.747C292.249 372.549 292.87 372.323 293.481 372.067C295.96 371.059 298.162 369.469 299.9 367.431C300.736 366.434 301.418 365.317 301.925 364.118C302.474 362.763 302.823 361.335 302.961 359.878C303.213 356.868 303.012 353.837 302.365 350.886C301.756 347.845 300.772 344.891 299.438 342.092C299.277 341.756 299.111 341.423 298.94 341.092C298.928 341.064 298.91 341.04 298.887 341.021C298.865 341.002 298.838 340.988 298.809 340.98C298.751 340.969 298.691 340.981 298.641 341.014C298.582 341.048 298.538 341.104 298.519 341.169C298.499 341.235 298.505 341.305 298.536 341.366C299.913 344.055 300.956 346.901 301.643 349.843C302.351 352.729 302.661 355.697 302.567 358.667C302.516 361.429 301.656 364.115 300.092 366.39C298.572 368.44 296.572 370.084 294.268 371.177C292.828 371.867 291.314 372.394 289.756 372.747Z" fill="white"/>
<path d="M284.883 373H285.538C285.611 372.916 285.682 372.832 285.751 372.747C287.242 370.932 288.253 368.77 288.688 366.46C289.218 363.578 288.806 360.601 287.514 357.972C287.154 357.235 286.729 356.53 286.245 355.868C286.073 355.905 285.904 355.946 285.737 355.997C287.01 357.686 287.866 359.653 288.236 361.737C288.566 363.689 288.456 365.691 287.915 367.596C287.374 369.501 286.415 371.26 285.109 372.747C285.036 372.832 284.96 372.916 284.883 373Z" fill="white"/>
<path d="M148.674 299.935H102.709L102.222 285.78C102.201 285.166 102.313 284.555 102.55 283.989C102.787 283.423 103.144 282.915 103.596 282.5C104.048 282.085 104.584 281.774 105.168 281.586C105.752 281.399 106.369 281.341 106.978 281.415L133.726 284.696H133.729C137.695 284.707 141.494 286.291 144.295 289.103C147.097 291.914 148.671 295.723 148.674 299.695V299.935Z" fill="#F5B000"/>
<path d="M128.187 249.723H96.1292C95.7028 249.723 95.2806 249.807 94.8867 249.97C94.4928 250.134 94.1349 250.373 93.8334 250.675C93.5319 250.977 93.2928 251.336 93.1297 251.73C92.9666 252.125 92.8827 252.548 92.8828 252.975V285.085C92.8827 285.512 92.9666 285.935 93.1297 286.33C93.2928 286.724 93.5319 287.083 93.8334 287.385C94.1349 287.687 94.4928 287.926 94.8867 288.09C95.2806 288.253 95.7028 288.337 96.1292 288.337H128.187C128.613 288.337 129.036 288.253 129.43 288.09C129.824 287.926 130.181 287.687 130.483 287.385C130.784 287.083 131.024 286.724 131.187 286.33C131.35 285.935 131.434 285.512 131.434 285.085V252.975C131.434 252.548 131.35 252.125 131.187 251.73C131.024 251.336 130.784 250.977 130.483 250.675C130.181 250.373 129.824 250.134 129.43 249.97C129.036 249.807 128.613 249.723 128.187 249.723Z" fill="#CCCCCC"/>
<path d="M120.967 273.734L105.831 276.687C104.933 276.861 104.003 276.671 103.245 276.159C102.487 275.647 101.962 274.855 101.786 273.956L100.623 267.971C100.449 267.072 100.638 266.14 101.15 265.381C101.661 264.621 102.452 264.096 103.349 263.92L118.485 260.967C119.383 260.793 120.313 260.983 121.071 261.495C121.83 262.007 122.354 262.799 122.53 263.698L123.694 269.683C123.867 270.582 123.678 271.513 123.167 272.273C122.656 273.033 121.865 273.558 120.967 273.734Z" fill="#3F3D56"/>
<path d="M117.939 266.664L106.388 268.917C106.177 268.958 105.958 268.914 105.779 268.793C105.601 268.673 105.477 268.486 105.436 268.275C105.395 268.063 105.439 267.844 105.56 267.665C105.68 267.486 105.866 267.362 106.078 267.321L117.629 265.068C117.84 265.027 118.059 265.071 118.237 265.192C118.416 265.312 118.539 265.499 118.58 265.711C118.622 265.922 118.577 266.142 118.457 266.32C118.337 266.499 118.15 266.623 117.939 266.664Z" fill="white"/>
<path d="M115.694 270.001L109.719 271.166C109.508 271.207 109.289 271.163 109.11 271.042C108.932 270.922 108.808 270.735 108.767 270.523C108.726 270.312 108.77 270.093 108.891 269.914C109.011 269.735 109.197 269.611 109.409 269.57L115.383 268.405C115.488 268.384 115.596 268.385 115.7 268.406C115.804 268.427 115.904 268.469 115.992 268.529C116.081 268.588 116.156 268.665 116.215 268.754C116.274 268.843 116.315 268.943 116.335 269.047C116.356 269.152 116.355 269.26 116.334 269.364C116.313 269.469 116.271 269.569 116.212 269.657C116.152 269.746 116.076 269.821 115.987 269.88C115.898 269.939 115.798 269.98 115.694 270.001Z" fill="white"/>
<path d="M131.433 252.975V257.243H92.8828V252.975C92.8827 252.548 92.9666 252.125 93.1297 251.73C93.2928 251.336 93.5319 250.977 93.8334 250.675C94.1349 250.373 94.4928 250.134 94.8867 249.97C95.2806 249.807 95.7028 249.723 96.1292 249.723H128.187C128.613 249.723 129.036 249.807 129.43 249.97C129.824 250.134 130.181 250.373 130.483 250.675C130.784 250.977 131.023 251.336 131.187 251.73C131.35 252.125 131.434 252.548 131.433 252.975Z" fill="#B3B3B3"/>
<path d="M208.415 258.579C208.193 257.86 207.815 257.198 207.31 256.64C206.804 256.082 206.183 255.642 205.489 255.351C204.795 255.06 204.046 254.925 203.295 254.955C202.543 254.985 201.808 255.18 201.139 255.526L157.035 239.676L155.093 250.712L199.057 262.822C199.711 263.908 200.74 264.715 201.95 265.092C203.159 265.468 204.464 265.387 205.617 264.864C206.771 264.341 207.693 263.413 208.209 262.254C208.724 261.096 208.798 259.788 208.415 258.579Z" fill="#FFB8B8"/>
<path opacity="0.2" d="M208.415 258.579C208.193 257.86 207.815 257.198 207.31 256.64C206.804 256.082 206.183 255.642 205.489 255.351C204.795 255.06 204.046 254.925 203.295 254.955C202.543 254.985 201.808 255.18 201.139 255.526L157.035 239.676L155.093 250.712L199.057 262.822C199.711 263.908 200.74 264.715 201.95 265.092C203.159 265.468 204.464 265.387 205.617 264.864C206.771 264.341 207.693 263.413 208.209 262.254C208.724 261.096 208.798 259.788 208.415 258.579Z" fill="black"/>
<path d="M164.864 241.687L160.699 252.586C160.58 252.896 160.397 253.177 160.16 253.409C159.923 253.642 159.639 253.82 159.328 253.933C159.016 254.046 158.683 254.09 158.353 254.062C158.023 254.035 157.702 253.936 157.413 253.773L147.291 248.067C145.711 247.45 144.439 246.232 143.755 244.677C143.07 243.123 143.029 241.361 143.64 239.776C144.251 238.191 145.464 236.914 147.014 236.224C148.563 235.534 150.323 235.487 151.907 236.095L163.21 238.606C163.533 238.678 163.837 238.819 164.102 239.019C164.366 239.22 164.584 239.475 164.741 239.767C164.898 240.06 164.99 240.382 165.011 240.714C165.033 241.045 164.982 241.377 164.864 241.687Z" fill="#F5B000"/>
<path d="M211.887 268.67L196.084 275.865L198.159 283.689C202.165 298.798 203.229 314.539 201.29 330.05L212.845 332.467L222.423 308.004L219.07 280.183L211.887 268.67Z" fill="#F5B000"/>
<path d="M242.895 304.886C232.512 304.886 224.05 312.447 223.64 321.914H262.151C261.74 312.447 253.279 304.886 242.895 304.886Z" fill="#3F3D56"/>
<path d="M234.812 306.518C234.272 263.779 209.971 267.711 209.971 267.711C209.971 267.711 210.426 281.014 210.644 281.428C226.13 310.774 200.573 345.179 168.042 338.849C167.429 338.73 166.84 338.609 166.275 338.486C162.153 337.624 158.513 335.222 156.097 331.768C153.68 328.314 152.668 324.067 153.266 319.892C156.471 294.117 140.532 294.573 140.532 294.573H117.226L105.123 283.662C104.696 283.277 104.181 283.003 103.624 282.863C103.066 282.723 102.483 282.722 101.925 282.861C101.367 282.999 100.851 283.272 100.423 283.656C99.9947 284.04 99.6669 284.523 99.4682 285.063L97.9111 289.296C97.9111 289.296 74.9244 291.695 76.84 314.24H83.9466C83.9295 314.88 83.9551 315.521 84.0233 316.158L137.061 315.726C140.17 315.701 142.914 318.224 142.927 321.338C142.93 322.097 142.78 322.848 142.487 323.547C142.194 324.245 141.763 324.878 141.22 325.406C140.677 325.934 140.033 326.348 139.327 326.621C138.621 326.894 137.867 327.022 137.111 326.997L128.56 326.711C125.926 338.463 132.391 346.378 139.515 351.355C146.222 355.972 154.18 358.421 162.318 358.37H185.548C215.718 358.37 220.986 332.947 220.986 332.947C236.789 326.232 234.812 306.518 234.812 306.518Z" fill="#3F3D56"/>
<path d="M241.459 372.28C256.336 372.28 268.396 360.2 268.396 345.299C268.396 330.397 256.336 318.317 241.459 318.317C226.581 318.317 214.521 330.397 214.521 345.299C214.521 360.2 226.581 372.28 241.459 372.28Z" fill="#3F3D56"/>
<path d="M241.459 351.912C245.105 351.912 248.061 348.951 248.061 345.299C248.061 341.646 245.105 338.685 241.459 338.685C237.812 338.685 234.856 341.646 234.856 345.299C234.856 348.951 237.812 351.912 241.459 351.912Z" fill="white"/>
<path d="M105.454 372.28C122.579 372.28 136.462 358.375 136.462 341.221C136.462 324.068 122.579 310.162 105.454 310.162C88.3284 310.162 74.4456 324.068 74.4456 341.221C74.4456 358.375 88.3284 372.28 105.454 372.28Z" fill="#3F3D56"/>
<path d="M105.454 348.834C109.651 348.834 113.054 345.426 113.054 341.221C113.054 337.017 109.651 333.609 105.454 333.609C101.256 333.609 97.8538 337.017 97.8538 341.221C97.8538 345.426 101.256 348.834 105.454 348.834Z" fill="white"/>
<path d="M196.129 277.991L190.442 262.522C190.146 261.716 190.011 260.859 190.045 260.001C190.08 259.142 190.282 258.299 190.642 257.519C191.002 256.739 191.511 256.038 192.141 255.455C192.772 254.872 193.51 254.419 194.315 254.123L210.617 248.112C212.033 247.589 213.538 247.351 215.046 247.412C216.554 247.472 218.035 247.829 219.406 248.463C220.776 249.097 222.008 249.994 223.032 251.105C224.055 252.216 224.851 253.517 225.372 254.936C225.842 256.209 226.083 257.556 226.081 258.914C226.075 260.637 225.686 262.338 224.941 263.892C224.197 265.446 223.116 266.815 221.777 267.898C220.81 268.675 219.723 269.289 218.559 269.716L196.129 277.991Z" fill="#3F3D56"/>
<path d="M225.842 258.914C225.841 260.602 225.461 262.269 224.732 263.792C224.003 265.314 222.942 266.653 221.628 267.711C219.611 267.178 217.735 266.212 216.129 264.88C214.523 263.547 213.226 261.88 212.328 259.995C211.43 258.11 210.953 256.051 210.93 253.962C210.907 251.874 211.338 249.805 212.194 247.9C213.836 247.543 215.538 247.558 217.174 247.945C218.81 248.332 220.338 249.081 221.647 250.138C222.956 251.194 224.013 252.53 224.738 254.049C225.464 255.568 225.841 257.23 225.842 258.914Z" fill="#F5B000"/>
<path d="M80.9105 317.357C84.6133 317.357 87.615 313.707 87.615 309.203C87.615 304.699 84.6133 301.048 80.9105 301.048C77.2077 301.048 74.2061 304.699 74.2061 309.203C74.2061 313.707 77.2077 317.357 80.9105 317.357Z" fill="#F5B000"/>
<path d="M169.535 338.068H175.406L178.199 322.816H169.534L169.535 338.068Z" fill="#FFB8B8"/>
<path d="M168.037 336.148H179.599H179.6C180.567 336.148 181.525 336.338 182.419 336.709C183.313 337.08 184.126 337.624 184.81 338.309C185.494 338.995 186.037 339.808 186.407 340.704C186.777 341.599 186.968 342.559 186.968 343.528V343.768L168.037 343.769V336.148Z" fill="#2F2E41"/>
<path d="M176.349 331.808C176.281 331.808 176.212 331.805 176.143 331.798L168.018 331.206C167.69 331.175 167.373 331.069 167.091 330.897C166.81 330.724 166.572 330.489 166.396 330.209C166.219 329.93 166.109 329.614 166.075 329.285C166.04 328.956 166.081 328.624 166.194 328.313L177.068 303.843C177.146 303.625 177.177 303.393 177.161 303.162C177.145 302.931 177.081 302.706 176.974 302.5C176.867 302.293 176.717 302.11 176.535 301.965C176.352 301.819 176.141 301.714 175.915 301.656C170.802 300.318 157.683 296.753 146.326 292.582C141.461 290.795 138.396 288.212 137.218 284.906C135.665 280.547 137.963 276.572 138.061 276.405L138.138 276.275L148.825 277.248L160.41 278.235L185.797 291.871C187.925 293.023 189.54 294.936 190.323 297.228C191.106 299.52 190.998 302.023 190.02 304.239L178.316 330.529C178.147 330.909 177.871 331.233 177.522 331.46C177.173 331.687 176.766 331.808 176.349 331.808Z" fill="#2F2E41"/>
<path d="M150.683 228.834C157.179 228.834 162.445 223.56 162.445 217.053C162.445 210.546 157.179 205.272 150.683 205.272C144.187 205.272 138.921 210.546 138.921 217.053C138.921 223.56 144.187 228.834 150.683 228.834Z" fill="#FFB8B8"/>
<path d="M166.182 339.507H172.054L174.847 324.255H166.181L166.182 339.507Z" fill="#FFB8B8"/>
<path d="M164.685 337.587H176.247C177.215 337.587 178.173 337.777 179.067 338.148C179.961 338.519 180.773 339.063 181.458 339.748C182.142 340.434 182.685 341.247 183.055 342.143C183.425 343.038 183.616 343.998 183.616 344.967V345.207L164.685 345.208V337.587Z" fill="#2F2E41"/>
<path d="M172.997 333.247C172.929 333.247 172.86 333.244 172.791 333.237L164.666 332.645C164.337 332.614 164.02 332.508 163.739 332.336C163.458 332.163 163.22 331.928 163.043 331.648C162.867 331.369 162.757 331.053 162.722 330.724C162.687 330.395 162.728 330.063 162.842 329.752L173.716 305.282C173.793 305.064 173.825 304.832 173.809 304.601C173.793 304.37 173.729 304.145 173.622 303.939C173.515 303.732 173.365 303.549 173.182 303.404C173 303.258 172.789 303.153 172.563 303.095C167.45 301.757 154.33 298.192 142.974 294.021C138.108 292.234 135.044 289.651 133.866 286.345C132.313 281.986 134.61 278.011 134.709 277.844L134.786 277.714L145.472 278.687L157.057 279.674L182.445 293.31C184.572 294.462 186.188 296.375 186.971 298.667C187.753 300.959 187.645 303.462 186.668 305.678L174.964 331.968C174.794 332.348 174.518 332.672 174.169 332.899C173.82 333.126 173.413 333.247 172.997 333.247Z" fill="#2F2E41"/>
<path d="M154.31 235.515L141.859 231.198C141.859 231.198 134.043 237.213 137.798 252.135C139.758 259.835 139.187 267.963 136.169 275.313C135.806 276.222 135.387 277.108 134.915 277.966C134.915 277.966 148.803 294.755 161.733 282.283L156.705 258.06C156.705 258.06 164.606 241.99 154.31 235.515Z" fill="#F5B000"/>
<path d="M152.143 229.235C150.469 226.725 149.148 223.245 150.991 220.857C152.811 218.5 156.399 218.847 159.185 217.804C163.066 216.351 165.317 211.784 164.615 207.694C163.913 203.605 160.635 200.214 156.731 198.827C152.826 197.44 148.423 197.891 144.599 199.488C139.892 201.455 135.854 205.259 134.16 210.078C132.467 214.897 133.372 220.683 136.885 224.386C140.651 228.357 146.561 229.416 152.029 229.351" fill="#2F2E41"/>
<path d="M141.202 207.826C139.093 209.546 135.874 208.782 133.61 207.272C131.345 205.763 129.508 203.613 127.058 202.43C122.739 200.343 117.517 201.73 113.313 204.041C109.11 206.353 105.383 209.546 100.943 211.359C96.5025 213.173 90.8364 213.263 87.4741 209.838C86.6467 212.239 86.5791 214.838 87.2804 217.279C87.9818 219.72 89.418 221.885 91.3931 223.478C93.3682 225.071 95.786 226.016 98.3166 226.182C100.847 226.348 103.367 225.728 105.533 224.406C110.398 221.438 113.086 215.214 118.543 213.576C121.562 212.669 124.805 213.399 127.857 214.19C130.909 214.981 134.091 215.836 137.171 215.162C140.251 214.489 143.131 211.717 142.74 208.584L141.202 207.826Z" fill="#2F2E41"/>
<path d="M207.83 258.099C207.521 257.413 207.065 256.802 206.494 256.311C205.924 255.82 205.253 255.461 204.529 255.258C203.804 255.055 203.044 255.013 202.302 255.136C201.56 255.259 200.854 255.543 200.234 255.969L154.514 245.691L153.946 256.882L199.066 263.466C199.849 264.463 200.97 265.137 202.216 265.361C203.462 265.585 204.747 265.344 205.828 264.682C206.908 264.021 207.709 262.985 208.078 261.772C208.447 260.559 208.359 259.252 207.83 258.099Z" fill="#FFB8B8"/>
<path d="M162.53 246.719L159.74 258.049C159.66 258.371 159.513 258.672 159.306 258.932C159.1 259.192 158.84 259.405 158.545 259.555C158.249 259.705 157.925 259.79 157.594 259.804C157.263 259.817 156.932 259.759 156.626 259.633L145.878 255.221C144.233 254.806 142.819 253.754 141.948 252.296C141.076 250.838 140.817 249.093 141.229 247.444C141.64 245.795 142.687 244.377 144.141 243.501C145.595 242.625 147.336 242.362 148.983 242.77L160.509 243.865C160.839 243.897 161.159 243.999 161.446 244.165C161.732 244.331 161.98 244.558 162.172 244.828C162.364 245.099 162.495 245.408 162.557 245.734C162.619 246.061 162.61 246.396 162.53 246.719Z" fill="#F5B000"/>
<path d="M202.549 266.991C204.4 266.991 205.901 265.488 205.901 263.634C205.901 261.779 204.4 260.276 202.549 260.276C200.697 260.276 199.197 261.779 199.197 263.634C199.197 265.488 200.697 266.991 202.549 266.991Z" fill="#F5B000"/>
</g>
</g>
</g>
<defs>
<filter id="filter0_d_14_303" x="789.999" y="-133" width="900.001" height="1200" filterUnits="userSpaceOnUse" color-interpolation-filters="sRGB">
<feFlood flood-opacity="0" result="BackgroundImageFix"/>
<feColorMatrix in="SourceAlpha" type="matrix" values="0 0 0 0 0 0 0 0 0 0 0 0 0 0 0 0 0 0 127 0" result="hardAlpha"/>
<feOffset dy="4"/>
<feGaussianBlur stdDeviation="125"/>
<feComposite in2="hardAlpha" operator="out"/>
<feColorMatrix type="matrix" values="0 0 0 0 0 0 0 0 0 0 0 0 0 0 0 0 0 0 0.25 0"/>
<feBlend mode="normal" in2="BackgroundImageFix" result="effect1_dropShadow_14_303"/>
<feBlend mode="normal" in="SourceGraphic" in2="effect1_dropShadow_14_303" result="shape"/>
</filter>
<filter id="filter1_d_14_303" x="-250" y="-133" width="895" height="1200" filterUnits="userSpaceOnUse" color-interpolation-filters="sRGB">
<feFlood flood-opacity="0" result="BackgroundImageFix"/>
<feColorMatrix in="SourceAlpha" type="matrix" values="0 0 0 0 0 0 0 0 0 0 0 0 0 0 0 0 0 0 127 0" result="hardAlpha"/>
<feOffset dy="4"/>
<feGaussianBlur stdDeviation="125"/>
<feComposite in2="hardAlpha" operator="out"/>
<feColorMatrix type="matrix" values="0 0 0 0 0 0 0 0 0 0 0 0 0 0 0 0 0 0 0.25 0"/>
<feBlend mode="normal" in2="BackgroundImageFix" result="effect1_dropShadow_14_303"/>
<feBlend mode="normal" in="SourceGraphic" in2="effect1_dropShadow_14_303" result="shape"/>
</filter>
<clipPath id="clip0_14_303">
<rect width="1440" height="866" fill="white"/>
</clipPath>
<clipPath id="clip1_14_303">
<rect width="1440" height="1132" fill="white" transform="translate(0 -65)"/>
</clipPath>
</defs>
</svg>
