<svg width="256" height="256" viewBox="0 0 256 256" fill="none" xmlns="http://www.w3.org/2000/svg">
<g clip-path="url(#clip0_2_15)">
<path d="M196 0H60C26.8629 0 0 26.8629 0 60V196C0 229.137 26.8629 256 60 256H196C229.137 256 256 229.137 256 196V60C256 26.8629 229.137 0 196 0Z" fill="#242938"/>
<path d="M196 0H60C26.8629 0 0 26.8629 0 60V196C0 229.137 26.8629 256 60 256H196C229.137 256 256 229.137 256 196V60C256 26.8629 229.137 0 196 0Z" fill="#242938"/>
<path d="M207 186.39C207 182.345 205.8 178.391 203.553 175.028C201.306 171.665 198.112 169.044 194.375 167.496C190.638 165.948 186.526 165.543 182.559 166.332C178.592 167.121 174.948 169.069 172.088 171.929C169.228 174.789 167.28 178.433 166.491 182.4C165.702 186.367 166.107 190.479 167.655 194.216C169.203 197.953 171.824 201.147 175.187 203.394C178.55 205.641 182.504 206.841 186.549 206.841C189.24 206.859 191.907 206.343 194.397 205.322C196.887 204.301 199.148 202.795 201.051 200.892C202.954 198.989 204.46 196.728 205.481 194.238C206.502 191.748 207.018 189.081 207 186.39Z" fill="#FFA056"/>
<path d="M186.392 90.9013C183.701 90.9199 181.033 90.4037 178.544 89.3825C176.054 88.3614 173.792 86.8557 171.89 84.9529C169.987 83.0502 168.481 80.7883 167.46 78.2988C166.439 75.8092 165.923 73.1415 165.941 70.4507C165.951 65.0335 168.111 59.8417 171.945 56.0148C175.779 52.1878 180.975 50.0385 186.392 50.0385C191.809 50.0385 197.005 52.1878 200.839 56.0148C204.673 59.8417 206.832 65.0335 206.842 70.4507C206.861 73.1415 206.345 75.8092 205.324 78.2987C204.303 80.7883 202.797 83.0502 200.894 84.9529C198.991 86.8556 196.73 88.3613 194.24 89.3825C191.75 90.4036 189.083 90.9199 186.392 90.9013Z" fill="#FFA056"/>
<path d="M149.03 186.39C149.05 189.088 148.536 191.764 147.518 194.263C146.499 196.762 144.996 199.035 143.095 200.95C141.194 202.866 138.932 204.386 136.441 205.423C133.95 206.461 131.278 206.995 128.579 206.995C125.881 206.995 123.209 206.461 120.717 205.423C118.226 204.386 115.965 202.866 114.064 200.95C112.163 199.035 110.66 196.762 109.641 194.263C108.622 191.764 108.108 189.088 108.129 186.39C108.117 176.443 104.16 166.907 97.1267 159.873C90.093 152.839 80.5568 148.883 70.6097 148.871C67.9108 148.892 65.2344 148.378 62.7348 147.36C60.2353 146.342 57.962 144.839 56.0462 142.937C54.1303 141.036 52.6097 138.775 51.572 136.283C50.5343 133.792 50 131.119 50 128.42C50 125.721 50.5343 123.049 51.572 120.557C52.6097 118.066 54.1303 115.804 56.0462 113.903C57.962 112.002 60.2353 110.499 62.7348 109.481C65.2344 108.462 67.9108 107.949 70.6097 107.97C80.5568 107.958 90.0931 104.001 97.1267 96.9676C104.16 89.934 108.117 80.3977 108.129 70.4506C108.129 66.4059 109.328 62.452 111.575 59.0889C113.822 55.7258 117.016 53.1046 120.753 51.5567C124.49 50.0089 128.602 49.6039 132.569 50.393C136.536 51.1821 140.18 53.1298 143.04 55.9899C145.9 58.8499 147.848 62.4939 148.637 66.4609C149.426 70.428 149.021 74.5399 147.473 78.2768C145.925 82.0136 143.304 85.2076 139.941 87.4547C136.578 89.7019 132.624 90.9013 128.579 90.9013C118.638 90.9151 109.108 94.8741 102.083 101.909C95.0581 108.943 91.1123 118.479 91.1123 128.42C91.1123 138.362 95.0581 147.897 102.083 154.932C109.108 161.967 118.638 165.926 128.579 165.939C133.996 165.964 139.183 168.127 143.013 171.957C146.843 175.786 149.005 180.974 149.03 186.39Z" fill="#FFA056"/>
</g>
<defs>
<clipPath id="clip0_2_15">
<rect width="256" height="256" fill="white"/>
</clipPath>
</defs>
</svg>
