<svg width="896" height="748" viewBox="0 0 896 748" fill="none" xmlns="http://www.w3.org/2000/svg">
<g clip-path="url(#clip0_1_2)">
<path d="M326.234 312.623L341.914 295.373C343.311 293.798 344.031 291.736 343.917 289.634C343.804 287.532 342.867 285.56 341.309 284.144C339.752 282.728 337.698 281.983 335.595 282.071C333.492 282.159 331.508 283.072 330.074 284.613L314.394 301.853C295.302 287.19 271.396 280.24 247.418 282.38C223.441 284.521 201.144 295.596 184.951 313.409C168.759 331.221 159.853 354.47 160.002 378.542C160.15 402.615 169.342 425.752 185.754 443.363L170.074 460.613C169.352 461.388 168.792 462.298 168.425 463.291C168.058 464.284 167.892 465.34 167.936 466.398C167.98 467.456 168.234 468.494 168.682 469.453C169.131 470.412 169.765 471.273 170.549 471.985C171.332 472.697 172.249 473.246 173.246 473.601C174.244 473.956 175.302 474.109 176.359 474.053C177.416 473.996 178.451 473.73 179.405 473.27C180.358 472.81 181.211 472.165 181.914 471.373L197.594 454.133C216.685 468.796 240.591 475.747 264.569 473.606C288.546 471.466 310.843 460.39 327.036 442.578C343.228 424.765 352.134 401.516 351.985 377.444C351.837 353.372 342.645 330.235 326.234 312.623ZM175.994 377.993C176.002 363.183 180.123 348.665 187.895 336.058C195.667 323.451 206.787 313.249 220.015 306.588C233.243 299.927 248.061 297.069 262.817 298.333C277.574 299.596 291.69 304.931 303.594 313.743L196.594 431.473C183.328 416.821 175.985 397.759 175.994 377.993ZM255.994 457.993C238.844 458.011 222.148 452.487 208.394 442.243L315.394 324.513C325.746 335.997 332.546 350.237 334.97 365.507C337.394 380.777 335.339 396.423 329.053 410.548C322.767 424.674 312.519 436.674 299.552 445.095C286.585 453.516 271.455 457.996 255.994 457.993Z" fill="#D73737"/>
<path d="M362.06 702.184H125.274V700.481H360.356V617.861H145.18L134.727 596.084L136.263 595.347L146.252 616.157H362.06V702.184Z" fill="#2F2E41"/>
<path d="M156.789 743.92C166.667 743.92 174.675 735.912 174.675 726.033C174.675 716.154 166.667 708.146 156.789 708.146C146.91 708.146 138.902 716.154 138.902 726.033C138.902 735.912 146.91 743.92 156.789 743.92Z" fill="#3F3D56"/>
<path d="M333.101 743.92C342.979 743.92 350.987 735.912 350.987 726.033C350.987 716.154 342.979 708.146 333.101 708.146C323.222 708.146 315.214 716.154 315.214 726.033C315.214 735.912 323.222 743.92 333.101 743.92Z" fill="#3F3D56"/>
<path d="M540.927 357.226C547.043 357.226 552 352.268 552 346.153C552 340.038 547.043 335.08 540.927 335.08C534.812 335.08 529.854 340.038 529.854 346.153C529.854 352.268 534.812 357.226 540.927 357.226Z" fill="#3F3D56"/>
<path d="M387.385 589.753H121.237L63.6484 401.517H446.693L446.344 402.624L387.385 589.753ZM122.497 588.05H386.136L444.37 403.22H65.9508L122.497 588.05Z" fill="#2F2E41"/>
<path d="M451.465 384.7L449.818 384.263L461.059 341.894H526.448V343.598H462.37L451.465 384.7Z" fill="#2F2E41"/>
<path d="M427.552 458.584H82.2584V460.287H427.552V458.584Z" fill="#2F2E41"/>
<path d="M407.777 521.344H101.459V523.047H407.777V521.344Z" fill="#2F2E41"/>
<path d="M256.017 402.368H254.314V588.901H256.017V402.368Z" fill="#2F2E41"/>
<path d="M332.286 402.315L320.057 588.843L321.758 588.955L333.986 402.426L332.286 402.315Z" fill="#2F2E41"/>
<path d="M178.081 402.313L176.38 402.424L188.538 588.957L190.238 588.846L178.081 402.313Z" fill="#2F2E41"/>
<path d="M896 745H0V747H896V745Z" fill="#2F2E41"/>
<path d="M595.411 61.876C595.411 61.876 610.029 103.482 601.033 109.883C592.037 116.284 631.394 168.559 631.394 168.559L678.623 155.757L652.76 112.017C652.76 112.017 649.386 68.2769 649.386 61.876C649.386 55.475 595.411 61.876 595.411 61.876Z" fill="#A0616A"/>
<path opacity="0.1" d="M595.411 61.876C595.411 61.876 610.029 103.482 601.033 109.883C592.037 116.284 631.394 168.559 631.394 168.559L678.623 155.757L652.76 112.017C652.76 112.017 649.386 68.2769 649.386 61.876C649.386 55.475 595.411 61.876 595.411 61.876Z" fill="black"/>
<path d="M570.874 358.454C570.874 358.454 566.606 411.795 570.874 439.533C575.141 467.27 581.542 544.082 581.542 544.082C581.542 544.082 581.542 689.171 605.012 691.304C628.482 693.438 645.552 695.572 647.685 687.037C649.819 678.502 637.017 674.235 643.418 669.968C649.819 665.7 651.953 650.765 643.418 633.696C634.883 616.626 643.418 443.8 643.418 443.8L683.957 552.617C683.957 552.617 688.225 642.23 692.492 655.032C696.759 667.834 688.225 691.304 703.16 693.438C718.096 695.572 735.165 682.77 743.7 678.502C752.234 674.235 730.898 674.235 735.165 672.101C739.432 669.968 752.234 663.567 747.967 661.433C743.7 659.299 739.432 556.884 739.432 556.884C739.432 556.884 727.697 338.184 712.762 329.65C697.826 321.115 688.225 335.815 688.225 335.815L570.874 358.454Z" fill="#2F2E41"/>
<path d="M609.279 682.77V699.839C609.279 699.839 590.077 746.238 609.279 746.238C628.482 746.238 643.418 751.047 643.418 744.646V687.037L609.279 682.77Z" fill="#2F2E41"/>
<path d="M735.165 682.739V699.809C735.165 699.809 754.368 746.208 735.165 746.208C715.962 746.208 701.027 751.016 701.027 744.615V687.007L735.165 682.739Z" fill="#2F2E41"/>
<path d="M625.282 92.814C646.493 92.814 663.688 75.6191 663.688 54.4082C663.688 33.1973 646.493 16.0024 625.282 16.0024C604.071 16.0024 586.876 33.1973 586.876 54.4082C586.876 75.6191 604.071 92.814 625.282 92.814Z" fill="#A0616A"/>
<path d="M613.547 125.886C613.547 125.886 624.215 157.89 641.284 151.49L658.354 145.089L688.225 349.919C688.225 349.919 664.754 384.058 630.616 362.721C596.477 341.385 613.547 125.886 613.547 125.886Z" fill="#6C63FF"/>
<path d="M643.418 119.485L653.019 99.215C653.019 99.215 709.561 125.886 718.096 134.42C726.631 142.955 726.63 155.757 726.63 155.757L711.695 209.098C711.695 209.098 715.962 326.449 715.962 330.717C715.962 334.984 730.898 358.454 720.23 349.919C709.561 341.385 707.428 332.85 698.893 345.652C690.358 358.454 671.156 373.39 671.156 373.39L643.418 119.485Z" fill="#3F3D56"/>
<path d="M718.096 273.108L711.695 332.85C711.695 332.85 673.289 366.989 681.824 369.122C690.358 371.256 694.626 362.721 694.626 362.721C694.626 362.721 709.561 377.657 718.096 369.122C726.63 360.588 747.967 279.509 747.967 279.509L718.096 273.108Z" fill="#A0616A"/>
<path d="M626.1 0.129871C617.586 -0.174499 608.474 -0.32506 601.296 4.26308C597.993 6.56567 595.096 9.40154 592.724 12.6546C585.732 21.4931 579.691 32.6139 582.288 43.58L585.304 42.4036C585.304 45.3308 584.654 48.2214 583.399 50.8662C583.824 49.6311 585.246 51.6277 584.866 52.877L581.543 63.7777C587.005 61.7753 593.8 65.8296 594.631 71.5874C595.011 58.9262 596.324 44.4078 606.595 36.9941C611.775 33.2554 618.33 32.1141 624.637 31.1006C630.455 30.1656 636.555 29.274 642.128 31.1895C647.7 33.1049 652.446 38.8045 651.183 44.5604C653.752 43.6752 656.626 45.466 657.896 47.8689C659.166 50.2718 659.233 53.1064 659.271 55.824C662.01 57.7598 665.127 53.9158 666.244 50.7529C668.864 43.3285 671.193 35.4255 669.782 27.6799C668.37 19.9343 662.058 12.5322 654.185 12.5059C655.141 11.4562 655.651 10.076 655.607 8.65715L649.118 8.10884C650.765 7.87558 652.28 7.07679 653.403 5.8493C650.798 8.71623 630.313 0.280481 626.1 0.129871Z" fill="#2F2E41"/>
<path d="M624.215 113.084C624.215 113.084 606.846 96.0629 600.595 97.1055C594.344 98.1481 585.809 113.084 585.809 113.084C585.809 113.084 534.602 130.153 536.735 147.222C538.869 164.291 562.339 247.504 562.339 247.504C562.339 247.504 581.542 347.786 564.473 358.454C547.403 369.122 645.552 396.86 647.685 384.058C649.819 371.256 654.086 243.237 647.685 224.034C641.284 204.831 624.215 113.084 624.215 113.084Z" fill="#3F3D56"/>
<path d="M698.893 147.222H725.276C725.276 147.222 743.7 228.301 745.833 236.836C747.967 245.37 752.234 285.91 750.101 285.91C747.967 285.91 705.294 277.375 705.294 283.776L698.893 147.222Z" fill="#3F3D56"/>
<path d="M698 348H597C587.144 302.66 586.32 258.853 597 217H698C681.701 258.101 680.682 301.607 698 348Z" fill="#F2F2F2"/>
<path d="M555.938 292.311L585.809 305.113C585.809 305.113 643.418 313.647 643.418 290.177C643.418 266.707 585.809 279.509 585.809 279.509L566.605 273.369L555.938 292.311Z" fill="#A0616A"/>
<path d="M562.339 134.42L536.735 140.821L517.532 253.905C517.532 253.905 511.131 283.776 521.8 285.91C532.468 288.043 562.339 305.113 562.339 305.113C562.339 305.113 566.606 273.108 575.141 273.108L553.804 256.039L566.606 181.361L562.339 134.42Z" fill="#3F3D56"/>
</g>
<defs>
<clipPath id="clip0_1_2">
<rect width="896" height="747.971" fill="white"/>
</clipPath>
</defs>
</svg>
